<?xml version="1.0" encoding="utf-8" standalone="no"?>
<!DOCTYPE svg PUBLIC "-//W3C//DTD SVG 1.1//EN"
  "http://www.w3.org/Graphics/SVG/1.1/DTD/svg11.dtd">
<svg xmlns:xlink="http://www.w3.org/1999/xlink" width="711.418258pt" height="567.426875pt" viewBox="0 0 711.418258 567.426875" xmlns="http://www.w3.org/2000/svg" version="1.1">
 <metadata>
  <rdf:RDF xmlns:dc="http://purl.org/dc/elements/1.1/" xmlns:cc="http://creativecommons.org/ns#" xmlns:rdf="http://www.w3.org/1999/02/22-rdf-syntax-ns#">
   <cc:Work>
    <dc:type rdf:resource="http://purl.org/dc/dcmitype/StillImage"/>
    <dc:date>2025-09-25T17:15:19.633947</dc:date>
    <dc:format>image/svg+xml</dc:format>
    <dc:creator>
     <cc:Agent>
      <dc:title>Matplotlib v3.9.2, https://matplotlib.org/</dc:title>
     </cc:Agent>
    </dc:creator>
   </cc:Work>
  </rdf:RDF>
 </metadata>
 <defs>
  <style type="text/css">*{stroke-linejoin: round; stroke-linecap: butt}</style>
 </defs>
 <g id="figure_1">
  <g id="patch_1">
   <path d="M 0 567.426875 
L 711.418258 567.426875 
L 711.418258 0 
L 0 0 
L 0 567.426875 
z
" style="fill: none"/>
  </g>
  <g id="axes_1">
   <g id="patch_2">
    <path d="M 84.709375 510.48 
L 673.393011 510.48 
L 673.393011 7.2 
L 84.709375 7.2 
L 84.709375 510.48 
z
" style="fill: none"/>
   </g>
   <g id="PolyCollection_1">
    <defs>
     <path id="mc54f2558a0" d="M 111.467722 -118.477692 
L 111.467722 -117.197596 
L 114.348745 -117.150172 
L 120.555683 -115.587704 
L 133.928143 -111.971847 
L 162.738374 -107.061479 
L 224.807747 -98.172637 
L 358.532351 -79.913817 
L 646.634664 -79.823239 
L 646.634664 -79.823523 
L 646.634664 -79.823523 
L 358.532351 -79.914491 
L 224.807747 -98.487635 
L 162.738374 -107.63786 
L 133.928143 -112.926192 
L 120.555683 -116.690358 
L 114.348745 -118.308912 
L 111.467722 -118.477692 
z
" style="stroke: #440154; stroke-opacity: 0.2"/>
    </defs>
    <g clip-path="url(#pd0445034b5)">
     <use xlink:href="#mc54f2558a0" x="0" y="567.426875" style="fill: #440154; fill-opacity: 0.2; stroke: #440154; stroke-opacity: 0.2"/>
    </g>
   </g>
   <g id="PolyCollection_2">
    <defs>
     <path id="m22ef808d0a" d="M 111.467722 -160.379228 
L 111.467722 -156.978285 
L 114.348745 -160.689871 
L 120.555683 -170.370406 
L 133.928143 -181.808818 
L 162.738374 -193.244308 
L 224.807747 -143.09668 
L 358.532351 -82.966404 
L 646.634664 -79.840945 
L 646.634664 -79.841286 
L 646.634664 -79.841286 
L 358.532351 -83.120058 
L 224.807747 -147.156163 
L 162.738374 -200.971265 
L 133.928143 -190.913131 
L 120.555683 -174.550316 
L 114.348745 -166.423925 
L 111.467722 -160.379228 
z
" style="stroke: #46327e; stroke-opacity: 0.2"/>
    </defs>
    <g clip-path="url(#pd0445034b5)">
     <use xlink:href="#m22ef808d0a" x="0" y="567.426875" style="fill: #46327e; fill-opacity: 0.2; stroke: #46327e; stroke-opacity: 0.2"/>
    </g>
   </g>
   <g id="PolyCollection_3">
    <defs>
     <path id="m8fdf3a3f54" d="M 111.467722 -167.162206 
L 111.467722 -161.953764 
L 114.348745 -164.50477 
L 120.555683 -172.3788 
L 133.928143 -186.830579 
L 162.738374 -182.97454 
L 224.807747 -138.031119 
L 358.532351 -81.55817 
L 646.634664 -79.84103 
L 646.634664 -79.841424 
L 646.634664 -79.841424 
L 358.532351 -81.589047 
L 224.807747 -142.463415 
L 162.738374 -189.153381 
L 133.928143 -194.173531 
L 120.555683 -178.45639 
L 114.348745 -168.706762 
L 111.467722 -167.162206 
z
" style="stroke: #365c8d; stroke-opacity: 0.2"/>
    </defs>
    <g clip-path="url(#pd0445034b5)">
     <use xlink:href="#m8fdf3a3f54" x="0" y="567.426875" style="fill: #365c8d; fill-opacity: 0.2; stroke: #365c8d; stroke-opacity: 0.2"/>
    </g>
   </g>
   <g id="PolyCollection_4">
    <defs>
     <path id="m6350c6d1a4" d="M 111.467722 -178.600031 
L 111.467722 -171.019765 
L 114.348745 -177.66449 
L 120.555683 -183.215479 
L 133.928143 -195.856916 
L 162.738374 -191.345749 
L 224.807747 -142.022283 
L 358.532351 -81.051413 
L 646.634664 -79.841781 
L 646.634664 -79.842157 
L 646.634664 -79.842157 
L 358.532351 -81.068754 
L 224.807747 -149.704699 
L 162.738374 -197.843265 
L 133.928143 -203.138791 
L 120.555683 -190.027179 
L 114.348745 -186.02475 
L 111.467722 -178.600031 
z
" style="stroke: #277f8e; stroke-opacity: 0.2"/>
    </defs>
    <g clip-path="url(#pd0445034b5)">
     <use xlink:href="#m6350c6d1a4" x="0" y="567.426875" style="fill: #277f8e; fill-opacity: 0.2; stroke: #277f8e; stroke-opacity: 0.2"/>
    </g>
   </g>
   <g id="PolyCollection_5">
    <defs>
     <path id="m9133e1f3c0" d="M 111.467722 -178.894562 
L 111.467722 -172.329094 
L 114.348745 -168.417482 
L 120.555683 -180.937071 
L 133.928143 -190.439247 
L 162.738374 -178.061353 
L 224.807747 -125.414024 
L 358.532351 -80.732695 
L 646.634664 -79.844357 
L 646.634664 -79.844767 
L 646.634664 -79.844767 
L 358.532351 -80.744068 
L 224.807747 -129.676108 
L 162.738374 -182.060157 
L 133.928143 -195.512879 
L 120.555683 -187.035295 
L 114.348745 -173.482279 
L 111.467722 -178.894562 
z
" style="stroke: #1fa187; stroke-opacity: 0.2"/>
    </defs>
    <g clip-path="url(#pd0445034b5)">
     <use xlink:href="#m9133e1f3c0" x="0" y="567.426875" style="fill: #1fa187; fill-opacity: 0.2; stroke: #1fa187; stroke-opacity: 0.2"/>
    </g>
   </g>
   <g id="PolyCollection_6">
    <defs>
     <path id="m536cbe63d3" d="M 111.467722 -187.487478 
L 111.467722 -180.497181 
L 114.348745 -182.878135 
L 120.555683 -198.52744 
L 133.928143 -193.165567 
L 162.738374 -177.260324 
L 224.807747 -117.799733 
L 358.532351 -80.563674 
L 646.634664 -79.849405 
L 646.634664 -79.849854 
L 646.634664 -79.849854 
L 358.532351 -80.571639 
L 224.807747 -120.830778 
L 162.738374 -180.207951 
L 133.928143 -200.715355 
L 120.555683 -210.379306 
L 114.348745 -191.290844 
L 111.467722 -187.487478 
z
" style="stroke: #4ac16d; stroke-opacity: 0.2"/>
    </defs>
    <g clip-path="url(#pd0445034b5)">
     <use xlink:href="#m536cbe63d3" x="0" y="567.426875" style="fill: #4ac16d; fill-opacity: 0.2; stroke: #4ac16d; stroke-opacity: 0.2"/>
    </g>
   </g>
   <g id="PolyCollection_7">
    <defs>
     <path id="m29279e231e" d="M 111.467722 -288.615093 
L 111.467722 -260.404835 
L 114.348745 -276.575433 
L 120.555683 -237.065977 
L 133.928143 -231.387742 
L 162.738374 -168.377037 
L 224.807747 -116.650542 
L 358.532351 -80.502077 
L 646.634664 -79.859284 
L 646.634664 -79.859863 
L 646.634664 -79.859863 
L 358.532351 -80.507762 
L 224.807747 -118.245572 
L 162.738374 -172.884986 
L 133.928143 -251.744632 
L 120.555683 -260.75441 
L 114.348745 -303.036867 
L 111.467722 -288.615093 
z
" style="stroke: #a0da39; stroke-opacity: 0.2"/>
    </defs>
    <g clip-path="url(#pd0445034b5)">
     <use xlink:href="#m29279e231e" x="0" y="567.426875" style="fill: #a0da39; fill-opacity: 0.2; stroke: #a0da39; stroke-opacity: 0.2"/>
    </g>
   </g>
   <g id="PolyCollection_8">
    <defs>
     <path id="mf1cc17f2be" d="M 111.467722 -537.350511 
L 111.467722 -513.056916 
L 114.348745 -479.02208 
L 120.555683 -383.992391 
L 133.928143 -295.718755 
L 162.738374 -187.342462 
L 224.807747 -117.044757 
L 358.532351 -80.570926 
L 646.634664 -79.871934 
L 646.634664 -79.872522 
L 646.634664 -79.872522 
L 358.532351 -80.576951 
L 224.807747 -117.828409 
L 162.738374 -207.076539 
L 133.928143 -320.443778 
L 120.555683 -409.391258 
L 114.348745 -498.38239 
L 111.467722 -537.350511 
z
" style="stroke: #fde725; stroke-opacity: 0.2"/>
    </defs>
    <g clip-path="url(#pd0445034b5)">
     <use xlink:href="#mf1cc17f2be" x="0" y="567.426875" style="fill: #fde725; fill-opacity: 0.2; stroke: #fde725; stroke-opacity: 0.2"/>
    </g>
   </g>
   <g id="matplotlib.axis_1">
    <g id="xtick_1">
     <g id="line2d_1">
      <path d="M 111.467722 510.48 
L 111.467722 7.2 
" clip-path="url(#pd0445034b5)" style="fill: none; stroke: #b0b0b0; stroke-opacity: 0.3; stroke-width: 0.8; stroke-linecap: square"/>
     </g>
     <g id="line2d_2">
      <defs>
       <path id="m5cca313783" d="M 0 0 
L 0 3.5 
" style="stroke: #000000; stroke-width: 0.8"/>
      </defs>
      <g>
       <use xlink:href="#m5cca313783" x="111.467722" y="510.48" style="stroke: #000000; stroke-width: 0.8"/>
      </g>
     </g>
     <g id="text_1">
      <!-- 1.0e-04 -->
      <g transform="translate(53.884128 540.275312) scale(0.3 -0.3)">
       <defs>
        <path id="DejaVuSans-31" d="M 794 531 
L 1825 531 
L 1825 4091 
L 703 3866 
L 703 4441 
L 1819 4666 
L 2450 4666 
L 2450 531 
L 3481 531 
L 3481 0 
L 794 0 
L 794 531 
z
" transform="scale(0.015625)"/>
        <path id="DejaVuSans-2e" d="M 684 794 
L 1344 794 
L 1344 0 
L 684 0 
L 684 794 
z
" transform="scale(0.015625)"/>
        <path id="DejaVuSans-30" d="M 2034 4250 
Q 1547 4250 1301 3770 
Q 1056 3291 1056 2328 
Q 1056 1369 1301 889 
Q 1547 409 2034 409 
Q 2525 409 2770 889 
Q 3016 1369 3016 2328 
Q 3016 3291 2770 3770 
Q 2525 4250 2034 4250 
z
M 2034 4750 
Q 2819 4750 3233 4129 
Q 3647 3509 3647 2328 
Q 3647 1150 3233 529 
Q 2819 -91 2034 -91 
Q 1250 -91 836 529 
Q 422 1150 422 2328 
Q 422 3509 836 4129 
Q 1250 4750 2034 4750 
z
" transform="scale(0.015625)"/>
        <path id="DejaVuSans-65" d="M 3597 1894 
L 3597 1613 
L 953 1613 
Q 991 1019 1311 708 
Q 1631 397 2203 397 
Q 2534 397 2845 478 
Q 3156 559 3463 722 
L 3463 178 
Q 3153 47 2828 -22 
Q 2503 -91 2169 -91 
Q 1331 -91 842 396 
Q 353 884 353 1716 
Q 353 2575 817 3079 
Q 1281 3584 2069 3584 
Q 2775 3584 3186 3129 
Q 3597 2675 3597 1894 
z
M 3022 2063 
Q 3016 2534 2758 2815 
Q 2500 3097 2075 3097 
Q 1594 3097 1305 2825 
Q 1016 2553 972 2059 
L 3022 2063 
z
" transform="scale(0.015625)"/>
        <path id="DejaVuSans-2d" d="M 313 2009 
L 1997 2009 
L 1997 1497 
L 313 1497 
L 313 2009 
z
" transform="scale(0.015625)"/>
        <path id="DejaVuSans-34" d="M 2419 4116 
L 825 1625 
L 2419 1625 
L 2419 4116 
z
M 2253 4666 
L 3047 4666 
L 3047 1625 
L 3713 1625 
L 3713 1100 
L 3047 1100 
L 3047 0 
L 2419 0 
L 2419 1100 
L 313 1100 
L 313 1709 
L 2253 4666 
z
" transform="scale(0.015625)"/>
       </defs>
       <use xlink:href="#DejaVuSans-31"/>
       <use xlink:href="#DejaVuSans-2e" x="63.623047"/>
       <use xlink:href="#DejaVuSans-30" x="95.410156"/>
       <use xlink:href="#DejaVuSans-65" x="159.033203"/>
       <use xlink:href="#DejaVuSans-2d" x="220.556641"/>
       <use xlink:href="#DejaVuSans-30" x="256.640625"/>
       <use xlink:href="#DejaVuSans-34" x="320.263672"/>
      </g>
     </g>
    </g>
    <g id="xtick_2">
     <g id="line2d_3">
      <path d="M 646.634664 510.48 
L 646.634664 7.2 
" clip-path="url(#pd0445034b5)" style="fill: none; stroke: #b0b0b0; stroke-opacity: 0.3; stroke-width: 0.8; stroke-linecap: square"/>
     </g>
     <g id="line2d_4">
      <g>
       <use xlink:href="#m5cca313783" x="646.634664" y="510.48" style="stroke: #000000; stroke-width: 0.8"/>
      </g>
     </g>
     <g id="text_2">
      <!-- 2.2e-02 -->
      <g transform="translate(589.051071 540.275312) scale(0.3 -0.3)">
       <defs>
        <path id="DejaVuSans-32" d="M 1228 531 
L 3431 531 
L 3431 0 
L 469 0 
L 469 531 
Q 828 903 1448 1529 
Q 2069 2156 2228 2338 
Q 2531 2678 2651 2914 
Q 2772 3150 2772 3378 
Q 2772 3750 2511 3984 
Q 2250 4219 1831 4219 
Q 1534 4219 1204 4116 
Q 875 4013 500 3803 
L 500 4441 
Q 881 4594 1212 4672 
Q 1544 4750 1819 4750 
Q 2544 4750 2975 4387 
Q 3406 4025 3406 3419 
Q 3406 3131 3298 2873 
Q 3191 2616 2906 2266 
Q 2828 2175 2409 1742 
Q 1991 1309 1228 531 
z
" transform="scale(0.015625)"/>
       </defs>
       <use xlink:href="#DejaVuSans-32"/>
       <use xlink:href="#DejaVuSans-2e" x="63.623047"/>
       <use xlink:href="#DejaVuSans-32" x="95.410156"/>
       <use xlink:href="#DejaVuSans-65" x="159.033203"/>
       <use xlink:href="#DejaVuSans-2d" x="220.556641"/>
       <use xlink:href="#DejaVuSans-30" x="256.640625"/>
       <use xlink:href="#DejaVuSans-32" x="320.263672"/>
      </g>
     </g>
    </g>
    <g id="text_3">
     <!-- μ -->
     <g transform="translate(366.326193 551.908125) scale(0.4 -0.4)">
      <defs>
       <path id="DejaVuSans-3bc" d="M 544 -1331 
L 544 3500 
L 1119 3500 
L 1119 1325 
Q 1119 872 1334 640 
Q 1550 409 1972 409 
Q 2434 409 2667 671 
Q 2900 934 2900 1459 
L 2900 3500 
L 3475 3500 
L 3475 806 
Q 3475 619 3529 530 
Q 3584 441 3700 441 
Q 3728 441 3778 458 
Q 3828 475 3916 513 
L 3916 50 
Q 3788 -22 3673 -56 
Q 3559 -91 3450 -91 
Q 3234 -91 3106 31 
Q 2978 153 2931 403 
Q 2775 156 2548 32 
Q 2322 -91 2016 -91 
Q 1697 -91 1473 31 
Q 1250 153 1119 397 
L 1119 -1331 
L 544 -1331 
z
" transform="scale(0.015625)"/>
      </defs>
      <use xlink:href="#DejaVuSans-3bc"/>
     </g>
    </g>
   </g>
   <g id="matplotlib.axis_2">
    <g id="ytick_1">
     <g id="line2d_5">
      <path d="M 84.709375 487.603494 
L 673.393011 487.603494 
" clip-path="url(#pd0445034b5)" style="fill: none; stroke: #b0b0b0; stroke-opacity: 0.3; stroke-width: 0.8; stroke-linecap: square"/>
     </g>
     <g id="line2d_6">
      <defs>
       <path id="m5de4bce77f" d="M 0 0 
L -3.5 0 
" style="stroke: #000000; stroke-width: 0.8"/>
      </defs>
      <g>
       <use xlink:href="#m5de4bce77f" x="84.709375" y="487.603494" style="stroke: #000000; stroke-width: 0.8"/>
      </g>
     </g>
     <g id="text_4">
      <!-- 0.00 -->
      <g transform="translate(10.9125 499.00115) scale(0.3 -0.3)">
       <use xlink:href="#DejaVuSans-30"/>
       <use xlink:href="#DejaVuSans-2e" x="63.623047"/>
       <use xlink:href="#DejaVuSans-30" x="95.410156"/>
       <use xlink:href="#DejaVuSans-30" x="159.033203"/>
      </g>
     </g>
    </g>
    <g id="ytick_2">
     <g id="line2d_7">
      <path d="M 84.709375 42.223161 
L 673.393011 42.223161 
" clip-path="url(#pd0445034b5)" style="fill: none; stroke: #b0b0b0; stroke-opacity: 0.3; stroke-width: 0.8; stroke-linecap: square"/>
     </g>
     <g id="line2d_8">
      <g>
       <use xlink:href="#m5de4bce77f" x="84.709375" y="42.223161" style="stroke: #000000; stroke-width: 0.8"/>
      </g>
     </g>
     <g id="text_5">
      <!-- 0.91 -->
      <g transform="translate(10.9125 53.620818) scale(0.3 -0.3)">
       <defs>
        <path id="DejaVuSans-39" d="M 703 97 
L 703 672 
Q 941 559 1184 500 
Q 1428 441 1663 441 
Q 2288 441 2617 861 
Q 2947 1281 2994 2138 
Q 2813 1869 2534 1725 
Q 2256 1581 1919 1581 
Q 1219 1581 811 2004 
Q 403 2428 403 3163 
Q 403 3881 828 4315 
Q 1253 4750 1959 4750 
Q 2769 4750 3195 4129 
Q 3622 3509 3622 2328 
Q 3622 1225 3098 567 
Q 2575 -91 1691 -91 
Q 1453 -91 1209 -44 
Q 966 3 703 97 
z
M 1959 2075 
Q 2384 2075 2632 2365 
Q 2881 2656 2881 3163 
Q 2881 3666 2632 3958 
Q 2384 4250 1959 4250 
Q 1534 4250 1286 3958 
Q 1038 3666 1038 3163 
Q 1038 2656 1286 2365 
Q 1534 2075 1959 2075 
z
" transform="scale(0.015625)"/>
       </defs>
       <use xlink:href="#DejaVuSans-30"/>
       <use xlink:href="#DejaVuSans-2e" x="63.623047"/>
       <use xlink:href="#DejaVuSans-39" x="95.410156"/>
       <use xlink:href="#DejaVuSans-31" x="159.033203"/>
      </g>
     </g>
    </g>
    <g id="text_6">
     <!-- Largest Cluster Fraction -->
     <g transform="translate(37.59375 496.90875) rotate(-90) scale(0.4 -0.4)">
      <defs>
       <path id="DejaVuSans-4c" d="M 628 4666 
L 1259 4666 
L 1259 531 
L 3531 531 
L 3531 0 
L 628 0 
L 628 4666 
z
" transform="scale(0.015625)"/>
       <path id="DejaVuSans-61" d="M 2194 1759 
Q 1497 1759 1228 1600 
Q 959 1441 959 1056 
Q 959 750 1161 570 
Q 1363 391 1709 391 
Q 2188 391 2477 730 
Q 2766 1069 2766 1631 
L 2766 1759 
L 2194 1759 
z
M 3341 1997 
L 3341 0 
L 2766 0 
L 2766 531 
Q 2569 213 2275 61 
Q 1981 -91 1556 -91 
Q 1019 -91 701 211 
Q 384 513 384 1019 
Q 384 1609 779 1909 
Q 1175 2209 1959 2209 
L 2766 2209 
L 2766 2266 
Q 2766 2663 2505 2880 
Q 2244 3097 1772 3097 
Q 1472 3097 1187 3025 
Q 903 2953 641 2809 
L 641 3341 
Q 956 3463 1253 3523 
Q 1550 3584 1831 3584 
Q 2591 3584 2966 3190 
Q 3341 2797 3341 1997 
z
" transform="scale(0.015625)"/>
       <path id="DejaVuSans-72" d="M 2631 2963 
Q 2534 3019 2420 3045 
Q 2306 3072 2169 3072 
Q 1681 3072 1420 2755 
Q 1159 2438 1159 1844 
L 1159 0 
L 581 0 
L 581 3500 
L 1159 3500 
L 1159 2956 
Q 1341 3275 1631 3429 
Q 1922 3584 2338 3584 
Q 2397 3584 2469 3576 
Q 2541 3569 2628 3553 
L 2631 2963 
z
" transform="scale(0.015625)"/>
       <path id="DejaVuSans-67" d="M 2906 1791 
Q 2906 2416 2648 2759 
Q 2391 3103 1925 3103 
Q 1463 3103 1205 2759 
Q 947 2416 947 1791 
Q 947 1169 1205 825 
Q 1463 481 1925 481 
Q 2391 481 2648 825 
Q 2906 1169 2906 1791 
z
M 3481 434 
Q 3481 -459 3084 -895 
Q 2688 -1331 1869 -1331 
Q 1566 -1331 1297 -1286 
Q 1028 -1241 775 -1147 
L 775 -588 
Q 1028 -725 1275 -790 
Q 1522 -856 1778 -856 
Q 2344 -856 2625 -561 
Q 2906 -266 2906 331 
L 2906 616 
Q 2728 306 2450 153 
Q 2172 0 1784 0 
Q 1141 0 747 490 
Q 353 981 353 1791 
Q 353 2603 747 3093 
Q 1141 3584 1784 3584 
Q 2172 3584 2450 3431 
Q 2728 3278 2906 2969 
L 2906 3500 
L 3481 3500 
L 3481 434 
z
" transform="scale(0.015625)"/>
       <path id="DejaVuSans-73" d="M 2834 3397 
L 2834 2853 
Q 2591 2978 2328 3040 
Q 2066 3103 1784 3103 
Q 1356 3103 1142 2972 
Q 928 2841 928 2578 
Q 928 2378 1081 2264 
Q 1234 2150 1697 2047 
L 1894 2003 
Q 2506 1872 2764 1633 
Q 3022 1394 3022 966 
Q 3022 478 2636 193 
Q 2250 -91 1575 -91 
Q 1294 -91 989 -36 
Q 684 19 347 128 
L 347 722 
Q 666 556 975 473 
Q 1284 391 1588 391 
Q 1994 391 2212 530 
Q 2431 669 2431 922 
Q 2431 1156 2273 1281 
Q 2116 1406 1581 1522 
L 1381 1569 
Q 847 1681 609 1914 
Q 372 2147 372 2553 
Q 372 3047 722 3315 
Q 1072 3584 1716 3584 
Q 2034 3584 2315 3537 
Q 2597 3491 2834 3397 
z
" transform="scale(0.015625)"/>
       <path id="DejaVuSans-74" d="M 1172 4494 
L 1172 3500 
L 2356 3500 
L 2356 3053 
L 1172 3053 
L 1172 1153 
Q 1172 725 1289 603 
Q 1406 481 1766 481 
L 2356 481 
L 2356 0 
L 1766 0 
Q 1100 0 847 248 
Q 594 497 594 1153 
L 594 3053 
L 172 3053 
L 172 3500 
L 594 3500 
L 594 4494 
L 1172 4494 
z
" transform="scale(0.015625)"/>
       <path id="DejaVuSans-20" transform="scale(0.015625)"/>
       <path id="DejaVuSans-43" d="M 4122 4306 
L 4122 3641 
Q 3803 3938 3442 4084 
Q 3081 4231 2675 4231 
Q 1875 4231 1450 3742 
Q 1025 3253 1025 2328 
Q 1025 1406 1450 917 
Q 1875 428 2675 428 
Q 3081 428 3442 575 
Q 3803 722 4122 1019 
L 4122 359 
Q 3791 134 3420 21 
Q 3050 -91 2638 -91 
Q 1578 -91 968 557 
Q 359 1206 359 2328 
Q 359 3453 968 4101 
Q 1578 4750 2638 4750 
Q 3056 4750 3426 4639 
Q 3797 4528 4122 4306 
z
" transform="scale(0.015625)"/>
       <path id="DejaVuSans-6c" d="M 603 4863 
L 1178 4863 
L 1178 0 
L 603 0 
L 603 4863 
z
" transform="scale(0.015625)"/>
       <path id="DejaVuSans-75" d="M 544 1381 
L 544 3500 
L 1119 3500 
L 1119 1403 
Q 1119 906 1312 657 
Q 1506 409 1894 409 
Q 2359 409 2629 706 
Q 2900 1003 2900 1516 
L 2900 3500 
L 3475 3500 
L 3475 0 
L 2900 0 
L 2900 538 
Q 2691 219 2414 64 
Q 2138 -91 1772 -91 
Q 1169 -91 856 284 
Q 544 659 544 1381 
z
M 1991 3584 
L 1991 3584 
z
" transform="scale(0.015625)"/>
       <path id="DejaVuSans-46" d="M 628 4666 
L 3309 4666 
L 3309 4134 
L 1259 4134 
L 1259 2759 
L 3109 2759 
L 3109 2228 
L 1259 2228 
L 1259 0 
L 628 0 
L 628 4666 
z
" transform="scale(0.015625)"/>
       <path id="DejaVuSans-63" d="M 3122 3366 
L 3122 2828 
Q 2878 2963 2633 3030 
Q 2388 3097 2138 3097 
Q 1578 3097 1268 2742 
Q 959 2388 959 1747 
Q 959 1106 1268 751 
Q 1578 397 2138 397 
Q 2388 397 2633 464 
Q 2878 531 3122 666 
L 3122 134 
Q 2881 22 2623 -34 
Q 2366 -91 2075 -91 
Q 1284 -91 818 406 
Q 353 903 353 1747 
Q 353 2603 823 3093 
Q 1294 3584 2113 3584 
Q 2378 3584 2631 3529 
Q 2884 3475 3122 3366 
z
" transform="scale(0.015625)"/>
       <path id="DejaVuSans-69" d="M 603 3500 
L 1178 3500 
L 1178 0 
L 603 0 
L 603 3500 
z
M 603 4863 
L 1178 4863 
L 1178 4134 
L 603 4134 
L 603 4863 
z
" transform="scale(0.015625)"/>
       <path id="DejaVuSans-6f" d="M 1959 3097 
Q 1497 3097 1228 2736 
Q 959 2375 959 1747 
Q 959 1119 1226 758 
Q 1494 397 1959 397 
Q 2419 397 2687 759 
Q 2956 1122 2956 1747 
Q 2956 2369 2687 2733 
Q 2419 3097 1959 3097 
z
M 1959 3584 
Q 2709 3584 3137 3096 
Q 3566 2609 3566 1747 
Q 3566 888 3137 398 
Q 2709 -91 1959 -91 
Q 1206 -91 779 398 
Q 353 888 353 1747 
Q 353 2609 779 3096 
Q 1206 3584 1959 3584 
z
" transform="scale(0.015625)"/>
       <path id="DejaVuSans-6e" d="M 3513 2113 
L 3513 0 
L 2938 0 
L 2938 2094 
Q 2938 2591 2744 2837 
Q 2550 3084 2163 3084 
Q 1697 3084 1428 2787 
Q 1159 2491 1159 1978 
L 1159 0 
L 581 0 
L 581 3500 
L 1159 3500 
L 1159 2956 
Q 1366 3272 1645 3428 
Q 1925 3584 2291 3584 
Q 2894 3584 3203 3211 
Q 3513 2838 3513 2113 
z
" transform="scale(0.015625)"/>
      </defs>
      <use xlink:href="#DejaVuSans-4c"/>
      <use xlink:href="#DejaVuSans-61" x="55.712891"/>
      <use xlink:href="#DejaVuSans-72" x="116.992188"/>
      <use xlink:href="#DejaVuSans-67" x="156.355469"/>
      <use xlink:href="#DejaVuSans-65" x="219.832031"/>
      <use xlink:href="#DejaVuSans-73" x="281.355469"/>
      <use xlink:href="#DejaVuSans-74" x="333.455078"/>
      <use xlink:href="#DejaVuSans-20" x="372.664062"/>
      <use xlink:href="#DejaVuSans-43" x="404.451172"/>
      <use xlink:href="#DejaVuSans-6c" x="474.275391"/>
      <use xlink:href="#DejaVuSans-75" x="502.058594"/>
      <use xlink:href="#DejaVuSans-73" x="565.4375"/>
      <use xlink:href="#DejaVuSans-74" x="617.537109"/>
      <use xlink:href="#DejaVuSans-65" x="656.746094"/>
      <use xlink:href="#DejaVuSans-72" x="718.269531"/>
      <use xlink:href="#DejaVuSans-20" x="759.382812"/>
      <use xlink:href="#DejaVuSans-46" x="791.169922"/>
      <use xlink:href="#DejaVuSans-72" x="841.439453"/>
      <use xlink:href="#DejaVuSans-61" x="882.552734"/>
      <use xlink:href="#DejaVuSans-63" x="943.832031"/>
      <use xlink:href="#DejaVuSans-74" x="998.8125"/>
      <use xlink:href="#DejaVuSans-69" x="1038.021484"/>
      <use xlink:href="#DejaVuSans-6f" x="1065.804688"/>
      <use xlink:href="#DejaVuSans-6e" x="1126.986328"/>
     </g>
    </g>
   </g>
   <g id="line2d_9">
    <path d="M 111.467722 449.589231 
L 114.348745 449.697333 
L 120.555683 451.287844 
L 133.928143 454.977856 
L 162.738374 460.077206 
L 224.807747 469.096739 
L 358.532351 487.512721 
L 646.634664 487.603494 
" clip-path="url(#pd0445034b5)" style="fill: none; stroke: #440154; stroke-width: 2; stroke-linecap: square"/>
   </g>
   <g id="line2d_10">
    <path d="M 111.467722 408.748119 
L 114.348745 403.869977 
L 120.555683 394.966514 
L 133.928143 381.065901 
L 162.738374 370.319088 
L 224.807747 422.300453 
L 358.532351 484.383644 
L 646.634664 487.58576 
" clip-path="url(#pd0445034b5)" style="fill: none; stroke: #46327e; stroke-width: 2; stroke-linecap: square"/>
   </g>
   <g id="line2d_11">
    <path d="M 111.467722 402.86889 
L 114.348745 400.821109 
L 120.555683 392.00928 
L 133.928143 376.92482 
L 162.738374 381.362915 
L 224.807747 427.179608 
L 358.532351 485.853266 
L 646.634664 487.585648 
" clip-path="url(#pd0445034b5)" style="fill: none; stroke: #365c8d; stroke-width: 2; stroke-linecap: square"/>
   </g>
   <g id="line2d_12">
    <path d="M 111.467722 392.616977 
L 114.348745 385.582255 
L 120.555683 380.805546 
L 133.928143 367.929022 
L 162.738374 372.832368 
L 224.807747 421.563384 
L 358.532351 486.366791 
L 646.634664 487.584906 
" clip-path="url(#pd0445034b5)" style="fill: none; stroke: #277f8e; stroke-width: 2; stroke-linecap: square"/>
   </g>
   <g id="line2d_13">
    <path d="M 111.467722 391.815047 
L 114.348745 396.476994 
L 120.555683 383.440692 
L 133.928143 374.450812 
L 162.738374 387.36612 
L 224.807747 439.881809 
L 358.532351 486.688493 
L 646.634664 487.582313 
" clip-path="url(#pd0445034b5)" style="fill: none; stroke: #1fa187; stroke-width: 2; stroke-linecap: square"/>
   </g>
   <g id="line2d_14">
    <path d="M 111.467722 383.434546 
L 114.348745 380.342386 
L 120.555683 362.973502 
L 133.928143 370.486414 
L 162.738374 388.692737 
L 224.807747 448.11162 
L 358.532351 486.859219 
L 646.634664 487.577246 
" clip-path="url(#pd0445034b5)" style="fill: none; stroke: #4ac16d; stroke-width: 2; stroke-linecap: square"/>
   </g>
   <g id="line2d_15">
    <path d="M 111.467722 292.916911 
L 114.348745 277.620725 
L 120.555683 318.516682 
L 133.928143 325.860688 
L 162.738374 396.795864 
L 224.807747 449.978818 
L 358.532351 486.921956 
L 646.634664 487.567302 
" clip-path="url(#pd0445034b5)" style="fill: none; stroke: #a0da39; stroke-width: 2; stroke-linecap: square"/>
   </g>
   <g id="line2d_16">
    <path d="M 111.467722 42.223161 
L 114.348745 78.72464 
L 120.555683 170.735051 
L 133.928143 259.345609 
L 162.738374 370.217375 
L 224.807747 449.990292 
L 358.532351 486.852937 
L 646.634664 487.554647 
" clip-path="url(#pd0445034b5)" style="fill: none; stroke: #fde725; stroke-width: 2; stroke-linecap: square"/>
   </g>
   <g id="patch_3">
    <path d="M 84.709375 510.48 
L 84.709375 7.2 
" style="fill: none; stroke: #000000; stroke-width: 0.8; stroke-linejoin: miter; stroke-linecap: square"/>
   </g>
   <g id="patch_4">
    <path d="M 673.393011 510.48 
L 673.393011 7.2 
" style="fill: none; stroke: #000000; stroke-width: 0.8; stroke-linejoin: miter; stroke-linecap: square"/>
   </g>
   <g id="patch_5">
    <path d="M 84.709375 510.48 
L 673.393011 510.48 
" style="fill: none; stroke: #000000; stroke-width: 0.8; stroke-linejoin: miter; stroke-linecap: square"/>
   </g>
   <g id="patch_6">
    <path d="M 84.709375 7.2 
L 673.393011 7.2 
" style="fill: none; stroke: #000000; stroke-width: 0.8; stroke-linejoin: miter; stroke-linecap: square"/>
   </g>
   <g id="legend_1">
    <g id="patch_7">
     <path d="M 533.643011 258.05 
L 659.393011 258.05 
Q 663.393011 258.05 663.393011 254.05 
L 663.393011 21.2 
Q 663.393011 17.2 659.393011 17.2 
L 533.643011 17.2 
Q 529.643011 17.2 529.643011 21.2 
L 529.643011 254.05 
Q 529.643011 258.05 533.643011 258.05 
z
" style="fill: #ffffff; opacity: 0.8; stroke: #cccccc; stroke-linejoin: miter"/>
    </g>
    <g id="line2d_17">
     <path d="M 537.643011 33.396875 
L 557.643011 33.396875 
L 577.643011 33.396875 
" style="fill: none; stroke: #440154; stroke-width: 2; stroke-linecap: square"/>
    </g>
    <g id="text_7">
     <!-- α=0.0 -->
     <g transform="translate(593.643011 40.396875) scale(0.2 -0.2)">
      <defs>
       <path id="DejaVuSans-3b1" d="M 2644 1628 
L 2506 2350 
Q 2366 3091 1809 3091 
Q 1391 3091 1200 2747 
Q 959 2316 959 1747 
Q 959 1059 1194 731 
Q 1431 397 1809 397 
Q 2228 397 2453 1063 
L 2644 1628 
z
M 2966 2584 
L 3275 3500 
L 3788 3500 
L 3147 1603 
L 3272 919 
Q 3300 766 3409 638 
Q 3538 488 3638 488 
L 3913 488 
L 3913 0 
L 3569 0 
Q 3275 0 3013 263 
Q 2884 394 2831 669 
Q 2688 322 2394 50 
Q 2256 -78 1809 -78 
Q 1075 -78 719 397 
Q 353 888 353 1747 
Q 353 2666 750 3097 
Q 1191 3578 1809 3578 
Q 2781 3578 2966 2584 
z
" transform="scale(0.015625)"/>
       <path id="DejaVuSans-3d" d="M 678 2906 
L 4684 2906 
L 4684 2381 
L 678 2381 
L 678 2906 
z
M 678 1631 
L 4684 1631 
L 4684 1100 
L 678 1100 
L 678 1631 
z
" transform="scale(0.015625)"/>
      </defs>
      <use xlink:href="#DejaVuSans-3b1"/>
      <use xlink:href="#DejaVuSans-3d" x="65.917969"/>
      <use xlink:href="#DejaVuSans-30" x="149.707031"/>
      <use xlink:href="#DejaVuSans-2e" x="213.330078"/>
      <use xlink:href="#DejaVuSans-30" x="245.117188"/>
     </g>
    </g>
    <g id="line2d_18">
     <path d="M 537.643011 62.753125 
L 557.643011 62.753125 
L 577.643011 62.753125 
" style="fill: none; stroke: #46327e; stroke-width: 2; stroke-linecap: square"/>
    </g>
    <g id="text_8">
     <!-- α=0.2 -->
     <g transform="translate(593.643011 69.753125) scale(0.2 -0.2)">
      <use xlink:href="#DejaVuSans-3b1"/>
      <use xlink:href="#DejaVuSans-3d" x="65.917969"/>
      <use xlink:href="#DejaVuSans-30" x="149.707031"/>
      <use xlink:href="#DejaVuSans-2e" x="213.330078"/>
      <use xlink:href="#DejaVuSans-32" x="245.117188"/>
     </g>
    </g>
    <g id="line2d_19">
     <path d="M 537.643011 92.109375 
L 557.643011 92.109375 
L 577.643011 92.109375 
" style="fill: none; stroke: #365c8d; stroke-width: 2; stroke-linecap: square"/>
    </g>
    <g id="text_9">
     <!-- α=0.4 -->
     <g transform="translate(593.643011 99.109375) scale(0.2 -0.2)">
      <use xlink:href="#DejaVuSans-3b1"/>
      <use xlink:href="#DejaVuSans-3d" x="65.917969"/>
      <use xlink:href="#DejaVuSans-30" x="149.707031"/>
      <use xlink:href="#DejaVuSans-2e" x="213.330078"/>
      <use xlink:href="#DejaVuSans-34" x="245.117188"/>
     </g>
    </g>
    <g id="line2d_20">
     <path d="M 537.643011 121.465625 
L 557.643011 121.465625 
L 577.643011 121.465625 
" style="fill: none; stroke: #277f8e; stroke-width: 2; stroke-linecap: square"/>
    </g>
    <g id="text_10">
     <!-- α=0.6 -->
     <g transform="translate(593.643011 128.465625) scale(0.2 -0.2)">
      <defs>
       <path id="DejaVuSans-36" d="M 2113 2584 
Q 1688 2584 1439 2293 
Q 1191 2003 1191 1497 
Q 1191 994 1439 701 
Q 1688 409 2113 409 
Q 2538 409 2786 701 
Q 3034 994 3034 1497 
Q 3034 2003 2786 2293 
Q 2538 2584 2113 2584 
z
M 3366 4563 
L 3366 3988 
Q 3128 4100 2886 4159 
Q 2644 4219 2406 4219 
Q 1781 4219 1451 3797 
Q 1122 3375 1075 2522 
Q 1259 2794 1537 2939 
Q 1816 3084 2150 3084 
Q 2853 3084 3261 2657 
Q 3669 2231 3669 1497 
Q 3669 778 3244 343 
Q 2819 -91 2113 -91 
Q 1303 -91 875 529 
Q 447 1150 447 2328 
Q 447 3434 972 4092 
Q 1497 4750 2381 4750 
Q 2619 4750 2861 4703 
Q 3103 4656 3366 4563 
z
" transform="scale(0.015625)"/>
      </defs>
      <use xlink:href="#DejaVuSans-3b1"/>
      <use xlink:href="#DejaVuSans-3d" x="65.917969"/>
      <use xlink:href="#DejaVuSans-30" x="149.707031"/>
      <use xlink:href="#DejaVuSans-2e" x="213.330078"/>
      <use xlink:href="#DejaVuSans-36" x="245.117188"/>
     </g>
    </g>
    <g id="line2d_21">
     <path d="M 537.643011 150.821875 
L 557.643011 150.821875 
L 577.643011 150.821875 
" style="fill: none; stroke: #1fa187; stroke-width: 2; stroke-linecap: square"/>
    </g>
    <g id="text_11">
     <!-- α=0.8 -->
     <g transform="translate(593.643011 157.821875) scale(0.2 -0.2)">
      <defs>
       <path id="DejaVuSans-38" d="M 2034 2216 
Q 1584 2216 1326 1975 
Q 1069 1734 1069 1313 
Q 1069 891 1326 650 
Q 1584 409 2034 409 
Q 2484 409 2743 651 
Q 3003 894 3003 1313 
Q 3003 1734 2745 1975 
Q 2488 2216 2034 2216 
z
M 1403 2484 
Q 997 2584 770 2862 
Q 544 3141 544 3541 
Q 544 4100 942 4425 
Q 1341 4750 2034 4750 
Q 2731 4750 3128 4425 
Q 3525 4100 3525 3541 
Q 3525 3141 3298 2862 
Q 3072 2584 2669 2484 
Q 3125 2378 3379 2068 
Q 3634 1759 3634 1313 
Q 3634 634 3220 271 
Q 2806 -91 2034 -91 
Q 1263 -91 848 271 
Q 434 634 434 1313 
Q 434 1759 690 2068 
Q 947 2378 1403 2484 
z
M 1172 3481 
Q 1172 3119 1398 2916 
Q 1625 2713 2034 2713 
Q 2441 2713 2670 2916 
Q 2900 3119 2900 3481 
Q 2900 3844 2670 4047 
Q 2441 4250 2034 4250 
Q 1625 4250 1398 4047 
Q 1172 3844 1172 3481 
z
" transform="scale(0.015625)"/>
      </defs>
      <use xlink:href="#DejaVuSans-3b1"/>
      <use xlink:href="#DejaVuSans-3d" x="65.917969"/>
      <use xlink:href="#DejaVuSans-30" x="149.707031"/>
      <use xlink:href="#DejaVuSans-2e" x="213.330078"/>
      <use xlink:href="#DejaVuSans-38" x="245.117188"/>
     </g>
    </g>
    <g id="line2d_22">
     <path d="M 537.643011 180.178125 
L 557.643011 180.178125 
L 577.643011 180.178125 
" style="fill: none; stroke: #4ac16d; stroke-width: 2; stroke-linecap: square"/>
    </g>
    <g id="text_12">
     <!-- α=1.0 -->
     <g transform="translate(593.643011 187.178125) scale(0.2 -0.2)">
      <use xlink:href="#DejaVuSans-3b1"/>
      <use xlink:href="#DejaVuSans-3d" x="65.917969"/>
      <use xlink:href="#DejaVuSans-31" x="149.707031"/>
      <use xlink:href="#DejaVuSans-2e" x="213.330078"/>
      <use xlink:href="#DejaVuSans-30" x="245.117188"/>
     </g>
    </g>
    <g id="line2d_23">
     <path d="M 537.643011 209.534375 
L 557.643011 209.534375 
L 577.643011 209.534375 
" style="fill: none; stroke: #a0da39; stroke-width: 2; stroke-linecap: square"/>
    </g>
    <g id="text_13">
     <!-- α=1.2 -->
     <g transform="translate(593.643011 216.534375) scale(0.2 -0.2)">
      <use xlink:href="#DejaVuSans-3b1"/>
      <use xlink:href="#DejaVuSans-3d" x="65.917969"/>
      <use xlink:href="#DejaVuSans-31" x="149.707031"/>
      <use xlink:href="#DejaVuSans-2e" x="213.330078"/>
      <use xlink:href="#DejaVuSans-32" x="245.117188"/>
     </g>
    </g>
    <g id="line2d_24">
     <path d="M 537.643011 238.890625 
L 557.643011 238.890625 
L 577.643011 238.890625 
" style="fill: none; stroke: #fde725; stroke-width: 2; stroke-linecap: square"/>
    </g>
    <g id="text_14">
     <!-- α=1.4 -->
     <g transform="translate(593.643011 245.890625) scale(0.2 -0.2)">
      <use xlink:href="#DejaVuSans-3b1"/>
      <use xlink:href="#DejaVuSans-3d" x="65.917969"/>
      <use xlink:href="#DejaVuSans-31" x="149.707031"/>
      <use xlink:href="#DejaVuSans-2e" x="213.330078"/>
      <use xlink:href="#DejaVuSans-34" x="245.117188"/>
     </g>
    </g>
   </g>
  </g>
 </g>
 <defs>
  <clipPath id="pd0445034b5">
   <rect x="84.709375" y="7.2" width="588.683636" height="503.28"/>
  </clipPath>
 </defs>
</svg>
