<?xml version="1.0" encoding="utf-8" standalone="no"?>
<!DOCTYPE svg PUBLIC "-//W3C//DTD SVG 1.1//EN"
  "http://www.w3.org/Graphics/SVG/1.1/DTD/svg11.dtd">
<svg xmlns:xlink="http://www.w3.org/1999/xlink" width="715.175076pt" height="567.426875pt" viewBox="0 0 715.175076 567.426875" xmlns="http://www.w3.org/2000/svg" version="1.1">
 <metadata>
  <rdf:RDF xmlns:dc="http://purl.org/dc/elements/1.1/" xmlns:cc="http://creativecommons.org/ns#" xmlns:rdf="http://www.w3.org/1999/02/22-rdf-syntax-ns#">
   <cc:Work>
    <dc:type rdf:resource="http://purl.org/dc/dcmitype/StillImage"/>
    <dc:date>2025-09-25T17:15:13.052202</dc:date>
    <dc:format>image/svg+xml</dc:format>
    <dc:creator>
     <cc:Agent>
      <dc:title>Matplotlib v3.9.2, https://matplotlib.org/</dc:title>
     </cc:Agent>
    </dc:creator>
   </cc:Work>
  </rdf:RDF>
 </metadata>
 <defs>
  <style type="text/css">*{stroke-linejoin: round; stroke-linecap: butt}</style>
 </defs>
 <g id="figure_1">
  <g id="patch_1">
   <path d="M 0 567.426875 
L 715.175076 567.426875 
L 715.175076 0 
L 0 0 
L 0 567.426875 
z
" style="fill: none"/>
  </g>
  <g id="axes_1">
   <g id="patch_2">
    <path d="M 161.059375 510.48 
L 673.693011 510.48 
L 673.693011 7.2 
L 161.059375 7.2 
L 161.059375 510.48 
z
" style="fill: none"/>
   </g>
   <g id="PolyCollection_1">
    <defs>
     <path id="mbcd8515788" d="M 184.360904 -84.494058 
L 184.360904 -84.46629 
L 186.869738 -87.669459 
L 192.274822 -94.412097 
L 203.919741 -109.705959 
L 229.008078 -143.949931 
L 283.058924 -295.571389 
L 399.508109 -537.285059 
L 650.391482 -436.459588 
L 650.391482 -436.525672 
L 650.391482 -436.525672 
L 399.508109 -537.350511 
L 283.058924 -296.012223 
L 229.008078 -144.11331 
L 203.919741 -109.798626 
L 192.274822 -94.479701 
L 186.869738 -87.71382 
L 184.360904 -84.494058 
z
" style="stroke: #440154; stroke-opacity: 0.2"/>
    </defs>
    <g clip-path="url(#pc32b7aa57d)">
     <use xlink:href="#mbcd8515788" x="0" y="567.426875" style="fill: #440154; fill-opacity: 0.2; stroke: #440154; stroke-opacity: 0.2"/>
    </g>
   </g>
   <g id="PolyCollection_2">
    <defs>
     <path id="m38dff531d6" d="M 184.360904 -80.472872 
L 184.360904 -80.457597 
L 186.869738 -80.777735 
L 192.274822 -81.542824 
L 203.919741 -83.471347 
L 229.008078 -89.756194 
L 283.058924 -116.446198 
L 399.508109 -403.662297 
L 650.391482 -447.266306 
L 650.391482 -447.3422 
L 650.391482 -447.3422 
L 399.508109 -404.128146 
L 283.058924 -117.469457 
L 229.008078 -89.929293 
L 203.919741 -83.571685 
L 192.274822 -81.575714 
L 186.869738 -80.802649 
L 184.360904 -80.472872 
z
" style="stroke: #46327e; stroke-opacity: 0.2"/>
    </defs>
    <g clip-path="url(#pc32b7aa57d)">
     <use xlink:href="#m38dff531d6" x="0" y="567.426875" style="fill: #46327e; fill-opacity: 0.2; stroke: #46327e; stroke-opacity: 0.2"/>
    </g>
   </g>
   <g id="PolyCollection_3">
    <defs>
     <path id="m811db9b173" d="M 184.360904 -80.448673 
L 184.360904 -80.427229 
L 186.869738 -80.768447 
L 192.274822 -81.517431 
L 203.919741 -83.554083 
L 229.008078 -90.407445 
L 283.058924 -120.819454 
L 399.508109 -423.465224 
L 650.391482 -447.61646 
L 650.391482 -447.671992 
L 650.391482 -447.671992 
L 399.508109 -423.786989 
L 283.058924 -122.078751 
L 229.008078 -90.615495 
L 203.919741 -83.638743 
L 192.274822 -81.559992 
L 186.869738 -80.791076 
L 184.360904 -80.448673 
z
" style="stroke: #365c8d; stroke-opacity: 0.2"/>
    </defs>
    <g clip-path="url(#pc32b7aa57d)">
     <use xlink:href="#m811db9b173" x="0" y="567.426875" style="fill: #365c8d; fill-opacity: 0.2; stroke: #365c8d; stroke-opacity: 0.2"/>
    </g>
   </g>
   <g id="PolyCollection_4">
    <defs>
     <path id="m4a7d5ac014" d="M 184.360904 -80.402835 
L 184.360904 -80.369566 
L 186.869738 -80.675416 
L 192.274822 -81.462386 
L 203.919741 -83.579694 
L 229.008078 -91.334633 
L 283.058924 -124.97646 
L 399.508109 -437.462613 
L 650.391482 -447.903554 
L 650.391482 -447.978195 
L 650.391482 -447.978195 
L 399.508109 -437.706904 
L 283.058924 -126.454067 
L 229.008078 -91.577502 
L 203.919741 -83.684187 
L 192.274822 -81.509972 
L 186.869738 -80.720937 
L 184.360904 -80.402835 
z
" style="stroke: #277f8e; stroke-opacity: 0.2"/>
    </defs>
    <g clip-path="url(#pc32b7aa57d)">
     <use xlink:href="#m4a7d5ac014" x="0" y="567.426875" style="fill: #277f8e; fill-opacity: 0.2; stroke: #277f8e; stroke-opacity: 0.2"/>
    </g>
   </g>
   <g id="PolyCollection_5">
    <defs>
     <path id="m90bf5f0f57" d="M 184.360904 -80.384695 
L 184.360904 -80.360301 
L 186.869738 -80.687198 
L 192.274822 -81.494311 
L 203.919741 -83.85759 
L 229.008078 -92.455233 
L 283.058924 -132.201215 
L 399.508109 -446.597813 
L 650.391482 -448.05578 
L 650.391482 -448.118405 
L 650.391482 -448.118405 
L 399.508109 -446.830746 
L 283.058924 -133.428991 
L 229.008078 -92.656692 
L 203.919741 -83.930083 
L 192.274822 -81.537655 
L 186.869738 -80.717886 
L 184.360904 -80.384695 
z
" style="stroke: #1fa187; stroke-opacity: 0.2"/>
    </defs>
    <g clip-path="url(#pc32b7aa57d)">
     <use xlink:href="#m90bf5f0f57" x="0" y="567.426875" style="fill: #1fa187; fill-opacity: 0.2; stroke: #1fa187; stroke-opacity: 0.2"/>
    </g>
   </g>
   <g id="PolyCollection_6">
    <defs>
     <path id="mcd616a35b3" d="M 184.360904 -80.311193 
L 184.360904 -80.287593 
L 186.869738 -80.597318 
L 192.274822 -81.369696 
L 203.919741 -83.87395 
L 229.008078 -92.974327 
L 283.058924 -139.002689 
L 399.508109 -451.234436 
L 650.391482 -448.070813 
L 650.391482 -448.155723 
L 650.391482 -448.155723 
L 399.508109 -451.402382 
L 283.058924 -140.288753 
L 229.008078 -93.257846 
L 203.919741 -83.936269 
L 192.274822 -81.413074 
L 186.869738 -80.634818 
L 184.360904 -80.311193 
z
" style="stroke: #4ac16d; stroke-opacity: 0.2"/>
    </defs>
    <g clip-path="url(#pc32b7aa57d)">
     <use xlink:href="#mcd616a35b3" x="0" y="567.426875" style="fill: #4ac16d; fill-opacity: 0.2; stroke: #4ac16d; stroke-opacity: 0.2"/>
    </g>
   </g>
   <g id="PolyCollection_7">
    <defs>
     <path id="m81461d3295" d="M 184.360904 -80.215655 
L 184.360904 -80.189019 
L 186.869738 -80.442734 
L 192.274822 -81.278782 
L 203.919741 -83.956093 
L 229.008078 -93.870491 
L 283.058924 -142.593371 
L 399.508109 -450.970723 
L 650.391482 -447.428358 
L 650.391482 -447.504164 
L 650.391482 -447.504164 
L 399.508109 -451.104651 
L 283.058924 -143.462022 
L 229.008078 -94.107308 
L 203.919741 -84.023414 
L 192.274822 -81.323434 
L 186.869738 -80.470411 
L 184.360904 -80.215655 
z
" style="stroke: #a0da39; stroke-opacity: 0.2"/>
    </defs>
    <g clip-path="url(#pc32b7aa57d)">
     <use xlink:href="#m81461d3295" x="0" y="567.426875" style="fill: #a0da39; fill-opacity: 0.2; stroke: #a0da39; stroke-opacity: 0.2"/>
    </g>
   </g>
   <g id="PolyCollection_8">
    <defs>
     <path id="m235fae21ee" d="M 184.360904 -79.85345 
L 184.360904 -79.823239 
L 186.869738 -80.105268 
L 192.274822 -80.989902 
L 203.919741 -83.823825 
L 229.008078 -94.516945 
L 283.058924 -147.745603 
L 399.508109 -443.098943 
L 650.391482 -446.328446 
L 650.391482 -446.395548 
L 650.391482 -446.395548 
L 399.508109 -443.243532 
L 283.058924 -148.318182 
L 229.008078 -94.6536 
L 203.919741 -83.906016 
L 192.274822 -81.042793 
L 186.869738 -80.147061 
L 184.360904 -79.85345 
z
" style="stroke: #fde725; stroke-opacity: 0.2"/>
    </defs>
    <g clip-path="url(#pc32b7aa57d)">
     <use xlink:href="#m235fae21ee" x="0" y="567.426875" style="fill: #fde725; fill-opacity: 0.2; stroke: #fde725; stroke-opacity: 0.2"/>
    </g>
   </g>
   <g id="matplotlib.axis_1">
    <g id="xtick_1">
     <g id="line2d_1">
      <path d="M 184.360904 510.48 
L 184.360904 7.2 
" clip-path="url(#pc32b7aa57d)" style="fill: none; stroke: #b0b0b0; stroke-opacity: 0.3; stroke-width: 0.8; stroke-linecap: square"/>
     </g>
     <g id="line2d_2">
      <defs>
       <path id="mb33c3a9056" d="M 0 0 
L 0 3.5 
" style="stroke: #000000; stroke-width: 0.8"/>
      </defs>
      <g>
       <use xlink:href="#mb33c3a9056" x="184.360904" y="510.48" style="stroke: #000000; stroke-width: 0.8"/>
      </g>
     </g>
     <g id="text_1">
      <!-- 1.0e-04 -->
      <g transform="translate(126.77731 540.275313) scale(0.3 -0.3)">
       <defs>
        <path id="DejaVuSans-31" d="M 794 531 
L 1825 531 
L 1825 4091 
L 703 3866 
L 703 4441 
L 1819 4666 
L 2450 4666 
L 2450 531 
L 3481 531 
L 3481 0 
L 794 0 
L 794 531 
z
" transform="scale(0.015625)"/>
        <path id="DejaVuSans-2e" d="M 684 794 
L 1344 794 
L 1344 0 
L 684 0 
L 684 794 
z
" transform="scale(0.015625)"/>
        <path id="DejaVuSans-30" d="M 2034 4250 
Q 1547 4250 1301 3770 
Q 1056 3291 1056 2328 
Q 1056 1369 1301 889 
Q 1547 409 2034 409 
Q 2525 409 2770 889 
Q 3016 1369 3016 2328 
Q 3016 3291 2770 3770 
Q 2525 4250 2034 4250 
z
M 2034 4750 
Q 2819 4750 3233 4129 
Q 3647 3509 3647 2328 
Q 3647 1150 3233 529 
Q 2819 -91 2034 -91 
Q 1250 -91 836 529 
Q 422 1150 422 2328 
Q 422 3509 836 4129 
Q 1250 4750 2034 4750 
z
" transform="scale(0.015625)"/>
        <path id="DejaVuSans-65" d="M 3597 1894 
L 3597 1613 
L 953 1613 
Q 991 1019 1311 708 
Q 1631 397 2203 397 
Q 2534 397 2845 478 
Q 3156 559 3463 722 
L 3463 178 
Q 3153 47 2828 -22 
Q 2503 -91 2169 -91 
Q 1331 -91 842 396 
Q 353 884 353 1716 
Q 353 2575 817 3079 
Q 1281 3584 2069 3584 
Q 2775 3584 3186 3129 
Q 3597 2675 3597 1894 
z
M 3022 2063 
Q 3016 2534 2758 2815 
Q 2500 3097 2075 3097 
Q 1594 3097 1305 2825 
Q 1016 2553 972 2059 
L 3022 2063 
z
" transform="scale(0.015625)"/>
        <path id="DejaVuSans-2d" d="M 313 2009 
L 1997 2009 
L 1997 1497 
L 313 1497 
L 313 2009 
z
" transform="scale(0.015625)"/>
        <path id="DejaVuSans-34" d="M 2419 4116 
L 825 1625 
L 2419 1625 
L 2419 4116 
z
M 2253 4666 
L 3047 4666 
L 3047 1625 
L 3713 1625 
L 3713 1100 
L 3047 1100 
L 3047 0 
L 2419 0 
L 2419 1100 
L 313 1100 
L 313 1709 
L 2253 4666 
z
" transform="scale(0.015625)"/>
       </defs>
       <use xlink:href="#DejaVuSans-31"/>
       <use xlink:href="#DejaVuSans-2e" x="63.623047"/>
       <use xlink:href="#DejaVuSans-30" x="95.410156"/>
       <use xlink:href="#DejaVuSans-65" x="159.033203"/>
       <use xlink:href="#DejaVuSans-2d" x="220.556641"/>
       <use xlink:href="#DejaVuSans-30" x="256.640625"/>
       <use xlink:href="#DejaVuSans-34" x="320.263672"/>
      </g>
     </g>
    </g>
    <g id="xtick_2">
     <g id="line2d_3">
      <path d="M 650.391482 510.48 
L 650.391482 7.2 
" clip-path="url(#pc32b7aa57d)" style="fill: none; stroke: #b0b0b0; stroke-opacity: 0.3; stroke-width: 0.8; stroke-linecap: square"/>
     </g>
     <g id="line2d_4">
      <g>
       <use xlink:href="#mb33c3a9056" x="650.391482" y="510.48" style="stroke: #000000; stroke-width: 0.8"/>
      </g>
     </g>
     <g id="text_2">
      <!-- 2.2e-02 -->
      <g transform="translate(592.807889 540.275313) scale(0.3 -0.3)">
       <defs>
        <path id="DejaVuSans-32" d="M 1228 531 
L 3431 531 
L 3431 0 
L 469 0 
L 469 531 
Q 828 903 1448 1529 
Q 2069 2156 2228 2338 
Q 2531 2678 2651 2914 
Q 2772 3150 2772 3378 
Q 2772 3750 2511 3984 
Q 2250 4219 1831 4219 
Q 1534 4219 1204 4116 
Q 875 4013 500 3803 
L 500 4441 
Q 881 4594 1212 4672 
Q 1544 4750 1819 4750 
Q 2544 4750 2975 4387 
Q 3406 4025 3406 3419 
Q 3406 3131 3298 2873 
Q 3191 2616 2906 2266 
Q 2828 2175 2409 1742 
Q 1991 1309 1228 531 
z
" transform="scale(0.015625)"/>
       </defs>
       <use xlink:href="#DejaVuSans-32"/>
       <use xlink:href="#DejaVuSans-2e" x="63.623047"/>
       <use xlink:href="#DejaVuSans-32" x="95.410156"/>
       <use xlink:href="#DejaVuSans-65" x="159.033203"/>
       <use xlink:href="#DejaVuSans-2d" x="220.556641"/>
       <use xlink:href="#DejaVuSans-30" x="256.640625"/>
       <use xlink:href="#DejaVuSans-32" x="320.263672"/>
      </g>
     </g>
    </g>
    <g id="text_3">
     <!-- μ -->
     <g transform="translate(404.651193 551.908125) scale(0.4 -0.4)">
      <defs>
       <path id="DejaVuSans-3bc" d="M 544 -1331 
L 544 3500 
L 1119 3500 
L 1119 1325 
Q 1119 872 1334 640 
Q 1550 409 1972 409 
Q 2434 409 2667 671 
Q 2900 934 2900 1459 
L 2900 3500 
L 3475 3500 
L 3475 806 
Q 3475 619 3529 530 
Q 3584 441 3700 441 
Q 3728 441 3778 458 
Q 3828 475 3916 513 
L 3916 50 
Q 3788 -22 3673 -56 
Q 3559 -91 3450 -91 
Q 3234 -91 3106 31 
Q 2978 153 2931 403 
Q 2775 156 2548 32 
Q 2322 -91 2016 -91 
Q 1697 -91 1473 31 
Q 1250 153 1119 397 
L 1119 -1331 
L 544 -1331 
z
" transform="scale(0.015625)"/>
      </defs>
      <use xlink:href="#DejaVuSans-3bc"/>
     </g>
    </g>
   </g>
   <g id="matplotlib.axis_2">
    <g id="ytick_1">
     <g id="line2d_5">
      <path d="M 161.059375 487.58853 
L 673.693011 487.58853 
" clip-path="url(#pc32b7aa57d)" style="fill: none; stroke: #b0b0b0; stroke-opacity: 0.3; stroke-width: 0.8; stroke-linecap: square"/>
     </g>
     <g id="line2d_6">
      <defs>
       <path id="mf0f3fd0757" d="M 0 0 
L -3.5 0 
" style="stroke: #000000; stroke-width: 0.8"/>
      </defs>
      <g>
       <use xlink:href="#mf0f3fd0757" x="161.059375" y="487.58853" style="stroke: #000000; stroke-width: 0.8"/>
      </g>
     </g>
     <g id="text_4">
      <!-- 4.39 -->
      <g transform="translate(87.2625 498.986187) scale(0.3 -0.3)">
       <defs>
        <path id="DejaVuSans-33" d="M 2597 2516 
Q 3050 2419 3304 2112 
Q 3559 1806 3559 1356 
Q 3559 666 3084 287 
Q 2609 -91 1734 -91 
Q 1441 -91 1130 -33 
Q 819 25 488 141 
L 488 750 
Q 750 597 1062 519 
Q 1375 441 1716 441 
Q 2309 441 2620 675 
Q 2931 909 2931 1356 
Q 2931 1769 2642 2001 
Q 2353 2234 1838 2234 
L 1294 2234 
L 1294 2753 
L 1863 2753 
Q 2328 2753 2575 2939 
Q 2822 3125 2822 3475 
Q 2822 3834 2567 4026 
Q 2313 4219 1838 4219 
Q 1578 4219 1281 4162 
Q 984 4106 628 3988 
L 628 4550 
Q 988 4650 1302 4700 
Q 1616 4750 1894 4750 
Q 2613 4750 3031 4423 
Q 3450 4097 3450 3541 
Q 3450 3153 3228 2886 
Q 3006 2619 2597 2516 
z
" transform="scale(0.015625)"/>
        <path id="DejaVuSans-39" d="M 703 97 
L 703 672 
Q 941 559 1184 500 
Q 1428 441 1663 441 
Q 2288 441 2617 861 
Q 2947 1281 2994 2138 
Q 2813 1869 2534 1725 
Q 2256 1581 1919 1581 
Q 1219 1581 811 2004 
Q 403 2428 403 3163 
Q 403 3881 828 4315 
Q 1253 4750 1959 4750 
Q 2769 4750 3195 4129 
Q 3622 3509 3622 2328 
Q 3622 1225 3098 567 
Q 2575 -91 1691 -91 
Q 1453 -91 1209 -44 
Q 966 3 703 97 
z
M 1959 2075 
Q 2384 2075 2632 2365 
Q 2881 2656 2881 3163 
Q 2881 3666 2632 3958 
Q 2384 4250 1959 4250 
Q 1534 4250 1286 3958 
Q 1038 3666 1038 3163 
Q 1038 2656 1286 2365 
Q 1534 2075 1959 2075 
z
" transform="scale(0.015625)"/>
       </defs>
       <use xlink:href="#DejaVuSans-34"/>
       <use xlink:href="#DejaVuSans-2e" x="63.623047"/>
       <use xlink:href="#DejaVuSans-33" x="95.410156"/>
       <use xlink:href="#DejaVuSans-39" x="159.033203"/>
      </g>
     </g>
    </g>
    <g id="ytick_2">
     <g id="line2d_7">
      <path d="M 161.059375 30.10909 
L 673.693011 30.10909 
" clip-path="url(#pc32b7aa57d)" style="fill: none; stroke: #b0b0b0; stroke-opacity: 0.3; stroke-width: 0.8; stroke-linecap: square"/>
     </g>
     <g id="line2d_8">
      <g>
       <use xlink:href="#mf0f3fd0757" x="161.059375" y="30.10909" style="stroke: #000000; stroke-width: 0.8"/>
      </g>
     </g>
     <g id="text_5">
      <!-- 14774.71 -->
      <g transform="translate(10.9125 41.506746) scale(0.3 -0.3)">
       <defs>
        <path id="DejaVuSans-37" d="M 525 4666 
L 3525 4666 
L 3525 4397 
L 1831 0 
L 1172 0 
L 2766 4134 
L 525 4134 
L 525 4666 
z
" transform="scale(0.015625)"/>
       </defs>
       <use xlink:href="#DejaVuSans-31"/>
       <use xlink:href="#DejaVuSans-34" x="63.623047"/>
       <use xlink:href="#DejaVuSans-37" x="127.246094"/>
       <use xlink:href="#DejaVuSans-37" x="190.869141"/>
       <use xlink:href="#DejaVuSans-34" x="254.492188"/>
       <use xlink:href="#DejaVuSans-2e" x="318.115234"/>
       <use xlink:href="#DejaVuSans-37" x="349.902344"/>
       <use xlink:href="#DejaVuSans-31" x="413.525391"/>
      </g>
     </g>
    </g>
    <g id="text_6">
     <!-- Number of Clusters -->
     <g transform="translate(37.59375 452.5775) rotate(-90) scale(0.4 -0.4)">
      <defs>
       <path id="DejaVuSans-4e" d="M 628 4666 
L 1478 4666 
L 3547 763 
L 3547 4666 
L 4159 4666 
L 4159 0 
L 3309 0 
L 1241 3903 
L 1241 0 
L 628 0 
L 628 4666 
z
" transform="scale(0.015625)"/>
       <path id="DejaVuSans-75" d="M 544 1381 
L 544 3500 
L 1119 3500 
L 1119 1403 
Q 1119 906 1312 657 
Q 1506 409 1894 409 
Q 2359 409 2629 706 
Q 2900 1003 2900 1516 
L 2900 3500 
L 3475 3500 
L 3475 0 
L 2900 0 
L 2900 538 
Q 2691 219 2414 64 
Q 2138 -91 1772 -91 
Q 1169 -91 856 284 
Q 544 659 544 1381 
z
M 1991 3584 
L 1991 3584 
z
" transform="scale(0.015625)"/>
       <path id="DejaVuSans-6d" d="M 3328 2828 
Q 3544 3216 3844 3400 
Q 4144 3584 4550 3584 
Q 5097 3584 5394 3201 
Q 5691 2819 5691 2113 
L 5691 0 
L 5113 0 
L 5113 2094 
Q 5113 2597 4934 2840 
Q 4756 3084 4391 3084 
Q 3944 3084 3684 2787 
Q 3425 2491 3425 1978 
L 3425 0 
L 2847 0 
L 2847 2094 
Q 2847 2600 2669 2842 
Q 2491 3084 2119 3084 
Q 1678 3084 1418 2786 
Q 1159 2488 1159 1978 
L 1159 0 
L 581 0 
L 581 3500 
L 1159 3500 
L 1159 2956 
Q 1356 3278 1631 3431 
Q 1906 3584 2284 3584 
Q 2666 3584 2933 3390 
Q 3200 3197 3328 2828 
z
" transform="scale(0.015625)"/>
       <path id="DejaVuSans-62" d="M 3116 1747 
Q 3116 2381 2855 2742 
Q 2594 3103 2138 3103 
Q 1681 3103 1420 2742 
Q 1159 2381 1159 1747 
Q 1159 1113 1420 752 
Q 1681 391 2138 391 
Q 2594 391 2855 752 
Q 3116 1113 3116 1747 
z
M 1159 2969 
Q 1341 3281 1617 3432 
Q 1894 3584 2278 3584 
Q 2916 3584 3314 3078 
Q 3713 2572 3713 1747 
Q 3713 922 3314 415 
Q 2916 -91 2278 -91 
Q 1894 -91 1617 61 
Q 1341 213 1159 525 
L 1159 0 
L 581 0 
L 581 4863 
L 1159 4863 
L 1159 2969 
z
" transform="scale(0.015625)"/>
       <path id="DejaVuSans-72" d="M 2631 2963 
Q 2534 3019 2420 3045 
Q 2306 3072 2169 3072 
Q 1681 3072 1420 2755 
Q 1159 2438 1159 1844 
L 1159 0 
L 581 0 
L 581 3500 
L 1159 3500 
L 1159 2956 
Q 1341 3275 1631 3429 
Q 1922 3584 2338 3584 
Q 2397 3584 2469 3576 
Q 2541 3569 2628 3553 
L 2631 2963 
z
" transform="scale(0.015625)"/>
       <path id="DejaVuSans-20" transform="scale(0.015625)"/>
       <path id="DejaVuSans-6f" d="M 1959 3097 
Q 1497 3097 1228 2736 
Q 959 2375 959 1747 
Q 959 1119 1226 758 
Q 1494 397 1959 397 
Q 2419 397 2687 759 
Q 2956 1122 2956 1747 
Q 2956 2369 2687 2733 
Q 2419 3097 1959 3097 
z
M 1959 3584 
Q 2709 3584 3137 3096 
Q 3566 2609 3566 1747 
Q 3566 888 3137 398 
Q 2709 -91 1959 -91 
Q 1206 -91 779 398 
Q 353 888 353 1747 
Q 353 2609 779 3096 
Q 1206 3584 1959 3584 
z
" transform="scale(0.015625)"/>
       <path id="DejaVuSans-66" d="M 2375 4863 
L 2375 4384 
L 1825 4384 
Q 1516 4384 1395 4259 
Q 1275 4134 1275 3809 
L 1275 3500 
L 2222 3500 
L 2222 3053 
L 1275 3053 
L 1275 0 
L 697 0 
L 697 3053 
L 147 3053 
L 147 3500 
L 697 3500 
L 697 3744 
Q 697 4328 969 4595 
Q 1241 4863 1831 4863 
L 2375 4863 
z
" transform="scale(0.015625)"/>
       <path id="DejaVuSans-43" d="M 4122 4306 
L 4122 3641 
Q 3803 3938 3442 4084 
Q 3081 4231 2675 4231 
Q 1875 4231 1450 3742 
Q 1025 3253 1025 2328 
Q 1025 1406 1450 917 
Q 1875 428 2675 428 
Q 3081 428 3442 575 
Q 3803 722 4122 1019 
L 4122 359 
Q 3791 134 3420 21 
Q 3050 -91 2638 -91 
Q 1578 -91 968 557 
Q 359 1206 359 2328 
Q 359 3453 968 4101 
Q 1578 4750 2638 4750 
Q 3056 4750 3426 4639 
Q 3797 4528 4122 4306 
z
" transform="scale(0.015625)"/>
       <path id="DejaVuSans-6c" d="M 603 4863 
L 1178 4863 
L 1178 0 
L 603 0 
L 603 4863 
z
" transform="scale(0.015625)"/>
       <path id="DejaVuSans-73" d="M 2834 3397 
L 2834 2853 
Q 2591 2978 2328 3040 
Q 2066 3103 1784 3103 
Q 1356 3103 1142 2972 
Q 928 2841 928 2578 
Q 928 2378 1081 2264 
Q 1234 2150 1697 2047 
L 1894 2003 
Q 2506 1872 2764 1633 
Q 3022 1394 3022 966 
Q 3022 478 2636 193 
Q 2250 -91 1575 -91 
Q 1294 -91 989 -36 
Q 684 19 347 128 
L 347 722 
Q 666 556 975 473 
Q 1284 391 1588 391 
Q 1994 391 2212 530 
Q 2431 669 2431 922 
Q 2431 1156 2273 1281 
Q 2116 1406 1581 1522 
L 1381 1569 
Q 847 1681 609 1914 
Q 372 2147 372 2553 
Q 372 3047 722 3315 
Q 1072 3584 1716 3584 
Q 2034 3584 2315 3537 
Q 2597 3491 2834 3397 
z
" transform="scale(0.015625)"/>
       <path id="DejaVuSans-74" d="M 1172 4494 
L 1172 3500 
L 2356 3500 
L 2356 3053 
L 1172 3053 
L 1172 1153 
Q 1172 725 1289 603 
Q 1406 481 1766 481 
L 2356 481 
L 2356 0 
L 1766 0 
Q 1100 0 847 248 
Q 594 497 594 1153 
L 594 3053 
L 172 3053 
L 172 3500 
L 594 3500 
L 594 4494 
L 1172 4494 
z
" transform="scale(0.015625)"/>
      </defs>
      <use xlink:href="#DejaVuSans-4e"/>
      <use xlink:href="#DejaVuSans-75" x="74.804688"/>
      <use xlink:href="#DejaVuSans-6d" x="138.183594"/>
      <use xlink:href="#DejaVuSans-62" x="235.595703"/>
      <use xlink:href="#DejaVuSans-65" x="299.072266"/>
      <use xlink:href="#DejaVuSans-72" x="360.595703"/>
      <use xlink:href="#DejaVuSans-20" x="401.708984"/>
      <use xlink:href="#DejaVuSans-6f" x="433.496094"/>
      <use xlink:href="#DejaVuSans-66" x="494.677734"/>
      <use xlink:href="#DejaVuSans-20" x="529.882812"/>
      <use xlink:href="#DejaVuSans-43" x="561.669922"/>
      <use xlink:href="#DejaVuSans-6c" x="631.494141"/>
      <use xlink:href="#DejaVuSans-75" x="659.277344"/>
      <use xlink:href="#DejaVuSans-73" x="722.65625"/>
      <use xlink:href="#DejaVuSans-74" x="774.755859"/>
      <use xlink:href="#DejaVuSans-65" x="813.964844"/>
      <use xlink:href="#DejaVuSans-72" x="875.488281"/>
      <use xlink:href="#DejaVuSans-73" x="916.601562"/>
     </g>
    </g>
   </g>
   <g id="line2d_9">
    <path d="M 184.360904 482.946701 
L 186.869738 479.735235 
L 192.274822 472.980976 
L 203.919741 457.674582 
L 229.008078 423.395254 
L 283.058924 271.635069 
L 399.508109 30.10909 
L 650.391482 130.934245 
" clip-path="url(#pc32b7aa57d)" style="fill: none; stroke: #440154; stroke-width: 2; stroke-linecap: square"/>
   </g>
   <g id="line2d_10">
    <path d="M 184.360904 486.96164 
L 186.869738 486.636683 
L 192.274822 485.867606 
L 203.919741 483.905359 
L 229.008078 477.584131 
L 283.058924 450.469048 
L 399.508109 163.531654 
L 650.391482 120.122622 
" clip-path="url(#pc32b7aa57d)" style="fill: none; stroke: #46327e; stroke-width: 2; stroke-linecap: square"/>
   </g>
   <g id="line2d_11">
    <path d="M 184.360904 486.988924 
L 186.869738 486.647114 
L 192.274822 485.888164 
L 203.919741 483.830462 
L 229.008078 476.915405 
L 283.058924 445.977772 
L 399.508109 143.800769 
L 650.391482 119.782649 
" clip-path="url(#pc32b7aa57d)" style="fill: none; stroke: #365c8d; stroke-width: 2; stroke-linecap: square"/>
   </g>
   <g id="line2d_12">
    <path d="M 184.360904 487.040674 
L 186.869738 486.728698 
L 192.274822 485.940696 
L 203.919741 483.794934 
L 229.008078 475.970807 
L 283.058924 441.711612 
L 399.508109 129.842116 
L 650.391482 119.486 
" clip-path="url(#pc32b7aa57d)" style="fill: none; stroke: #277f8e; stroke-width: 2; stroke-linecap: square"/>
   </g>
   <g id="line2d_13">
    <path d="M 184.360904 487.054377 
L 186.869738 486.724333 
L 192.274822 485.910892 
L 203.919741 483.533039 
L 229.008078 474.870912 
L 283.058924 434.611772 
L 399.508109 120.712595 
L 650.391482 119.339782 
" clip-path="url(#pc32b7aa57d)" style="fill: none; stroke: #1fa187; stroke-width: 2; stroke-linecap: square"/>
   </g>
   <g id="line2d_14">
    <path d="M 184.360904 487.127482 
L 186.869738 486.810807 
L 192.274822 486.03549 
L 203.919741 483.521766 
L 229.008078 474.310789 
L 283.058924 427.781154 
L 399.508109 116.108466 
L 650.391482 119.313607 
" clip-path="url(#pc32b7aa57d)" style="fill: none; stroke: #4ac16d; stroke-width: 2; stroke-linecap: square"/>
   </g>
   <g id="line2d_15">
    <path d="M 184.360904 487.224538 
L 186.869738 486.970302 
L 192.274822 486.125767 
L 203.919741 483.437122 
L 229.008078 473.437975 
L 283.058924 424.399179 
L 399.508109 116.389188 
L 650.391482 119.960614 
" clip-path="url(#pc32b7aa57d)" style="fill: none; stroke: #a0da39; stroke-width: 2; stroke-linecap: square"/>
   </g>
   <g id="line2d_16">
    <path d="M 184.360904 487.58853 
L 186.869738 487.30071 
L 192.274822 486.410528 
L 203.919741 483.561954 
L 229.008078 472.841603 
L 283.058924 419.394983 
L 399.508109 124.255637 
L 650.391482 121.064878 
" clip-path="url(#pc32b7aa57d)" style="fill: none; stroke: #fde725; stroke-width: 2; stroke-linecap: square"/>
   </g>
   <g id="patch_3">
    <path d="M 161.059375 510.48 
L 161.059375 7.2 
" style="fill: none; stroke: #000000; stroke-width: 0.8; stroke-linejoin: miter; stroke-linecap: square"/>
   </g>
   <g id="patch_4">
    <path d="M 673.693011 510.48 
L 673.693011 7.2 
" style="fill: none; stroke: #000000; stroke-width: 0.8; stroke-linejoin: miter; stroke-linecap: square"/>
   </g>
   <g id="patch_5">
    <path d="M 161.059375 510.48 
L 673.693011 510.48 
" style="fill: none; stroke: #000000; stroke-width: 0.8; stroke-linejoin: miter; stroke-linecap: square"/>
   </g>
   <g id="patch_6">
    <path d="M 161.059375 7.2 
L 673.693011 7.2 
" style="fill: none; stroke: #000000; stroke-width: 0.8; stroke-linejoin: miter; stroke-linecap: square"/>
   </g>
   <g id="legend_1">
    <g id="patch_7">
     <path d="M 533.943011 500.48 
L 659.693011 500.48 
Q 663.693011 500.48 663.693011 496.48 
L 663.693011 263.63 
Q 663.693011 259.63 659.693011 259.63 
L 533.943011 259.63 
Q 529.943011 259.63 529.943011 263.63 
L 529.943011 496.48 
Q 529.943011 500.48 533.943011 500.48 
z
" style="fill: #ffffff; opacity: 0.8; stroke: #cccccc; stroke-linejoin: miter"/>
    </g>
    <g id="line2d_17">
     <path d="M 537.943011 275.826875 
L 557.943011 275.826875 
L 577.943011 275.826875 
" style="fill: none; stroke: #440154; stroke-width: 2; stroke-linecap: square"/>
    </g>
    <g id="text_7">
     <!-- α=0.0 -->
     <g transform="translate(593.943011 282.826875) scale(0.2 -0.2)">
      <defs>
       <path id="DejaVuSans-3b1" d="M 2644 1628 
L 2506 2350 
Q 2366 3091 1809 3091 
Q 1391 3091 1200 2747 
Q 959 2316 959 1747 
Q 959 1059 1194 731 
Q 1431 397 1809 397 
Q 2228 397 2453 1063 
L 2644 1628 
z
M 2966 2584 
L 3275 3500 
L 3788 3500 
L 3147 1603 
L 3272 919 
Q 3300 766 3409 638 
Q 3538 488 3638 488 
L 3913 488 
L 3913 0 
L 3569 0 
Q 3275 0 3013 263 
Q 2884 394 2831 669 
Q 2688 322 2394 50 
Q 2256 -78 1809 -78 
Q 1075 -78 719 397 
Q 353 888 353 1747 
Q 353 2666 750 3097 
Q 1191 3578 1809 3578 
Q 2781 3578 2966 2584 
z
" transform="scale(0.015625)"/>
       <path id="DejaVuSans-3d" d="M 678 2906 
L 4684 2906 
L 4684 2381 
L 678 2381 
L 678 2906 
z
M 678 1631 
L 4684 1631 
L 4684 1100 
L 678 1100 
L 678 1631 
z
" transform="scale(0.015625)"/>
      </defs>
      <use xlink:href="#DejaVuSans-3b1"/>
      <use xlink:href="#DejaVuSans-3d" x="65.917969"/>
      <use xlink:href="#DejaVuSans-30" x="149.707031"/>
      <use xlink:href="#DejaVuSans-2e" x="213.330078"/>
      <use xlink:href="#DejaVuSans-30" x="245.117188"/>
     </g>
    </g>
    <g id="line2d_18">
     <path d="M 537.943011 305.183125 
L 557.943011 305.183125 
L 577.943011 305.183125 
" style="fill: none; stroke: #46327e; stroke-width: 2; stroke-linecap: square"/>
    </g>
    <g id="text_8">
     <!-- α=0.2 -->
     <g transform="translate(593.943011 312.183125) scale(0.2 -0.2)">
      <use xlink:href="#DejaVuSans-3b1"/>
      <use xlink:href="#DejaVuSans-3d" x="65.917969"/>
      <use xlink:href="#DejaVuSans-30" x="149.707031"/>
      <use xlink:href="#DejaVuSans-2e" x="213.330078"/>
      <use xlink:href="#DejaVuSans-32" x="245.117188"/>
     </g>
    </g>
    <g id="line2d_19">
     <path d="M 537.943011 334.539375 
L 557.943011 334.539375 
L 577.943011 334.539375 
" style="fill: none; stroke: #365c8d; stroke-width: 2; stroke-linecap: square"/>
    </g>
    <g id="text_9">
     <!-- α=0.4 -->
     <g transform="translate(593.943011 341.539375) scale(0.2 -0.2)">
      <use xlink:href="#DejaVuSans-3b1"/>
      <use xlink:href="#DejaVuSans-3d" x="65.917969"/>
      <use xlink:href="#DejaVuSans-30" x="149.707031"/>
      <use xlink:href="#DejaVuSans-2e" x="213.330078"/>
      <use xlink:href="#DejaVuSans-34" x="245.117188"/>
     </g>
    </g>
    <g id="line2d_20">
     <path d="M 537.943011 363.895625 
L 557.943011 363.895625 
L 577.943011 363.895625 
" style="fill: none; stroke: #277f8e; stroke-width: 2; stroke-linecap: square"/>
    </g>
    <g id="text_10">
     <!-- α=0.6 -->
     <g transform="translate(593.943011 370.895625) scale(0.2 -0.2)">
      <defs>
       <path id="DejaVuSans-36" d="M 2113 2584 
Q 1688 2584 1439 2293 
Q 1191 2003 1191 1497 
Q 1191 994 1439 701 
Q 1688 409 2113 409 
Q 2538 409 2786 701 
Q 3034 994 3034 1497 
Q 3034 2003 2786 2293 
Q 2538 2584 2113 2584 
z
M 3366 4563 
L 3366 3988 
Q 3128 4100 2886 4159 
Q 2644 4219 2406 4219 
Q 1781 4219 1451 3797 
Q 1122 3375 1075 2522 
Q 1259 2794 1537 2939 
Q 1816 3084 2150 3084 
Q 2853 3084 3261 2657 
Q 3669 2231 3669 1497 
Q 3669 778 3244 343 
Q 2819 -91 2113 -91 
Q 1303 -91 875 529 
Q 447 1150 447 2328 
Q 447 3434 972 4092 
Q 1497 4750 2381 4750 
Q 2619 4750 2861 4703 
Q 3103 4656 3366 4563 
z
" transform="scale(0.015625)"/>
      </defs>
      <use xlink:href="#DejaVuSans-3b1"/>
      <use xlink:href="#DejaVuSans-3d" x="65.917969"/>
      <use xlink:href="#DejaVuSans-30" x="149.707031"/>
      <use xlink:href="#DejaVuSans-2e" x="213.330078"/>
      <use xlink:href="#DejaVuSans-36" x="245.117188"/>
     </g>
    </g>
    <g id="line2d_21">
     <path d="M 537.943011 393.251875 
L 557.943011 393.251875 
L 577.943011 393.251875 
" style="fill: none; stroke: #1fa187; stroke-width: 2; stroke-linecap: square"/>
    </g>
    <g id="text_11">
     <!-- α=0.8 -->
     <g transform="translate(593.943011 400.251875) scale(0.2 -0.2)">
      <defs>
       <path id="DejaVuSans-38" d="M 2034 2216 
Q 1584 2216 1326 1975 
Q 1069 1734 1069 1313 
Q 1069 891 1326 650 
Q 1584 409 2034 409 
Q 2484 409 2743 651 
Q 3003 894 3003 1313 
Q 3003 1734 2745 1975 
Q 2488 2216 2034 2216 
z
M 1403 2484 
Q 997 2584 770 2862 
Q 544 3141 544 3541 
Q 544 4100 942 4425 
Q 1341 4750 2034 4750 
Q 2731 4750 3128 4425 
Q 3525 4100 3525 3541 
Q 3525 3141 3298 2862 
Q 3072 2584 2669 2484 
Q 3125 2378 3379 2068 
Q 3634 1759 3634 1313 
Q 3634 634 3220 271 
Q 2806 -91 2034 -91 
Q 1263 -91 848 271 
Q 434 634 434 1313 
Q 434 1759 690 2068 
Q 947 2378 1403 2484 
z
M 1172 3481 
Q 1172 3119 1398 2916 
Q 1625 2713 2034 2713 
Q 2441 2713 2670 2916 
Q 2900 3119 2900 3481 
Q 2900 3844 2670 4047 
Q 2441 4250 2034 4250 
Q 1625 4250 1398 4047 
Q 1172 3844 1172 3481 
z
" transform="scale(0.015625)"/>
      </defs>
      <use xlink:href="#DejaVuSans-3b1"/>
      <use xlink:href="#DejaVuSans-3d" x="65.917969"/>
      <use xlink:href="#DejaVuSans-30" x="149.707031"/>
      <use xlink:href="#DejaVuSans-2e" x="213.330078"/>
      <use xlink:href="#DejaVuSans-38" x="245.117188"/>
     </g>
    </g>
    <g id="line2d_22">
     <path d="M 537.943011 422.608125 
L 557.943011 422.608125 
L 577.943011 422.608125 
" style="fill: none; stroke: #4ac16d; stroke-width: 2; stroke-linecap: square"/>
    </g>
    <g id="text_12">
     <!-- α=1.0 -->
     <g transform="translate(593.943011 429.608125) scale(0.2 -0.2)">
      <use xlink:href="#DejaVuSans-3b1"/>
      <use xlink:href="#DejaVuSans-3d" x="65.917969"/>
      <use xlink:href="#DejaVuSans-31" x="149.707031"/>
      <use xlink:href="#DejaVuSans-2e" x="213.330078"/>
      <use xlink:href="#DejaVuSans-30" x="245.117188"/>
     </g>
    </g>
    <g id="line2d_23">
     <path d="M 537.943011 451.964375 
L 557.943011 451.964375 
L 577.943011 451.964375 
" style="fill: none; stroke: #a0da39; stroke-width: 2; stroke-linecap: square"/>
    </g>
    <g id="text_13">
     <!-- α=1.2 -->
     <g transform="translate(593.943011 458.964375) scale(0.2 -0.2)">
      <use xlink:href="#DejaVuSans-3b1"/>
      <use xlink:href="#DejaVuSans-3d" x="65.917969"/>
      <use xlink:href="#DejaVuSans-31" x="149.707031"/>
      <use xlink:href="#DejaVuSans-2e" x="213.330078"/>
      <use xlink:href="#DejaVuSans-32" x="245.117188"/>
     </g>
    </g>
    <g id="line2d_24">
     <path d="M 537.943011 481.320625 
L 557.943011 481.320625 
L 577.943011 481.320625 
" style="fill: none; stroke: #fde725; stroke-width: 2; stroke-linecap: square"/>
    </g>
    <g id="text_14">
     <!-- α=1.4 -->
     <g transform="translate(593.943011 488.320625) scale(0.2 -0.2)">
      <use xlink:href="#DejaVuSans-3b1"/>
      <use xlink:href="#DejaVuSans-3d" x="65.917969"/>
      <use xlink:href="#DejaVuSans-31" x="149.707031"/>
      <use xlink:href="#DejaVuSans-2e" x="213.330078"/>
      <use xlink:href="#DejaVuSans-34" x="245.117188"/>
     </g>
    </g>
   </g>
  </g>
 </g>
 <defs>
  <clipPath id="pc32b7aa57d">
   <rect x="161.059375" y="7.2" width="512.633636" height="503.28"/>
  </clipPath>
 </defs>
</svg>
