<?xml version="1.0" encoding="utf-8" standalone="no"?>
<!DOCTYPE svg PUBLIC "-//W3C//DTD SVG 1.1//EN"
  "http://www.w3.org/Graphics/SVG/1.1/DTD/svg11.dtd">
<svg xmlns:xlink="http://www.w3.org/1999/xlink" width="713.956667pt" height="567.426875pt" viewBox="0 0 713.956667 567.426875" xmlns="http://www.w3.org/2000/svg" version="1.1">
 <metadata>
  <rdf:RDF xmlns:dc="http://purl.org/dc/elements/1.1/" xmlns:cc="http://creativecommons.org/ns#" xmlns:rdf="http://www.w3.org/1999/02/22-rdf-syntax-ns#">
   <cc:Work>
    <dc:type rdf:resource="http://purl.org/dc/dcmitype/StillImage"/>
    <dc:date>2025-10-01T10:40:50.490347</dc:date>
    <dc:format>image/svg+xml</dc:format>
    <dc:creator>
     <cc:Agent>
      <dc:title>Matplotlib v3.9.2, https://matplotlib.org/</dc:title>
     </cc:Agent>
    </dc:creator>
   </cc:Work>
  </rdf:RDF>
 </metadata>
 <defs>
  <style type="text/css">*{stroke-linejoin: round; stroke-linecap: butt}</style>
 </defs>
 <g id="figure_1">
  <g id="patch_1">
   <path d="M 0 567.426875 
L 713.956667 567.426875 
L 713.956667 0 
L 0 0 
L 0 567.426875 
z
" style="fill: none"/>
  </g>
  <g id="axes_1">
   <g id="patch_2">
    <path d="M 141.971875 510.48 
L 673.325511 510.48 
L 673.325511 7.2 
L 141.971875 7.2 
L 141.971875 510.48 
z
" style="fill: none"/>
   </g>
   <g id="PolyCollection_1">
    <defs>
     <path id="me056e38fa4" d="M 166.124313 -164.088641 
L 166.124313 -160.591966 
L 167.178062 -161.75967 
L 168.724763 -163.565284 
L 170.994986 -165.855633 
L 174.327226 -170.771793 
L 179.218285 -171.423468 
L 186.397386 -183.573837 
L 196.934879 -196.908765 
L 212.401882 -194.541808 
L 235.104119 -175.126577 
L 268.426519 -144.327062 
L 317.337109 -109.32348 
L 389.128115 -83.063642 
L 494.503043 -79.939967 
L 649.173073 -79.823653 
L 649.173073 -79.823943 
L 649.173073 -79.823943 
L 494.503043 -79.941184 
L 389.128115 -83.168199 
L 317.337109 -111.190779 
L 268.426519 -147.979834 
L 235.104119 -180.174476 
L 212.401882 -200.099572 
L 196.934879 -204.649809 
L 186.397386 -191.349164 
L 179.218285 -176.580635 
L 174.327226 -175.663822 
L 170.994986 -169.696758 
L 168.724763 -167.638031 
L 167.178062 -166.035739 
L 166.124313 -164.088641 
z
" style="stroke: #0d0887; stroke-opacity: 0.2"/>
    </defs>
    <g clip-path="url(#pc23c4bdf2c)">
     <use xlink:href="#me056e38fa4" x="0" y="567.426875" style="fill: #0d0887; fill-opacity: 0.2; stroke: #0d0887; stroke-opacity: 0.2"/>
    </g>
   </g>
   <g id="PolyCollection_2">
    <defs>
     <path id="meccba59a69" d="M 166.124313 -168.807582 
L 166.124313 -164.789475 
L 167.178062 -165.584743 
L 168.724763 -172.727556 
L 170.994986 -170.24234 
L 174.327226 -173.568093 
L 179.218285 -180.879059 
L 186.397386 -189.753949 
L 196.934879 -191.457062 
L 212.401882 -182.868512 
L 235.104119 -168.200758 
L 268.426519 -143.324643 
L 317.337109 -103.512485 
L 389.128115 -81.578066 
L 494.503043 -79.916748 
L 649.173073 -79.823239 
L 649.173073 -79.823574 
L 649.173073 -79.823574 
L 494.503043 -79.917621 
L 389.128115 -81.604076 
L 317.337109 -105.261214 
L 268.426519 -147.270916 
L 235.104119 -172.903226 
L 212.401882 -188.447441 
L 196.934879 -197.126598 
L 186.397386 -196.535777 
L 179.218285 -185.425168 
L 174.327226 -178.484425 
L 170.994986 -174.010643 
L 168.724763 -177.44408 
L 167.178062 -169.686463 
L 166.124313 -168.807582 
z
" style="stroke: #5901a5; stroke-opacity: 0.2"/>
    </defs>
    <g clip-path="url(#pc23c4bdf2c)">
     <use xlink:href="#meccba59a69" x="0" y="567.426875" style="fill: #5901a5; fill-opacity: 0.2; stroke: #5901a5; stroke-opacity: 0.2"/>
    </g>
   </g>
   <g id="PolyCollection_3">
    <defs>
     <path id="m977cbb032c" d="M 166.124313 -175.703671 
L 166.124313 -170.137156 
L 167.178062 -171.037766 
L 168.724763 -180.136489 
L 170.994986 -178.928113 
L 174.327226 -179.157517 
L 179.218285 -195.387823 
L 186.397386 -194.591379 
L 196.934879 -199.668722 
L 212.401882 -194.087905 
L 235.104119 -173.591269 
L 268.426519 -139.582183 
L 317.337109 -99.533339 
L 389.128115 -81.054135 
L 494.503043 -79.911222 
L 649.173073 -79.824484 
L 649.173073 -79.824777 
L 649.173073 -79.824777 
L 494.503043 -79.911962 
L 389.128115 -81.06831 
L 317.337109 -100.941858 
L 268.426519 -145.347178 
L 235.104119 -178.841283 
L 212.401882 -199.336076 
L 196.934879 -205.134396 
L 186.397386 -201.466719 
L 179.218285 -202.000212 
L 174.327226 -184.97489 
L 170.994986 -184.499562 
L 168.724763 -186.762422 
L 167.178062 -175.774072 
L 166.124313 -175.703671 
z
" style="stroke: #9613a1; stroke-opacity: 0.2"/>
    </defs>
    <g clip-path="url(#pc23c4bdf2c)">
     <use xlink:href="#m977cbb032c" x="0" y="567.426875" style="fill: #9613a1; fill-opacity: 0.2; stroke: #9613a1; stroke-opacity: 0.2"/>
    </g>
   </g>
   <g id="PolyCollection_4">
    <defs>
     <path id="mde23003e53" d="M 166.124313 -176.146217 
L 166.124313 -171.790978 
L 167.178062 -175.627299 
L 168.724763 -179.300028 
L 170.994986 -180.951448 
L 174.327226 -187.539912 
L 179.218285 -198.090832 
L 186.397386 -186.289379 
L 196.934879 -195.635231 
L 212.401882 -186.844013 
L 235.104119 -162.657872 
L 268.426519 -125.720723 
L 317.337109 -96.03265 
L 389.128115 -80.725242 
L 494.503043 -79.913017 
L 649.173073 -79.827068 
L 649.173073 -79.827366 
L 649.173073 -79.827366 
L 494.503043 -79.913705 
L 389.128115 -80.734687 
L 317.337109 -96.754358 
L 268.426519 -129.433907 
L 235.104119 -167.236747 
L 212.401882 -190.394272 
L 196.934879 -202.825065 
L 186.397386 -190.967986 
L 179.218285 -203.47531 
L 174.327226 -192.134174 
L 170.994986 -186.036956 
L 168.724763 -184.16174 
L 167.178062 -180.52979 
L 166.124313 -176.146217 
z
" style="stroke: #c5407e; stroke-opacity: 0.2"/>
    </defs>
    <g clip-path="url(#pc23c4bdf2c)">
     <use xlink:href="#mde23003e53" x="0" y="567.426875" style="fill: #c5407e; fill-opacity: 0.2; stroke: #c5407e; stroke-opacity: 0.2"/>
    </g>
   </g>
   <g id="PolyCollection_5">
    <defs>
     <path id="m2b20162a14" d="M 166.124313 -196.677722 
L 166.124313 -187.882561 
L 167.178062 -186.925952 
L 168.724763 -197.836767 
L 170.994986 -191.409989 
L 174.327226 -197.163632 
L 179.218285 -199.969734 
L 186.397386 -198.618863 
L 196.934879 -197.3072 
L 212.401882 -180.848393 
L 235.104119 -160.58308 
L 268.426519 -122.907193 
L 317.337109 -95.125836 
L 389.128115 -80.556588 
L 494.503043 -79.923092 
L 649.173073 -79.831931 
L 649.173073 -79.832299 
L 649.173073 -79.832299 
L 494.503043 -79.923844 
L 389.128115 -80.562207 
L 317.337109 -95.822801 
L 268.426519 -126.628876 
L 235.104119 -164.326748 
L 212.401882 -183.441038 
L 196.934879 -205.604205 
L 186.397386 -205.363545 
L 179.218285 -207.698739 
L 174.327226 -205.98174 
L 170.994986 -199.055372 
L 168.724763 -208.834019 
L 167.178062 -194.594049 
L 166.124313 -196.677722 
z
" style="stroke: #e76f5a; stroke-opacity: 0.2"/>
    </defs>
    <g clip-path="url(#pc23c4bdf2c)">
     <use xlink:href="#m2b20162a14" x="0" y="567.426875" style="fill: #e76f5a; fill-opacity: 0.2; stroke: #e76f5a; stroke-opacity: 0.2"/>
    </g>
   </g>
   <g id="PolyCollection_6">
    <defs>
     <path id="m8e12eeff94" d="M 166.124313 -306.002453 
L 166.124313 -285.196799 
L 167.178062 -261.806292 
L 168.724763 -267.386588 
L 170.994986 -280.734745 
L 174.327226 -259.337081 
L 179.218285 -240.195354 
L 186.397386 -222.561229 
L 196.934879 -214.036627 
L 212.401882 -167.676092 
L 235.104119 -151.567469 
L 268.426519 -117.340675 
L 317.337109 -95.275267 
L 389.128115 -80.498209 
L 494.503043 -79.944548 
L 649.173073 -79.842283 
L 649.173073 -79.842704 
L 649.173073 -79.842704 
L 494.503043 -79.945443 
L 389.128115 -80.503281 
L 317.337109 -95.775703 
L 268.426519 -119.328063 
L 235.104119 -153.422364 
L 212.401882 -171.137575 
L 196.934879 -227.518572 
L 186.397386 -236.887403 
L 179.218285 -255.347728 
L 174.327226 -277.94927 
L 170.994986 -299.498933 
L 168.724763 -287.352641 
L 167.178062 -281.562354 
L 166.124313 -306.002453 
z
" style="stroke: #fca338; stroke-opacity: 0.2"/>
    </defs>
    <g clip-path="url(#pc23c4bdf2c)">
     <use xlink:href="#m8e12eeff94" x="0" y="567.426875" style="fill: #fca338; fill-opacity: 0.2; stroke: #fca338; stroke-opacity: 0.2"/>
    </g>
   </g>
   <g id="PolyCollection_7">
    <defs>
     <path id="m439c2dde7a" d="M 166.124313 -537.350511 
L 166.124313 -513.965412 
L 167.178062 -497.105291 
L 168.724763 -454.942356 
L 170.994986 -438.737618 
L 174.327226 -414.893867 
L 179.218285 -331.058797 
L 186.397386 -282.939417 
L 196.934879 -249.686044 
L 212.401882 -193.171777 
L 235.104119 -156.862041 
L 268.426519 -117.656754 
L 317.337109 -97.552292 
L 389.128115 -80.572159 
L 494.503043 -80.000544 
L 649.173073 -79.854297 
L 649.173073 -79.854864 
L 649.173073 -79.854864 
L 494.503043 -80.00192 
L 389.128115 -80.576785 
L 317.337109 -97.921464 
L 268.426519 -118.608382 
L 235.104119 -160.499311 
L 212.401882 -208.20264 
L 196.934879 -269.439645 
L 186.397386 -303.294894 
L 179.218285 -349.757992 
L 174.327226 -433.192729 
L 170.994986 -458.104354 
L 168.724763 -477.979448 
L 167.178062 -519.444618 
L 166.124313 -537.350511 
z
" style="stroke: #f7e425; stroke-opacity: 0.2"/>
    </defs>
    <g clip-path="url(#pc23c4bdf2c)">
     <use xlink:href="#m439c2dde7a" x="0" y="567.426875" style="fill: #f7e425; fill-opacity: 0.2; stroke: #f7e425; stroke-opacity: 0.2"/>
    </g>
   </g>
   <g id="matplotlib.axis_1">
    <g id="xtick_1">
     <g id="line2d_1">
      <path d="M 166.124313 510.48 
L 166.124313 7.2 
" clip-path="url(#pc23c4bdf2c)" style="fill: none; stroke: #b0b0b0; stroke-opacity: 0.3; stroke-width: 0.8; stroke-linecap: square"/>
     </g>
     <g id="line2d_2">
      <defs>
       <path id="mb19e65738e" d="M 0 0 
L 0 3.5 
" style="stroke: #000000; stroke-width: 0.8"/>
      </defs>
      <g>
       <use xlink:href="#mb19e65738e" x="166.124313" y="510.48" style="stroke: #000000; stroke-width: 0.8"/>
      </g>
     </g>
     <g id="text_1">
      <!-- 1.0e-04 -->
      <g transform="translate(108.540719 540.275313) scale(0.3 -0.3)">
       <defs>
        <path id="DejaVuSans-31" d="M 794 531 
L 1825 531 
L 1825 4091 
L 703 3866 
L 703 4441 
L 1819 4666 
L 2450 4666 
L 2450 531 
L 3481 531 
L 3481 0 
L 794 0 
L 794 531 
z
" transform="scale(0.015625)"/>
        <path id="DejaVuSans-2e" d="M 684 794 
L 1344 794 
L 1344 0 
L 684 0 
L 684 794 
z
" transform="scale(0.015625)"/>
        <path id="DejaVuSans-30" d="M 2034 4250 
Q 1547 4250 1301 3770 
Q 1056 3291 1056 2328 
Q 1056 1369 1301 889 
Q 1547 409 2034 409 
Q 2525 409 2770 889 
Q 3016 1369 3016 2328 
Q 3016 3291 2770 3770 
Q 2525 4250 2034 4250 
z
M 2034 4750 
Q 2819 4750 3233 4129 
Q 3647 3509 3647 2328 
Q 3647 1150 3233 529 
Q 2819 -91 2034 -91 
Q 1250 -91 836 529 
Q 422 1150 422 2328 
Q 422 3509 836 4129 
Q 1250 4750 2034 4750 
z
" transform="scale(0.015625)"/>
        <path id="DejaVuSans-65" d="M 3597 1894 
L 3597 1613 
L 953 1613 
Q 991 1019 1311 708 
Q 1631 397 2203 397 
Q 2534 397 2845 478 
Q 3156 559 3463 722 
L 3463 178 
Q 3153 47 2828 -22 
Q 2503 -91 2169 -91 
Q 1331 -91 842 396 
Q 353 884 353 1716 
Q 353 2575 817 3079 
Q 1281 3584 2069 3584 
Q 2775 3584 3186 3129 
Q 3597 2675 3597 1894 
z
M 3022 2063 
Q 3016 2534 2758 2815 
Q 2500 3097 2075 3097 
Q 1594 3097 1305 2825 
Q 1016 2553 972 2059 
L 3022 2063 
z
" transform="scale(0.015625)"/>
        <path id="DejaVuSans-2d" d="M 313 2009 
L 1997 2009 
L 1997 1497 
L 313 1497 
L 313 2009 
z
" transform="scale(0.015625)"/>
        <path id="DejaVuSans-34" d="M 2419 4116 
L 825 1625 
L 2419 1625 
L 2419 4116 
z
M 2253 4666 
L 3047 4666 
L 3047 1625 
L 3713 1625 
L 3713 1100 
L 3047 1100 
L 3047 0 
L 2419 0 
L 2419 1100 
L 313 1100 
L 313 1709 
L 2253 4666 
z
" transform="scale(0.015625)"/>
       </defs>
       <use xlink:href="#DejaVuSans-31"/>
       <use xlink:href="#DejaVuSans-2e" x="63.623047"/>
       <use xlink:href="#DejaVuSans-30" x="95.410156"/>
       <use xlink:href="#DejaVuSans-65" x="159.033203"/>
       <use xlink:href="#DejaVuSans-2d" x="220.556641"/>
       <use xlink:href="#DejaVuSans-30" x="256.640625"/>
       <use xlink:href="#DejaVuSans-34" x="320.263672"/>
      </g>
     </g>
    </g>
    <g id="xtick_2">
     <g id="line2d_3">
      <path d="M 649.173073 510.48 
L 649.173073 7.2 
" clip-path="url(#pc23c4bdf2c)" style="fill: none; stroke: #b0b0b0; stroke-opacity: 0.3; stroke-width: 0.8; stroke-linecap: square"/>
     </g>
     <g id="line2d_4">
      <g>
       <use xlink:href="#mb19e65738e" x="649.173073" y="510.48" style="stroke: #000000; stroke-width: 0.8"/>
      </g>
     </g>
     <g id="text_2">
      <!-- 2.2e-02 -->
      <g transform="translate(591.58948 540.275313) scale(0.3 -0.3)">
       <defs>
        <path id="DejaVuSans-32" d="M 1228 531 
L 3431 531 
L 3431 0 
L 469 0 
L 469 531 
Q 828 903 1448 1529 
Q 2069 2156 2228 2338 
Q 2531 2678 2651 2914 
Q 2772 3150 2772 3378 
Q 2772 3750 2511 3984 
Q 2250 4219 1831 4219 
Q 1534 4219 1204 4116 
Q 875 4013 500 3803 
L 500 4441 
Q 881 4594 1212 4672 
Q 1544 4750 1819 4750 
Q 2544 4750 2975 4387 
Q 3406 4025 3406 3419 
Q 3406 3131 3298 2873 
Q 3191 2616 2906 2266 
Q 2828 2175 2409 1742 
Q 1991 1309 1228 531 
z
" transform="scale(0.015625)"/>
       </defs>
       <use xlink:href="#DejaVuSans-32"/>
       <use xlink:href="#DejaVuSans-2e" x="63.623047"/>
       <use xlink:href="#DejaVuSans-32" x="95.410156"/>
       <use xlink:href="#DejaVuSans-65" x="159.033203"/>
       <use xlink:href="#DejaVuSans-2d" x="220.556641"/>
       <use xlink:href="#DejaVuSans-30" x="256.640625"/>
       <use xlink:href="#DejaVuSans-32" x="320.263672"/>
      </g>
     </g>
    </g>
    <g id="xtick_3">
     <g id="line2d_5">
      <path d="M 286.886503 510.48 
L 286.886503 7.2 
" clip-path="url(#pc23c4bdf2c)" style="fill: none; stroke-dasharray: 0.8,1.32; stroke-dashoffset: 0; stroke: #b0b0b0; stroke-opacity: 0.15; stroke-width: 0.8"/>
     </g>
     <g id="line2d_6">
      <defs>
       <path id="m5f484a9a50" d="M 0 0 
L 0 2 
" style="stroke: #000000; stroke-width: 0.6"/>
      </defs>
      <g>
       <use xlink:href="#m5f484a9a50" x="286.886503" y="510.48" style="stroke: #000000; stroke-width: 0.6"/>
      </g>
     </g>
    </g>
    <g id="xtick_4">
     <g id="line2d_7">
      <path d="M 407.648693 510.48 
L 407.648693 7.2 
" clip-path="url(#pc23c4bdf2c)" style="fill: none; stroke-dasharray: 0.8,1.32; stroke-dashoffset: 0; stroke: #b0b0b0; stroke-opacity: 0.15; stroke-width: 0.8"/>
     </g>
     <g id="line2d_8">
      <g>
       <use xlink:href="#m5f484a9a50" x="407.648693" y="510.48" style="stroke: #000000; stroke-width: 0.6"/>
      </g>
     </g>
    </g>
    <g id="xtick_5">
     <g id="line2d_9">
      <path d="M 528.410883 510.48 
L 528.410883 7.2 
" clip-path="url(#pc23c4bdf2c)" style="fill: none; stroke-dasharray: 0.8,1.32; stroke-dashoffset: 0; stroke: #b0b0b0; stroke-opacity: 0.15; stroke-width: 0.8"/>
     </g>
     <g id="line2d_10">
      <g>
       <use xlink:href="#m5f484a9a50" x="528.410883" y="510.48" style="stroke: #000000; stroke-width: 0.6"/>
      </g>
     </g>
    </g>
    <g id="text_3">
     <!-- μ -->
     <g transform="translate(394.923693 551.908125) scale(0.4 -0.4)">
      <defs>
       <path id="DejaVuSans-3bc" d="M 544 -1331 
L 544 3500 
L 1119 3500 
L 1119 1325 
Q 1119 872 1334 640 
Q 1550 409 1972 409 
Q 2434 409 2667 671 
Q 2900 934 2900 1459 
L 2900 3500 
L 3475 3500 
L 3475 806 
Q 3475 619 3529 530 
Q 3584 441 3700 441 
Q 3728 441 3778 458 
Q 3828 475 3916 513 
L 3916 50 
Q 3788 -22 3673 -56 
Q 3559 -91 3450 -91 
Q 3234 -91 3106 31 
Q 2978 153 2931 403 
Q 2775 156 2548 32 
Q 2322 -91 2016 -91 
Q 1697 -91 1473 31 
Q 1250 153 1119 397 
L 1119 -1331 
L 544 -1331 
z
" transform="scale(0.015625)"/>
      </defs>
      <use xlink:href="#DejaVuSans-3bc"/>
     </g>
    </g>
   </g>
   <g id="matplotlib.axis_2">
    <g id="ytick_1">
     <g id="line2d_11">
      <path d="M 141.971875 487.603468 
L 673.325511 487.603468 
" clip-path="url(#pc23c4bdf2c)" style="fill: none; stroke: #b0b0b0; stroke-opacity: 0.3; stroke-width: 0.8; stroke-linecap: square"/>
     </g>
     <g id="line2d_12">
      <defs>
       <path id="me083dcb076" d="M 0 0 
L -3.5 0 
" style="stroke: #000000; stroke-width: 0.8"/>
      </defs>
      <g>
       <use xlink:href="#me083dcb076" x="141.971875" y="487.603468" style="stroke: #000000; stroke-width: 0.8"/>
      </g>
     </g>
     <g id="text_4">
      <!-- 0.00018 -->
      <g transform="translate(10.9125 499.001125) scale(0.3 -0.3)">
       <defs>
        <path id="DejaVuSans-38" d="M 2034 2216 
Q 1584 2216 1326 1975 
Q 1069 1734 1069 1313 
Q 1069 891 1326 650 
Q 1584 409 2034 409 
Q 2484 409 2743 651 
Q 3003 894 3003 1313 
Q 3003 1734 2745 1975 
Q 2488 2216 2034 2216 
z
M 1403 2484 
Q 997 2584 770 2862 
Q 544 3141 544 3541 
Q 544 4100 942 4425 
Q 1341 4750 2034 4750 
Q 2731 4750 3128 4425 
Q 3525 4100 3525 3541 
Q 3525 3141 3298 2862 
Q 3072 2584 2669 2484 
Q 3125 2378 3379 2068 
Q 3634 1759 3634 1313 
Q 3634 634 3220 271 
Q 2806 -91 2034 -91 
Q 1263 -91 848 271 
Q 434 634 434 1313 
Q 434 1759 690 2068 
Q 947 2378 1403 2484 
z
M 1172 3481 
Q 1172 3119 1398 2916 
Q 1625 2713 2034 2713 
Q 2441 2713 2670 2916 
Q 2900 3119 2900 3481 
Q 2900 3844 2670 4047 
Q 2441 4250 2034 4250 
Q 1625 4250 1398 4047 
Q 1172 3844 1172 3481 
z
" transform="scale(0.015625)"/>
       </defs>
       <use xlink:href="#DejaVuSans-30"/>
       <use xlink:href="#DejaVuSans-2e" x="63.623047"/>
       <use xlink:href="#DejaVuSans-30" x="95.410156"/>
       <use xlink:href="#DejaVuSans-30" x="159.033203"/>
       <use xlink:href="#DejaVuSans-30" x="222.65625"/>
       <use xlink:href="#DejaVuSans-31" x="286.279297"/>
       <use xlink:href="#DejaVuSans-38" x="349.902344"/>
      </g>
     </g>
    </g>
    <g id="ytick_2">
     <g id="line2d_13">
      <path d="M 141.971875 41.768913 
L 673.325511 41.768913 
" clip-path="url(#pc23c4bdf2c)" style="fill: none; stroke: #b0b0b0; stroke-opacity: 0.3; stroke-width: 0.8; stroke-linecap: square"/>
     </g>
     <g id="line2d_14">
      <g>
       <use xlink:href="#me083dcb076" x="141.971875" y="41.768913" style="stroke: #000000; stroke-width: 0.8"/>
      </g>
     </g>
     <g id="text_5">
      <!-- 0.9 -->
      <g transform="translate(87.2625 53.16657) scale(0.3 -0.3)">
       <defs>
        <path id="DejaVuSans-39" d="M 703 97 
L 703 672 
Q 941 559 1184 500 
Q 1428 441 1663 441 
Q 2288 441 2617 861 
Q 2947 1281 2994 2138 
Q 2813 1869 2534 1725 
Q 2256 1581 1919 1581 
Q 1219 1581 811 2004 
Q 403 2428 403 3163 
Q 403 3881 828 4315 
Q 1253 4750 1959 4750 
Q 2769 4750 3195 4129 
Q 3622 3509 3622 2328 
Q 3622 1225 3098 567 
Q 2575 -91 1691 -91 
Q 1453 -91 1209 -44 
Q 966 3 703 97 
z
M 1959 2075 
Q 2384 2075 2632 2365 
Q 2881 2656 2881 3163 
Q 2881 3666 2632 3958 
Q 2384 4250 1959 4250 
Q 1534 4250 1286 3958 
Q 1038 3666 1038 3163 
Q 1038 2656 1286 2365 
Q 1534 2075 1959 2075 
z
" transform="scale(0.015625)"/>
       </defs>
       <use xlink:href="#DejaVuSans-30"/>
       <use xlink:href="#DejaVuSans-2e" x="63.623047"/>
       <use xlink:href="#DejaVuSans-39" x="95.410156"/>
      </g>
     </g>
    </g>
    <g id="ytick_3">
     <g id="line2d_15">
      <path d="M 141.971875 376.14483 
L 673.325511 376.14483 
" clip-path="url(#pc23c4bdf2c)" style="fill: none; stroke-dasharray: 0.8,1.32; stroke-dashoffset: 0; stroke: #b0b0b0; stroke-opacity: 0.15; stroke-width: 0.8"/>
     </g>
     <g id="line2d_16">
      <defs>
       <path id="m241270ca85" d="M 0 0 
L -2 0 
" style="stroke: #000000; stroke-width: 0.6"/>
      </defs>
      <g>
       <use xlink:href="#m241270ca85" x="141.971875" y="376.14483" style="stroke: #000000; stroke-width: 0.6"/>
      </g>
     </g>
    </g>
    <g id="ytick_4">
     <g id="line2d_17">
      <path d="M 141.971875 264.686191 
L 673.325511 264.686191 
" clip-path="url(#pc23c4bdf2c)" style="fill: none; stroke-dasharray: 0.8,1.32; stroke-dashoffset: 0; stroke: #b0b0b0; stroke-opacity: 0.15; stroke-width: 0.8"/>
     </g>
     <g id="line2d_18">
      <g>
       <use xlink:href="#m241270ca85" x="141.971875" y="264.686191" style="stroke: #000000; stroke-width: 0.6"/>
      </g>
     </g>
    </g>
    <g id="ytick_5">
     <g id="line2d_19">
      <path d="M 141.971875 153.227552 
L 673.325511 153.227552 
" clip-path="url(#pc23c4bdf2c)" style="fill: none; stroke-dasharray: 0.8,1.32; stroke-dashoffset: 0; stroke: #b0b0b0; stroke-opacity: 0.15; stroke-width: 0.8"/>
     </g>
     <g id="line2d_20">
      <g>
       <use xlink:href="#m241270ca85" x="141.971875" y="153.227552" style="stroke: #000000; stroke-width: 0.6"/>
      </g>
     </g>
    </g>
    <g id="text_6">
     <!-- Largest Cluster -->
     <g transform="translate(37.59375 410.715) rotate(-90) scale(0.4 -0.4)">
      <defs>
       <path id="DejaVuSans-4c" d="M 628 4666 
L 1259 4666 
L 1259 531 
L 3531 531 
L 3531 0 
L 628 0 
L 628 4666 
z
" transform="scale(0.015625)"/>
       <path id="DejaVuSans-61" d="M 2194 1759 
Q 1497 1759 1228 1600 
Q 959 1441 959 1056 
Q 959 750 1161 570 
Q 1363 391 1709 391 
Q 2188 391 2477 730 
Q 2766 1069 2766 1631 
L 2766 1759 
L 2194 1759 
z
M 3341 1997 
L 3341 0 
L 2766 0 
L 2766 531 
Q 2569 213 2275 61 
Q 1981 -91 1556 -91 
Q 1019 -91 701 211 
Q 384 513 384 1019 
Q 384 1609 779 1909 
Q 1175 2209 1959 2209 
L 2766 2209 
L 2766 2266 
Q 2766 2663 2505 2880 
Q 2244 3097 1772 3097 
Q 1472 3097 1187 3025 
Q 903 2953 641 2809 
L 641 3341 
Q 956 3463 1253 3523 
Q 1550 3584 1831 3584 
Q 2591 3584 2966 3190 
Q 3341 2797 3341 1997 
z
" transform="scale(0.015625)"/>
       <path id="DejaVuSans-72" d="M 2631 2963 
Q 2534 3019 2420 3045 
Q 2306 3072 2169 3072 
Q 1681 3072 1420 2755 
Q 1159 2438 1159 1844 
L 1159 0 
L 581 0 
L 581 3500 
L 1159 3500 
L 1159 2956 
Q 1341 3275 1631 3429 
Q 1922 3584 2338 3584 
Q 2397 3584 2469 3576 
Q 2541 3569 2628 3553 
L 2631 2963 
z
" transform="scale(0.015625)"/>
       <path id="DejaVuSans-67" d="M 2906 1791 
Q 2906 2416 2648 2759 
Q 2391 3103 1925 3103 
Q 1463 3103 1205 2759 
Q 947 2416 947 1791 
Q 947 1169 1205 825 
Q 1463 481 1925 481 
Q 2391 481 2648 825 
Q 2906 1169 2906 1791 
z
M 3481 434 
Q 3481 -459 3084 -895 
Q 2688 -1331 1869 -1331 
Q 1566 -1331 1297 -1286 
Q 1028 -1241 775 -1147 
L 775 -588 
Q 1028 -725 1275 -790 
Q 1522 -856 1778 -856 
Q 2344 -856 2625 -561 
Q 2906 -266 2906 331 
L 2906 616 
Q 2728 306 2450 153 
Q 2172 0 1784 0 
Q 1141 0 747 490 
Q 353 981 353 1791 
Q 353 2603 747 3093 
Q 1141 3584 1784 3584 
Q 2172 3584 2450 3431 
Q 2728 3278 2906 2969 
L 2906 3500 
L 3481 3500 
L 3481 434 
z
" transform="scale(0.015625)"/>
       <path id="DejaVuSans-73" d="M 2834 3397 
L 2834 2853 
Q 2591 2978 2328 3040 
Q 2066 3103 1784 3103 
Q 1356 3103 1142 2972 
Q 928 2841 928 2578 
Q 928 2378 1081 2264 
Q 1234 2150 1697 2047 
L 1894 2003 
Q 2506 1872 2764 1633 
Q 3022 1394 3022 966 
Q 3022 478 2636 193 
Q 2250 -91 1575 -91 
Q 1294 -91 989 -36 
Q 684 19 347 128 
L 347 722 
Q 666 556 975 473 
Q 1284 391 1588 391 
Q 1994 391 2212 530 
Q 2431 669 2431 922 
Q 2431 1156 2273 1281 
Q 2116 1406 1581 1522 
L 1381 1569 
Q 847 1681 609 1914 
Q 372 2147 372 2553 
Q 372 3047 722 3315 
Q 1072 3584 1716 3584 
Q 2034 3584 2315 3537 
Q 2597 3491 2834 3397 
z
" transform="scale(0.015625)"/>
       <path id="DejaVuSans-74" d="M 1172 4494 
L 1172 3500 
L 2356 3500 
L 2356 3053 
L 1172 3053 
L 1172 1153 
Q 1172 725 1289 603 
Q 1406 481 1766 481 
L 2356 481 
L 2356 0 
L 1766 0 
Q 1100 0 847 248 
Q 594 497 594 1153 
L 594 3053 
L 172 3053 
L 172 3500 
L 594 3500 
L 594 4494 
L 1172 4494 
z
" transform="scale(0.015625)"/>
       <path id="DejaVuSans-20" transform="scale(0.015625)"/>
       <path id="DejaVuSans-43" d="M 4122 4306 
L 4122 3641 
Q 3803 3938 3442 4084 
Q 3081 4231 2675 4231 
Q 1875 4231 1450 3742 
Q 1025 3253 1025 2328 
Q 1025 1406 1450 917 
Q 1875 428 2675 428 
Q 3081 428 3442 575 
Q 3803 722 4122 1019 
L 4122 359 
Q 3791 134 3420 21 
Q 3050 -91 2638 -91 
Q 1578 -91 968 557 
Q 359 1206 359 2328 
Q 359 3453 968 4101 
Q 1578 4750 2638 4750 
Q 3056 4750 3426 4639 
Q 3797 4528 4122 4306 
z
" transform="scale(0.015625)"/>
       <path id="DejaVuSans-6c" d="M 603 4863 
L 1178 4863 
L 1178 0 
L 603 0 
L 603 4863 
z
" transform="scale(0.015625)"/>
       <path id="DejaVuSans-75" d="M 544 1381 
L 544 3500 
L 1119 3500 
L 1119 1403 
Q 1119 906 1312 657 
Q 1506 409 1894 409 
Q 2359 409 2629 706 
Q 2900 1003 2900 1516 
L 2900 3500 
L 3475 3500 
L 3475 0 
L 2900 0 
L 2900 538 
Q 2691 219 2414 64 
Q 2138 -91 1772 -91 
Q 1169 -91 856 284 
Q 544 659 544 1381 
z
M 1991 3584 
L 1991 3584 
z
" transform="scale(0.015625)"/>
      </defs>
      <use xlink:href="#DejaVuSans-4c"/>
      <use xlink:href="#DejaVuSans-61" x="55.712891"/>
      <use xlink:href="#DejaVuSans-72" x="116.992188"/>
      <use xlink:href="#DejaVuSans-67" x="156.355469"/>
      <use xlink:href="#DejaVuSans-65" x="219.832031"/>
      <use xlink:href="#DejaVuSans-73" x="281.355469"/>
      <use xlink:href="#DejaVuSans-74" x="333.455078"/>
      <use xlink:href="#DejaVuSans-20" x="372.664062"/>
      <use xlink:href="#DejaVuSans-43" x="404.451172"/>
      <use xlink:href="#DejaVuSans-6c" x="474.275391"/>
      <use xlink:href="#DejaVuSans-75" x="502.058594"/>
      <use xlink:href="#DejaVuSans-73" x="565.4375"/>
      <use xlink:href="#DejaVuSans-74" x="617.537109"/>
      <use xlink:href="#DejaVuSans-65" x="656.746094"/>
      <use xlink:href="#DejaVuSans-72" x="718.269531"/>
     </g>
    </g>
   </g>
   <g id="line2d_21">
    <path d="M 166.124313 405.086571 
L 167.178062 403.529171 
L 168.724763 401.825218 
L 170.994986 399.650679 
L 174.327226 394.209068 
L 179.218285 393.424824 
L 186.397386 379.965375 
L 196.934879 366.647588 
L 212.401882 370.106185 
L 235.104119 389.776348 
L 268.426519 421.273427 
L 317.337109 457.169746 
L 389.128115 484.310955 
L 494.503043 487.486299 
L 649.173073 487.603077 
" clip-path="url(#pc23c4bdf2c)" style="fill: none; stroke: #0d0887; stroke-width: 2; stroke-linecap: square"/>
   </g>
   <g id="line2d_22">
    <path d="M 166.124313 400.628347 
L 167.178062 399.791272 
L 168.724763 392.341057 
L 170.994986 395.300383 
L 174.327226 391.400616 
L 179.218285 384.274762 
L 186.397386 374.282012 
L 196.934879 373.135045 
L 212.401882 381.768898 
L 235.104119 396.874883 
L 268.426519 422.129096 
L 317.337109 463.040026 
L 389.128115 485.835804 
L 494.503043 487.509691 
L 649.173073 487.603468 
" clip-path="url(#pc23c4bdf2c)" style="fill: none; stroke: #5901a5; stroke-width: 2; stroke-linecap: square"/>
   </g>
   <g id="line2d_23">
    <path d="M 166.124313 394.506462 
L 167.178062 394.020956 
L 168.724763 383.97742 
L 170.994986 385.713037 
L 174.327226 385.360671 
L 179.218285 368.732857 
L 186.397386 369.397826 
L 196.934879 365.025316 
L 212.401882 370.714884 
L 235.104119 391.210599 
L 268.426519 424.962195 
L 317.337109 467.189277 
L 389.128115 486.365652 
L 494.503043 487.515283 
L 649.173073 487.602244 
" clip-path="url(#pc23c4bdf2c)" style="fill: none; stroke: #9613a1; stroke-width: 2; stroke-linecap: square"/>
   </g>
   <g id="line2d_24">
    <path d="M 166.124313 393.458278 
L 167.178062 389.348331 
L 168.724763 385.695991 
L 170.994986 383.932673 
L 174.327226 377.589832 
L 179.218285 366.643804 
L 186.397386 378.798193 
L 196.934879 368.196727 
L 212.401882 378.807733 
L 235.104119 402.479566 
L 268.426519 439.84956 
L 317.337109 471.033371 
L 389.128115 486.69691 
L 494.503043 487.513514 
L 649.173073 487.599658 
" clip-path="url(#pc23c4bdf2c)" style="fill: none; stroke: #c5407e; stroke-width: 2; stroke-linecap: square"/>
   </g>
   <g id="line2d_25">
    <path d="M 166.124313 375.146734 
L 167.178062 376.666874 
L 168.724763 364.091482 
L 170.994986 372.194195 
L 174.327226 365.854189 
L 179.218285 363.592639 
L 186.397386 365.435671 
L 196.934879 365.971173 
L 212.401882 385.282159 
L 235.104119 404.971961 
L 268.426519 442.658841 
L 317.337109 471.952556 
L 389.128115 486.867477 
L 494.503043 487.503407 
L 649.173073 487.59476 
" clip-path="url(#pc23c4bdf2c)" style="fill: none; stroke: #e76f5a; stroke-width: 2; stroke-linecap: square"/>
   </g>
   <g id="line2d_26">
    <path d="M 166.124313 271.827249 
L 167.178062 295.742552 
L 168.724763 290.057261 
L 170.994986 277.310036 
L 174.327226 298.783699 
L 179.218285 319.655334 
L 186.397386 337.702559 
L 196.934879 346.649276 
L 212.401882 398.020042 
L 235.104119 414.931958 
L 268.426519 449.092506 
L 317.337109 471.90139 
L 389.128115 486.92613 
L 494.503043 487.481879 
L 649.173073 487.584382 
" clip-path="url(#pc23c4bdf2c)" style="fill: none; stroke: #fca338; stroke-width: 2; stroke-linecap: square"/>
   </g>
   <g id="line2d_27">
    <path d="M 166.124313 41.768913 
L 167.178062 59.151921 
L 168.724763 100.965973 
L 170.994986 119.005889 
L 174.327226 143.383577 
L 179.218285 227.01848 
L 186.397386 274.30972 
L 196.934879 307.86403 
L 212.401882 366.739666 
L 235.104119 408.746199 
L 268.426519 449.294307 
L 317.337109 469.689997 
L 389.128115 486.852403 
L 494.503043 487.425643 
L 649.173073 487.572294 
" clip-path="url(#pc23c4bdf2c)" style="fill: none; stroke: #f7e425; stroke-width: 2; stroke-linecap: square"/>
   </g>
   <g id="patch_3">
    <path d="M 141.971875 510.48 
L 141.971875 7.2 
" style="fill: none; stroke: #000000; stroke-width: 0.8; stroke-linejoin: miter; stroke-linecap: square"/>
   </g>
   <g id="patch_4">
    <path d="M 673.325511 510.48 
L 673.325511 7.2 
" style="fill: none; stroke: #000000; stroke-width: 0.8; stroke-linejoin: miter; stroke-linecap: square"/>
   </g>
   <g id="patch_5">
    <path d="M 141.971875 510.48 
L 673.325511 510.48 
" style="fill: none; stroke: #000000; stroke-width: 0.8; stroke-linejoin: miter; stroke-linecap: square"/>
   </g>
   <g id="patch_6">
    <path d="M 141.971875 7.2 
L 673.325511 7.2 
" style="fill: none; stroke: #000000; stroke-width: 0.8; stroke-linejoin: miter; stroke-linecap: square"/>
   </g>
   <g id="legend_1">
    <g id="patch_7">
     <path d="M 533.575511 228.69375 
L 659.325511 228.69375 
Q 663.325511 228.69375 663.325511 224.69375 
L 663.325511 21.2 
Q 663.325511 17.2 659.325511 17.2 
L 533.575511 17.2 
Q 529.575511 17.2 529.575511 21.2 
L 529.575511 224.69375 
Q 529.575511 228.69375 533.575511 228.69375 
z
" style="fill: #ffffff; opacity: 0.8; stroke: #cccccc; stroke-linejoin: miter"/>
    </g>
    <g id="line2d_28">
     <path d="M 537.575511 33.396875 
L 557.575511 33.396875 
L 577.575511 33.396875 
" style="fill: none; stroke: #0d0887; stroke-width: 2; stroke-linecap: square"/>
    </g>
    <g id="text_7">
     <!-- α=0.2 -->
     <g transform="translate(593.575511 40.396875) scale(0.2 -0.2)">
      <defs>
       <path id="DejaVuSans-3b1" d="M 2644 1628 
L 2506 2350 
Q 2366 3091 1809 3091 
Q 1391 3091 1200 2747 
Q 959 2316 959 1747 
Q 959 1059 1194 731 
Q 1431 397 1809 397 
Q 2228 397 2453 1063 
L 2644 1628 
z
M 2966 2584 
L 3275 3500 
L 3788 3500 
L 3147 1603 
L 3272 919 
Q 3300 766 3409 638 
Q 3538 488 3638 488 
L 3913 488 
L 3913 0 
L 3569 0 
Q 3275 0 3013 263 
Q 2884 394 2831 669 
Q 2688 322 2394 50 
Q 2256 -78 1809 -78 
Q 1075 -78 719 397 
Q 353 888 353 1747 
Q 353 2666 750 3097 
Q 1191 3578 1809 3578 
Q 2781 3578 2966 2584 
z
" transform="scale(0.015625)"/>
       <path id="DejaVuSans-3d" d="M 678 2906 
L 4684 2906 
L 4684 2381 
L 678 2381 
L 678 2906 
z
M 678 1631 
L 4684 1631 
L 4684 1100 
L 678 1100 
L 678 1631 
z
" transform="scale(0.015625)"/>
      </defs>
      <use xlink:href="#DejaVuSans-3b1"/>
      <use xlink:href="#DejaVuSans-3d" x="65.917969"/>
      <use xlink:href="#DejaVuSans-30" x="149.707031"/>
      <use xlink:href="#DejaVuSans-2e" x="213.330078"/>
      <use xlink:href="#DejaVuSans-32" x="245.117188"/>
     </g>
    </g>
    <g id="line2d_29">
     <path d="M 537.575511 62.753125 
L 557.575511 62.753125 
L 577.575511 62.753125 
" style="fill: none; stroke: #5901a5; stroke-width: 2; stroke-linecap: square"/>
    </g>
    <g id="text_8">
     <!-- α=0.4 -->
     <g transform="translate(593.575511 69.753125) scale(0.2 -0.2)">
      <use xlink:href="#DejaVuSans-3b1"/>
      <use xlink:href="#DejaVuSans-3d" x="65.917969"/>
      <use xlink:href="#DejaVuSans-30" x="149.707031"/>
      <use xlink:href="#DejaVuSans-2e" x="213.330078"/>
      <use xlink:href="#DejaVuSans-34" x="245.117188"/>
     </g>
    </g>
    <g id="line2d_30">
     <path d="M 537.575511 92.109375 
L 557.575511 92.109375 
L 577.575511 92.109375 
" style="fill: none; stroke: #9613a1; stroke-width: 2; stroke-linecap: square"/>
    </g>
    <g id="text_9">
     <!-- α=0.6 -->
     <g transform="translate(593.575511 99.109375) scale(0.2 -0.2)">
      <defs>
       <path id="DejaVuSans-36" d="M 2113 2584 
Q 1688 2584 1439 2293 
Q 1191 2003 1191 1497 
Q 1191 994 1439 701 
Q 1688 409 2113 409 
Q 2538 409 2786 701 
Q 3034 994 3034 1497 
Q 3034 2003 2786 2293 
Q 2538 2584 2113 2584 
z
M 3366 4563 
L 3366 3988 
Q 3128 4100 2886 4159 
Q 2644 4219 2406 4219 
Q 1781 4219 1451 3797 
Q 1122 3375 1075 2522 
Q 1259 2794 1537 2939 
Q 1816 3084 2150 3084 
Q 2853 3084 3261 2657 
Q 3669 2231 3669 1497 
Q 3669 778 3244 343 
Q 2819 -91 2113 -91 
Q 1303 -91 875 529 
Q 447 1150 447 2328 
Q 447 3434 972 4092 
Q 1497 4750 2381 4750 
Q 2619 4750 2861 4703 
Q 3103 4656 3366 4563 
z
" transform="scale(0.015625)"/>
      </defs>
      <use xlink:href="#DejaVuSans-3b1"/>
      <use xlink:href="#DejaVuSans-3d" x="65.917969"/>
      <use xlink:href="#DejaVuSans-30" x="149.707031"/>
      <use xlink:href="#DejaVuSans-2e" x="213.330078"/>
      <use xlink:href="#DejaVuSans-36" x="245.117188"/>
     </g>
    </g>
    <g id="line2d_31">
     <path d="M 537.575511 121.465625 
L 557.575511 121.465625 
L 577.575511 121.465625 
" style="fill: none; stroke: #c5407e; stroke-width: 2; stroke-linecap: square"/>
    </g>
    <g id="text_10">
     <!-- α=0.8 -->
     <g transform="translate(593.575511 128.465625) scale(0.2 -0.2)">
      <use xlink:href="#DejaVuSans-3b1"/>
      <use xlink:href="#DejaVuSans-3d" x="65.917969"/>
      <use xlink:href="#DejaVuSans-30" x="149.707031"/>
      <use xlink:href="#DejaVuSans-2e" x="213.330078"/>
      <use xlink:href="#DejaVuSans-38" x="245.117188"/>
     </g>
    </g>
    <g id="line2d_32">
     <path d="M 537.575511 150.821875 
L 557.575511 150.821875 
L 577.575511 150.821875 
" style="fill: none; stroke: #e76f5a; stroke-width: 2; stroke-linecap: square"/>
    </g>
    <g id="text_11">
     <!-- α=1.0 -->
     <g transform="translate(593.575511 157.821875) scale(0.2 -0.2)">
      <use xlink:href="#DejaVuSans-3b1"/>
      <use xlink:href="#DejaVuSans-3d" x="65.917969"/>
      <use xlink:href="#DejaVuSans-31" x="149.707031"/>
      <use xlink:href="#DejaVuSans-2e" x="213.330078"/>
      <use xlink:href="#DejaVuSans-30" x="245.117188"/>
     </g>
    </g>
    <g id="line2d_33">
     <path d="M 537.575511 180.178125 
L 557.575511 180.178125 
L 577.575511 180.178125 
" style="fill: none; stroke: #fca338; stroke-width: 2; stroke-linecap: square"/>
    </g>
    <g id="text_12">
     <!-- α=1.2 -->
     <g transform="translate(593.575511 187.178125) scale(0.2 -0.2)">
      <use xlink:href="#DejaVuSans-3b1"/>
      <use xlink:href="#DejaVuSans-3d" x="65.917969"/>
      <use xlink:href="#DejaVuSans-31" x="149.707031"/>
      <use xlink:href="#DejaVuSans-2e" x="213.330078"/>
      <use xlink:href="#DejaVuSans-32" x="245.117188"/>
     </g>
    </g>
    <g id="line2d_34">
     <path d="M 537.575511 209.534375 
L 557.575511 209.534375 
L 577.575511 209.534375 
" style="fill: none; stroke: #f7e425; stroke-width: 2; stroke-linecap: square"/>
    </g>
    <g id="text_13">
     <!-- α=1.4 -->
     <g transform="translate(593.575511 216.534375) scale(0.2 -0.2)">
      <use xlink:href="#DejaVuSans-3b1"/>
      <use xlink:href="#DejaVuSans-3d" x="65.917969"/>
      <use xlink:href="#DejaVuSans-31" x="149.707031"/>
      <use xlink:href="#DejaVuSans-2e" x="213.330078"/>
      <use xlink:href="#DejaVuSans-34" x="245.117188"/>
     </g>
    </g>
   </g>
  </g>
 </g>
 <defs>
  <clipPath id="pc23c4bdf2c">
   <rect x="141.971875" y="7.2" width="531.353636" height="503.28"/>
  </clipPath>
 </defs>
</svg>
