<?xml version="1.0" encoding="utf-8" standalone="no"?>
<!DOCTYPE svg PUBLIC "-//W3C//DTD SVG 1.1//EN"
  "http://www.w3.org/Graphics/SVG/1.1/DTD/svg11.dtd">
<svg xmlns:xlink="http://www.w3.org/1999/xlink" width="626.966136pt" height="567.426875pt" viewBox="0 0 626.966136 567.426875" xmlns="http://www.w3.org/2000/svg" version="1.1">
 <metadata>
  <rdf:RDF xmlns:dc="http://purl.org/dc/elements/1.1/" xmlns:cc="http://creativecommons.org/ns#" xmlns:rdf="http://www.w3.org/1999/02/22-rdf-syntax-ns#">
   <cc:Work>
    <dc:type rdf:resource="http://purl.org/dc/dcmitype/StillImage"/>
    <dc:date>2025-10-01T10:40:51.279678</dc:date>
    <dc:format>image/svg+xml</dc:format>
    <dc:creator>
     <cc:Agent>
      <dc:title>Matplotlib v3.9.2, https://matplotlib.org/</dc:title>
     </cc:Agent>
    </dc:creator>
   </cc:Work>
  </rdf:RDF>
 </metadata>
 <defs>
  <style type="text/css">*{stroke-linejoin: round; stroke-linecap: butt}</style>
 </defs>
 <g id="figure_1">
  <g id="patch_1">
   <path d="M 0 567.426875 
L 626.966136 567.426875 
L 626.966136 0 
L 0 0 
L 0 567.426875 
z
" style="fill: none"/>
  </g>
  <g id="axes_1">
   <g id="patch_2">
    <path d="M 88.4125 510.48 
L 619.766136 510.48 
L 619.766136 7.2 
L 88.4125 7.2 
L 88.4125 510.48 
z
" style="fill: none"/>
   </g>
   <g id="PolyCollection_1">
    <defs>
     <path id="m64d39ca1ea" d="M 112.564938 -446.609554 
L 112.564938 -444.337796 
L 147.06845 -445.107188 
L 181.572094 -446.275594 
L 216.075406 -447.721982 
L 250.578829 -450.700903 
L 285.082264 -451.083653 
L 319.58574 -457.761308 
L 354.089252 -464.244438 
L 388.592896 -463.149379 
L 423.096208 -453.208253 
L 457.599631 -432.286356 
L 492.103066 -390.394888 
L 526.606543 -273.189368 
L 561.110055 -124.21182 
L 595.613698 -80.067794 
L 595.613698 -80.238111 
L 595.613698 -80.238111 
L 561.110055 -124.525582 
L 526.606543 -274.847818 
L 492.103066 -393.67858 
L 457.599631 -435.238178 
L 423.096208 -455.975242 
L 388.592896 -465.686144 
L 354.089252 -467.677308 
L 319.58574 -461.636005 
L 285.082264 -454.020026 
L 250.578829 -453.509619 
L 216.075406 -450.063471 
L 181.572094 -448.821221 
L 147.06845 -447.834085 
L 112.564938 -446.609554 
z
" style="stroke: #0d0887; stroke-opacity: 0.2"/>
    </defs>
    <g clip-path="url(#p1d452ebfca)">
     <use xlink:href="#m64d39ca1ea" x="0" y="567.426875" style="fill: #0d0887; fill-opacity: 0.2; stroke: #0d0887; stroke-opacity: 0.2"/>
    </g>
   </g>
   <g id="PolyCollection_2">
    <defs>
     <path id="m4c3fbb99f8" d="M 112.564938 -449.53046 
L 112.564938 -447.053535 
L 147.06845 -447.55293 
L 181.572094 -451.841486 
L 216.075406 -450.387915 
L 250.578829 -452.324328 
L 285.082264 -456.350354 
L 319.58574 -460.863547 
L 354.089252 -461.687854 
L 388.592896 -457.395578 
L 423.096208 -449.16364 
L 457.599631 -431.447073 
L 492.103066 -378.663106 
L 526.606543 -241.500257 
L 561.110055 -117.841647 
L 595.613698 -79.823239 
L 595.613698 -80.02153 
L 595.613698 -80.02153 
L 561.110055 -118.095187 
L 526.606543 -242.251262 
L 492.103066 -382.470912 
L 457.599631 -434.677854 
L 423.096208 -451.942758 
L 388.592896 -460.2225 
L 354.089252 -464.344103 
L 319.58574 -464.073354 
L 285.082264 -458.709582 
L 250.578829 -455.064643 
L 216.075406 -452.576813 
L 181.572094 -454.496323 
L 147.06845 -450.05733 
L 112.564938 -449.53046 
z
" style="stroke: #5901a5; stroke-opacity: 0.2"/>
    </defs>
    <g clip-path="url(#p1d452ebfca)">
     <use xlink:href="#m4c3fbb99f8" x="0" y="567.426875" style="fill: #5901a5; fill-opacity: 0.2; stroke: #5901a5; stroke-opacity: 0.2"/>
    </g>
   </g>
   <g id="PolyCollection_3">
    <defs>
     <path id="md1efdfd1cd" d="M 112.564938 -453.531905 
L 112.564938 -450.325517 
L 147.06845 -450.857448 
L 181.572094 -455.954943 
L 216.075406 -455.305202 
L 250.578829 -455.429158 
L 285.082264 -463.543354 
L 319.58574 -463.172543 
L 354.089252 -465.49372 
L 388.592896 -462.936806 
L 423.096208 -452.337579 
L 457.599631 -428.192297 
L 492.103066 -368.836597 
L 526.606543 -223.5814 
L 561.110055 -116.207247 
L 595.613698 -80.555104 
L 595.613698 -80.725733 
L 595.613698 -80.725733 
L 561.110055 -116.428912 
L 526.606543 -224.153919 
L 492.103066 -372.524125 
L 457.599631 -433.127189 
L 423.096208 -455.258209 
L 388.592896 -465.344682 
L 354.089252 -467.885073 
L 319.58574 -466.292204 
L 285.082264 -466.526859 
L 250.578829 -458.480482 
L 216.075406 -458.237571 
L 181.572094 -459.384264 
L 147.06845 -453.571255 
L 112.564938 -453.531905 
z
" style="stroke: #9613a1; stroke-opacity: 0.2"/>
    </defs>
    <g clip-path="url(#p1d452ebfca)">
     <use xlink:href="#md1efdfd1cd" x="0" y="567.426875" style="fill: #9613a1; fill-opacity: 0.2; stroke: #9613a1; stroke-opacity: 0.2"/>
    </g>
   </g>
   <g id="PolyCollection_4">
    <defs>
     <path id="mc3d73e61e3" d="M 112.564938 -453.778783 
L 112.564938 -451.298306 
L 147.06845 -453.489185 
L 181.572094 -455.506019 
L 216.075406 -456.388745 
L 250.578829 -459.772665 
L 285.082264 -464.78306 
L 319.58574 -459.146569 
L 354.089252 -463.658023 
L 388.592896 -459.425156 
L 423.096208 -445.691591 
L 457.599631 -414.055118 
L 492.103066 -358.39673 
L 526.606543 -208.225507 
L 561.110055 -116.743524 
L 595.613698 -82.042451 
L 595.613698 -82.211098 
L 595.613698 -82.211098 
L 561.110055 -116.947621 
L 526.606543 -208.733672 
L 492.103066 -360.721565 
L 457.599631 -418.221825 
L 423.096208 -448.575698 
L 388.592896 -461.17495 
L 354.089252 -466.88766 
L 319.58574 -461.452434 
L 285.082264 -467.170385 
L 250.578829 -462.012091 
L 216.075406 -459.019299 
L 181.572094 -458.064259 
L 147.06845 -456.164735 
L 112.564938 -453.778783 
z
" style="stroke: #c5407e; stroke-opacity: 0.2"/>
    </defs>
    <g clip-path="url(#p1d452ebfca)">
     <use xlink:href="#mc3d73e61e3" x="0" y="567.426875" style="fill: #c5407e; fill-opacity: 0.2; stroke: #c5407e; stroke-opacity: 0.2"/>
    </g>
   </g>
   <g id="PolyCollection_5">
    <defs>
     <path id="m73944342bd" d="M 112.564938 -464.138526 
L 112.564938 -459.942949 
L 147.06845 -459.466191 
L 181.572094 -464.667747 
L 216.075406 -461.66524 
L 250.578829 -464.361029 
L 285.082264 -465.628229 
L 319.58574 -465.021927 
L 354.089252 -464.426594 
L 388.592896 -456.334082 
L 423.096208 -444.331898 
L 457.599631 -410.66742 
L 492.103066 -355.32516 
L 526.606543 -198.233735 
L 561.110055 -119.65839 
L 595.613698 -84.734186 
L 595.613698 -84.932068 
L 595.613698 -84.932068 
L 561.110055 -119.869888 
L 526.606543 -198.598381 
L 492.103066 -357.7014 
L 457.599631 -415.104473 
L 423.096208 -446.760808 
L 388.592896 -457.692639 
L 354.089252 -468.085736 
L 319.58574 -467.98304 
L 285.082264 -468.971328 
L 250.578829 -468.246446 
L 216.075406 -465.218593 
L 181.572094 -469.445299 
L 147.06845 -463.173791 
L 112.564938 -464.138526 
z
" style="stroke: #e76f5a; stroke-opacity: 0.2"/>
    </defs>
    <g clip-path="url(#p1d452ebfca)">
     <use xlink:href="#m73944342bd" x="0" y="567.426875" style="fill: #e76f5a; fill-opacity: 0.2; stroke: #e76f5a; stroke-opacity: 0.2"/>
    </g>
   </g>
   <g id="PolyCollection_6">
    <defs>
     <path id="mc0d22c75bb" d="M 112.564938 -499.556376 
L 112.564938 -494.380375 
L 147.06845 -487.89483 
L 181.572094 -489.514778 
L 216.075406 -493.202171 
L 250.578829 -487.162114 
L 285.082264 -481.114718 
L 319.58574 -474.867644 
L 354.089252 -471.565346 
L 388.592896 -448.84445 
L 423.096208 -437.987421 
L 457.599631 -403.26035 
L 492.103066 -355.843569 
L 526.606543 -194.290755 
L 561.110055 -125.383919 
L 595.613698 -90.05018 
L 595.613698 -90.255648 
L 595.613698 -90.255648 
L 561.110055 -125.610033 
L 526.606543 -194.645089 
L 492.103066 -357.544098 
L 457.599631 -406.023686 
L 423.096208 -439.355461 
L 388.592896 -450.916075 
L 354.089252 -476.698551 
L 319.58574 -479.996921 
L 285.082264 -485.956755 
L 250.578829 -492.453332 
L 216.075406 -497.991421 
L 181.572094 -494.940487 
L 147.06845 -493.422664 
L 112.564938 -499.556376 
z
" style="stroke: #fca338; stroke-opacity: 0.2"/>
    </defs>
    <g clip-path="url(#p1d452ebfca)">
     <use xlink:href="#mc0d22c75bb" x="0" y="567.426875" style="fill: #fca338; fill-opacity: 0.2; stroke: #fca338; stroke-opacity: 0.2"/>
    </g>
   </g>
   <g id="PolyCollection_7">
    <defs>
     <path id="mc13f9ffdca" d="M 112.564938 -537.350511 
L 112.564938 -534.535763 
L 147.06845 -532.4107 
L 181.572094 -526.696053 
L 216.075406 -524.326959 
L 250.578829 -520.639096 
L 285.082264 -505.192088 
L 319.58574 -493.787547 
L 354.089252 -484.198252 
L 388.592896 -462.505179 
L 423.096208 -441.80356 
L 457.599631 -403.709465 
L 492.103066 -363.179883 
L 526.606543 -199.238216 
L 561.110055 -137.96055 
L 595.613698 -95.624641 
L 595.613698 -95.874175 
L 595.613698 -95.874175 
L 561.110055 -138.235327 
L 526.606543 -199.533055 
L 492.103066 -364.28023 
L 457.599631 -405.039371 
L 423.096208 -444.276271 
L 388.592896 -469.18222 
L 354.089252 -490.098681 
L 319.58574 -498.910387 
L 285.082264 -509.043069 
L 250.578829 -523.491681 
L 216.075406 -527.146379 
L 181.572094 -529.893571 
L 147.06845 -535.208635 
L 112.564938 -537.350511 
z
" style="stroke: #f7e425; stroke-opacity: 0.2"/>
    </defs>
    <g clip-path="url(#p1d452ebfca)">
     <use xlink:href="#mc13f9ffdca" x="0" y="567.426875" style="fill: #f7e425; fill-opacity: 0.2; stroke: #f7e425; stroke-opacity: 0.2"/>
    </g>
   </g>
   <g id="matplotlib.axis_1">
    <g id="xtick_1">
     <g id="line2d_1">
      <path d="M 112.564938 510.48 
L 112.564938 7.2 
" clip-path="url(#p1d452ebfca)" style="fill: none; stroke: #b0b0b0; stroke-opacity: 0.3; stroke-width: 0.8; stroke-linecap: square"/>
     </g>
     <g id="line2d_2">
      <defs>
       <path id="m0715e44122" d="M 0 0 
L 0 3.5 
" style="stroke: #000000; stroke-width: 0.8"/>
      </defs>
      <g>
       <use xlink:href="#m0715e44122" x="112.564938" y="510.48" style="stroke: #000000; stroke-width: 0.8"/>
      </g>
     </g>
     <g id="text_1">
      <!-- $\mathdefault{10^{-4}}$ -->
      <g transform="translate(77.314938 540.275313) scale(0.3 -0.3)">
       <defs>
        <path id="DejaVuSans-31" d="M 794 531 
L 1825 531 
L 1825 4091 
L 703 3866 
L 703 4441 
L 1819 4666 
L 2450 4666 
L 2450 531 
L 3481 531 
L 3481 0 
L 794 0 
L 794 531 
z
" transform="scale(0.015625)"/>
        <path id="DejaVuSans-30" d="M 2034 4250 
Q 1547 4250 1301 3770 
Q 1056 3291 1056 2328 
Q 1056 1369 1301 889 
Q 1547 409 2034 409 
Q 2525 409 2770 889 
Q 3016 1369 3016 2328 
Q 3016 3291 2770 3770 
Q 2525 4250 2034 4250 
z
M 2034 4750 
Q 2819 4750 3233 4129 
Q 3647 3509 3647 2328 
Q 3647 1150 3233 529 
Q 2819 -91 2034 -91 
Q 1250 -91 836 529 
Q 422 1150 422 2328 
Q 422 3509 836 4129 
Q 1250 4750 2034 4750 
z
" transform="scale(0.015625)"/>
        <path id="DejaVuSans-2212" d="M 678 2272 
L 4684 2272 
L 4684 1741 
L 678 1741 
L 678 2272 
z
" transform="scale(0.015625)"/>
        <path id="DejaVuSans-34" d="M 2419 4116 
L 825 1625 
L 2419 1625 
L 2419 4116 
z
M 2253 4666 
L 3047 4666 
L 3047 1625 
L 3713 1625 
L 3713 1100 
L 3047 1100 
L 3047 0 
L 2419 0 
L 2419 1100 
L 313 1100 
L 313 1709 
L 2253 4666 
z
" transform="scale(0.015625)"/>
       </defs>
       <use xlink:href="#DejaVuSans-31" transform="translate(0 0.684375)"/>
       <use xlink:href="#DejaVuSans-30" transform="translate(63.623047 0.684375)"/>
       <use xlink:href="#DejaVuSans-2212" transform="translate(128.203125 38.965625) scale(0.7)"/>
       <use xlink:href="#DejaVuSans-34" transform="translate(186.855469 38.965625) scale(0.7)"/>
      </g>
     </g>
    </g>
    <g id="xtick_2">
     <g id="line2d_3">
      <path d="M 319.58574 510.48 
L 319.58574 7.2 
" clip-path="url(#p1d452ebfca)" style="fill: none; stroke: #b0b0b0; stroke-opacity: 0.3; stroke-width: 0.8; stroke-linecap: square"/>
     </g>
     <g id="line2d_4">
      <g>
       <use xlink:href="#m0715e44122" x="319.58574" y="510.48" style="stroke: #000000; stroke-width: 0.8"/>
      </g>
     </g>
     <g id="text_2">
      <!-- $\mathdefault{10^{-3}}$ -->
      <g transform="translate(284.33574 540.275313) scale(0.3 -0.3)">
       <defs>
        <path id="DejaVuSans-33" d="M 2597 2516 
Q 3050 2419 3304 2112 
Q 3559 1806 3559 1356 
Q 3559 666 3084 287 
Q 2609 -91 1734 -91 
Q 1441 -91 1130 -33 
Q 819 25 488 141 
L 488 750 
Q 750 597 1062 519 
Q 1375 441 1716 441 
Q 2309 441 2620 675 
Q 2931 909 2931 1356 
Q 2931 1769 2642 2001 
Q 2353 2234 1838 2234 
L 1294 2234 
L 1294 2753 
L 1863 2753 
Q 2328 2753 2575 2939 
Q 2822 3125 2822 3475 
Q 2822 3834 2567 4026 
Q 2313 4219 1838 4219 
Q 1578 4219 1281 4162 
Q 984 4106 628 3988 
L 628 4550 
Q 988 4650 1302 4700 
Q 1616 4750 1894 4750 
Q 2613 4750 3031 4423 
Q 3450 4097 3450 3541 
Q 3450 3153 3228 2886 
Q 3006 2619 2597 2516 
z
" transform="scale(0.015625)"/>
       </defs>
       <use xlink:href="#DejaVuSans-31" transform="translate(0 0.765625)"/>
       <use xlink:href="#DejaVuSans-30" transform="translate(63.623047 0.765625)"/>
       <use xlink:href="#DejaVuSans-2212" transform="translate(128.203125 39.046875) scale(0.7)"/>
       <use xlink:href="#DejaVuSans-33" transform="translate(186.855469 39.046875) scale(0.7)"/>
      </g>
     </g>
    </g>
    <g id="xtick_3">
     <g id="line2d_5">
      <path d="M 526.606543 510.48 
L 526.606543 7.2 
" clip-path="url(#p1d452ebfca)" style="fill: none; stroke: #b0b0b0; stroke-opacity: 0.3; stroke-width: 0.8; stroke-linecap: square"/>
     </g>
     <g id="line2d_6">
      <g>
       <use xlink:href="#m0715e44122" x="526.606543" y="510.48" style="stroke: #000000; stroke-width: 0.8"/>
      </g>
     </g>
     <g id="text_3">
      <!-- $\mathdefault{10^{-2}}$ -->
      <g transform="translate(491.356543 540.275313) scale(0.3 -0.3)">
       <defs>
        <path id="DejaVuSans-32" d="M 1228 531 
L 3431 531 
L 3431 0 
L 469 0 
L 469 531 
Q 828 903 1448 1529 
Q 2069 2156 2228 2338 
Q 2531 2678 2651 2914 
Q 2772 3150 2772 3378 
Q 2772 3750 2511 3984 
Q 2250 4219 1831 4219 
Q 1534 4219 1204 4116 
Q 875 4013 500 3803 
L 500 4441 
Q 881 4594 1212 4672 
Q 1544 4750 1819 4750 
Q 2544 4750 2975 4387 
Q 3406 4025 3406 3419 
Q 3406 3131 3298 2873 
Q 3191 2616 2906 2266 
Q 2828 2175 2409 1742 
Q 1991 1309 1228 531 
z
" transform="scale(0.015625)"/>
       </defs>
       <use xlink:href="#DejaVuSans-31" transform="translate(0 0.765625)"/>
       <use xlink:href="#DejaVuSans-30" transform="translate(63.623047 0.765625)"/>
       <use xlink:href="#DejaVuSans-2212" transform="translate(128.203125 39.046875) scale(0.7)"/>
       <use xlink:href="#DejaVuSans-32" transform="translate(186.855469 39.046875) scale(0.7)"/>
      </g>
     </g>
    </g>
    <g id="xtick_4">
     <g id="line2d_7">
      <path d="M 92.502549 510.48 
L 92.502549 7.2 
" clip-path="url(#p1d452ebfca)" style="fill: none; stroke-dasharray: 0.8,1.32; stroke-dashoffset: 0; stroke: #b0b0b0; stroke-opacity: 0.15; stroke-width: 0.8"/>
     </g>
     <g id="line2d_8">
      <defs>
       <path id="m0d315d301b" d="M 0 0 
L 0 2 
" style="stroke: #000000; stroke-width: 0.6"/>
      </defs>
      <g>
       <use xlink:href="#m0d315d301b" x="92.502549" y="510.48" style="stroke: #000000; stroke-width: 0.6"/>
      </g>
     </g>
    </g>
    <g id="xtick_5">
     <g id="line2d_9">
      <path d="M 103.092186 510.48 
L 103.092186 7.2 
" clip-path="url(#p1d452ebfca)" style="fill: none; stroke-dasharray: 0.8,1.32; stroke-dashoffset: 0; stroke: #b0b0b0; stroke-opacity: 0.15; stroke-width: 0.8"/>
     </g>
     <g id="line2d_10">
      <g>
       <use xlink:href="#m0d315d301b" x="103.092186" y="510.48" style="stroke: #000000; stroke-width: 0.6"/>
      </g>
     </g>
    </g>
    <g id="xtick_6">
     <g id="line2d_11">
      <path d="M 174.884409 510.48 
L 174.884409 7.2 
" clip-path="url(#p1d452ebfca)" style="fill: none; stroke-dasharray: 0.8,1.32; stroke-dashoffset: 0; stroke: #b0b0b0; stroke-opacity: 0.15; stroke-width: 0.8"/>
     </g>
     <g id="line2d_12">
      <g>
       <use xlink:href="#m0d315d301b" x="174.884409" y="510.48" style="stroke: #000000; stroke-width: 0.6"/>
      </g>
     </g>
    </g>
    <g id="xtick_7">
     <g id="line2d_13">
      <path d="M 211.338963 510.48 
L 211.338963 7.2 
" clip-path="url(#p1d452ebfca)" style="fill: none; stroke-dasharray: 0.8,1.32; stroke-dashoffset: 0; stroke: #b0b0b0; stroke-opacity: 0.15; stroke-width: 0.8"/>
     </g>
     <g id="line2d_14">
      <g>
       <use xlink:href="#m0d315d301b" x="211.338963" y="510.48" style="stroke: #000000; stroke-width: 0.6"/>
      </g>
     </g>
    </g>
    <g id="xtick_8">
     <g id="line2d_15">
      <path d="M 237.20388 510.48 
L 237.20388 7.2 
" clip-path="url(#p1d452ebfca)" style="fill: none; stroke-dasharray: 0.8,1.32; stroke-dashoffset: 0; stroke: #b0b0b0; stroke-opacity: 0.15; stroke-width: 0.8"/>
     </g>
     <g id="line2d_16">
      <g>
       <use xlink:href="#m0d315d301b" x="237.20388" y="510.48" style="stroke: #000000; stroke-width: 0.6"/>
      </g>
     </g>
    </g>
    <g id="xtick_9">
     <g id="line2d_17">
      <path d="M 257.266269 510.48 
L 257.266269 7.2 
" clip-path="url(#p1d452ebfca)" style="fill: none; stroke-dasharray: 0.8,1.32; stroke-dashoffset: 0; stroke: #b0b0b0; stroke-opacity: 0.15; stroke-width: 0.8"/>
     </g>
     <g id="line2d_18">
      <g>
       <use xlink:href="#m0d315d301b" x="257.266269" y="510.48" style="stroke: #000000; stroke-width: 0.6"/>
      </g>
     </g>
    </g>
    <g id="xtick_10">
     <g id="line2d_19">
      <path d="M 273.658434 510.48 
L 273.658434 7.2 
" clip-path="url(#p1d452ebfca)" style="fill: none; stroke-dasharray: 0.8,1.32; stroke-dashoffset: 0; stroke: #b0b0b0; stroke-opacity: 0.15; stroke-width: 0.8"/>
     </g>
     <g id="line2d_20">
      <g>
       <use xlink:href="#m0d315d301b" x="273.658434" y="510.48" style="stroke: #000000; stroke-width: 0.6"/>
      </g>
     </g>
    </g>
    <g id="xtick_11">
     <g id="line2d_21">
      <path d="M 287.517812 510.48 
L 287.517812 7.2 
" clip-path="url(#p1d452ebfca)" style="fill: none; stroke-dasharray: 0.8,1.32; stroke-dashoffset: 0; stroke: #b0b0b0; stroke-opacity: 0.15; stroke-width: 0.8"/>
     </g>
     <g id="line2d_22">
      <g>
       <use xlink:href="#m0d315d301b" x="287.517812" y="510.48" style="stroke: #000000; stroke-width: 0.6"/>
      </g>
     </g>
    </g>
    <g id="xtick_12">
     <g id="line2d_23">
      <path d="M 299.523352 510.48 
L 299.523352 7.2 
" clip-path="url(#p1d452ebfca)" style="fill: none; stroke-dasharray: 0.8,1.32; stroke-dashoffset: 0; stroke: #b0b0b0; stroke-opacity: 0.15; stroke-width: 0.8"/>
     </g>
     <g id="line2d_24">
      <g>
       <use xlink:href="#m0d315d301b" x="299.523352" y="510.48" style="stroke: #000000; stroke-width: 0.6"/>
      </g>
     </g>
    </g>
    <g id="xtick_13">
     <g id="line2d_25">
      <path d="M 310.112988 510.48 
L 310.112988 7.2 
" clip-path="url(#p1d452ebfca)" style="fill: none; stroke-dasharray: 0.8,1.32; stroke-dashoffset: 0; stroke: #b0b0b0; stroke-opacity: 0.15; stroke-width: 0.8"/>
     </g>
     <g id="line2d_26">
      <g>
       <use xlink:href="#m0d315d301b" x="310.112988" y="510.48" style="stroke: #000000; stroke-width: 0.6"/>
      </g>
     </g>
    </g>
    <g id="xtick_14">
     <g id="line2d_27">
      <path d="M 381.905212 510.48 
L 381.905212 7.2 
" clip-path="url(#p1d452ebfca)" style="fill: none; stroke-dasharray: 0.8,1.32; stroke-dashoffset: 0; stroke: #b0b0b0; stroke-opacity: 0.15; stroke-width: 0.8"/>
     </g>
     <g id="line2d_28">
      <g>
       <use xlink:href="#m0d315d301b" x="381.905212" y="510.48" style="stroke: #000000; stroke-width: 0.6"/>
      </g>
     </g>
    </g>
    <g id="xtick_15">
     <g id="line2d_29">
      <path d="M 418.359765 510.48 
L 418.359765 7.2 
" clip-path="url(#p1d452ebfca)" style="fill: none; stroke-dasharray: 0.8,1.32; stroke-dashoffset: 0; stroke: #b0b0b0; stroke-opacity: 0.15; stroke-width: 0.8"/>
     </g>
     <g id="line2d_30">
      <g>
       <use xlink:href="#m0d315d301b" x="418.359765" y="510.48" style="stroke: #000000; stroke-width: 0.6"/>
      </g>
     </g>
    </g>
    <g id="xtick_16">
     <g id="line2d_31">
      <path d="M 444.224683 510.48 
L 444.224683 7.2 
" clip-path="url(#p1d452ebfca)" style="fill: none; stroke-dasharray: 0.8,1.32; stroke-dashoffset: 0; stroke: #b0b0b0; stroke-opacity: 0.15; stroke-width: 0.8"/>
     </g>
     <g id="line2d_32">
      <g>
       <use xlink:href="#m0d315d301b" x="444.224683" y="510.48" style="stroke: #000000; stroke-width: 0.6"/>
      </g>
     </g>
    </g>
    <g id="xtick_17">
     <g id="line2d_33">
      <path d="M 464.287071 510.48 
L 464.287071 7.2 
" clip-path="url(#p1d452ebfca)" style="fill: none; stroke-dasharray: 0.8,1.32; stroke-dashoffset: 0; stroke: #b0b0b0; stroke-opacity: 0.15; stroke-width: 0.8"/>
     </g>
     <g id="line2d_34">
      <g>
       <use xlink:href="#m0d315d301b" x="464.287071" y="510.48" style="stroke: #000000; stroke-width: 0.6"/>
      </g>
     </g>
    </g>
    <g id="xtick_18">
     <g id="line2d_35">
      <path d="M 480.679237 510.48 
L 480.679237 7.2 
" clip-path="url(#p1d452ebfca)" style="fill: none; stroke-dasharray: 0.8,1.32; stroke-dashoffset: 0; stroke: #b0b0b0; stroke-opacity: 0.15; stroke-width: 0.8"/>
     </g>
     <g id="line2d_36">
      <g>
       <use xlink:href="#m0d315d301b" x="480.679237" y="510.48" style="stroke: #000000; stroke-width: 0.6"/>
      </g>
     </g>
    </g>
    <g id="xtick_19">
     <g id="line2d_37">
      <path d="M 494.538615 510.48 
L 494.538615 7.2 
" clip-path="url(#p1d452ebfca)" style="fill: none; stroke-dasharray: 0.8,1.32; stroke-dashoffset: 0; stroke: #b0b0b0; stroke-opacity: 0.15; stroke-width: 0.8"/>
     </g>
     <g id="line2d_38">
      <g>
       <use xlink:href="#m0d315d301b" x="494.538615" y="510.48" style="stroke: #000000; stroke-width: 0.6"/>
      </g>
     </g>
    </g>
    <g id="xtick_20">
     <g id="line2d_39">
      <path d="M 506.544154 510.48 
L 506.544154 7.2 
" clip-path="url(#p1d452ebfca)" style="fill: none; stroke-dasharray: 0.8,1.32; stroke-dashoffset: 0; stroke: #b0b0b0; stroke-opacity: 0.15; stroke-width: 0.8"/>
     </g>
     <g id="line2d_40">
      <g>
       <use xlink:href="#m0d315d301b" x="506.544154" y="510.48" style="stroke: #000000; stroke-width: 0.6"/>
      </g>
     </g>
    </g>
    <g id="xtick_21">
     <g id="line2d_41">
      <path d="M 517.13379 510.48 
L 517.13379 7.2 
" clip-path="url(#p1d452ebfca)" style="fill: none; stroke-dasharray: 0.8,1.32; stroke-dashoffset: 0; stroke: #b0b0b0; stroke-opacity: 0.15; stroke-width: 0.8"/>
     </g>
     <g id="line2d_42">
      <g>
       <use xlink:href="#m0d315d301b" x="517.13379" y="510.48" style="stroke: #000000; stroke-width: 0.6"/>
      </g>
     </g>
    </g>
    <g id="xtick_22">
     <g id="line2d_43">
      <path d="M 588.926014 510.48 
L 588.926014 7.2 
" clip-path="url(#p1d452ebfca)" style="fill: none; stroke-dasharray: 0.8,1.32; stroke-dashoffset: 0; stroke: #b0b0b0; stroke-opacity: 0.15; stroke-width: 0.8"/>
     </g>
     <g id="line2d_44">
      <g>
       <use xlink:href="#m0d315d301b" x="588.926014" y="510.48" style="stroke: #000000; stroke-width: 0.6"/>
      </g>
     </g>
    </g>
    <g id="text_4">
     <!-- μ -->
     <g transform="translate(341.364318 551.908125) scale(0.4 -0.4)">
      <defs>
       <path id="DejaVuSans-3bc" d="M 544 -1331 
L 544 3500 
L 1119 3500 
L 1119 1325 
Q 1119 872 1334 640 
Q 1550 409 1972 409 
Q 2434 409 2667 671 
Q 2900 934 2900 1459 
L 2900 3500 
L 3475 3500 
L 3475 806 
Q 3475 619 3529 530 
Q 3584 441 3700 441 
Q 3728 441 3778 458 
Q 3828 475 3916 513 
L 3916 50 
Q 3788 -22 3673 -56 
Q 3559 -91 3450 -91 
Q 3234 -91 3106 31 
Q 2978 153 2931 403 
Q 2775 156 2548 32 
Q 2322 -91 2016 -91 
Q 1697 -91 1473 31 
Q 1250 153 1119 397 
L 1119 -1331 
L 544 -1331 
z
" transform="scale(0.015625)"/>
      </defs>
      <use xlink:href="#DejaVuSans-3bc"/>
     </g>
    </g>
   </g>
   <g id="matplotlib.axis_2">
    <g id="ytick_1">
     <g id="line2d_45">
      <path d="M 88.4125 396.344873 
L 619.766136 396.344873 
" clip-path="url(#p1d452ebfca)" style="fill: none; stroke: #b0b0b0; stroke-opacity: 0.3; stroke-width: 0.8; stroke-linecap: square"/>
     </g>
     <g id="line2d_46">
      <defs>
       <path id="m5d6c59338b" d="M 0 0 
L -3.5 0 
" style="stroke: #000000; stroke-width: 0.8"/>
      </defs>
      <g>
       <use xlink:href="#m5d6c59338b" x="88.4125" y="396.344873" style="stroke: #000000; stroke-width: 0.8"/>
      </g>
     </g>
     <g id="text_5">
      <!-- $\mathdefault{10^{-3}}$ -->
      <g transform="translate(10.9125 407.742529) scale(0.3 -0.3)">
       <use xlink:href="#DejaVuSans-31" transform="translate(0 0.765625)"/>
       <use xlink:href="#DejaVuSans-30" transform="translate(63.623047 0.765625)"/>
       <use xlink:href="#DejaVuSans-2212" transform="translate(128.203125 39.046875) scale(0.7)"/>
       <use xlink:href="#DejaVuSans-33" transform="translate(186.855469 39.046875) scale(0.7)"/>
      </g>
     </g>
    </g>
    <g id="ytick_2">
     <g id="line2d_47">
      <path d="M 88.4125 272.784661 
L 619.766136 272.784661 
" clip-path="url(#p1d452ebfca)" style="fill: none; stroke: #b0b0b0; stroke-opacity: 0.3; stroke-width: 0.8; stroke-linecap: square"/>
     </g>
     <g id="line2d_48">
      <g>
       <use xlink:href="#m5d6c59338b" x="88.4125" y="272.784661" style="stroke: #000000; stroke-width: 0.8"/>
      </g>
     </g>
     <g id="text_6">
      <!-- $\mathdefault{10^{-2}}$ -->
      <g transform="translate(10.9125 284.182317) scale(0.3 -0.3)">
       <use xlink:href="#DejaVuSans-31" transform="translate(0 0.765625)"/>
       <use xlink:href="#DejaVuSans-30" transform="translate(63.623047 0.765625)"/>
       <use xlink:href="#DejaVuSans-2212" transform="translate(128.203125 39.046875) scale(0.7)"/>
       <use xlink:href="#DejaVuSans-32" transform="translate(186.855469 39.046875) scale(0.7)"/>
      </g>
     </g>
    </g>
    <g id="ytick_3">
     <g id="line2d_49">
      <path d="M 88.4125 149.224449 
L 619.766136 149.224449 
" clip-path="url(#p1d452ebfca)" style="fill: none; stroke: #b0b0b0; stroke-opacity: 0.3; stroke-width: 0.8; stroke-linecap: square"/>
     </g>
     <g id="line2d_50">
      <g>
       <use xlink:href="#m5d6c59338b" x="88.4125" y="149.224449" style="stroke: #000000; stroke-width: 0.8"/>
      </g>
     </g>
     <g id="text_7">
      <!-- $\mathdefault{10^{-1}}$ -->
      <g transform="translate(10.9125 160.622105) scale(0.3 -0.3)">
       <use xlink:href="#DejaVuSans-31" transform="translate(0 0.684375)"/>
       <use xlink:href="#DejaVuSans-30" transform="translate(63.623047 0.684375)"/>
       <use xlink:href="#DejaVuSans-2212" transform="translate(128.203125 38.965625) scale(0.7)"/>
       <use xlink:href="#DejaVuSans-31" transform="translate(186.855469 38.965625) scale(0.7)"/>
      </g>
     </g>
    </g>
    <g id="ytick_4">
     <g id="line2d_51">
      <path d="M 88.4125 25.664237 
L 619.766136 25.664237 
" clip-path="url(#p1d452ebfca)" style="fill: none; stroke: #b0b0b0; stroke-opacity: 0.3; stroke-width: 0.8; stroke-linecap: square"/>
     </g>
     <g id="line2d_52">
      <g>
       <use xlink:href="#m5d6c59338b" x="88.4125" y="25.664237" style="stroke: #000000; stroke-width: 0.8"/>
      </g>
     </g>
     <g id="text_8">
      <!-- $\mathdefault{10^{0}}$ -->
      <g transform="translate(28.6125 37.061893) scale(0.3 -0.3)">
       <use xlink:href="#DejaVuSans-31" transform="translate(0 0.765625)"/>
       <use xlink:href="#DejaVuSans-30" transform="translate(63.623047 0.765625)"/>
       <use xlink:href="#DejaVuSans-30" transform="translate(128.203125 39.046875) scale(0.7)"/>
      </g>
     </g>
    </g>
    <g id="ytick_5">
     <g id="line2d_53">
      <path d="M 88.4125 482.709755 
L 619.766136 482.709755 
" clip-path="url(#p1d452ebfca)" style="fill: none; stroke-dasharray: 0.8,1.32; stroke-dashoffset: 0; stroke: #b0b0b0; stroke-opacity: 0.15; stroke-width: 0.8"/>
     </g>
     <g id="line2d_54">
      <defs>
       <path id="m24375ce542" d="M 0 0 
L -2 0 
" style="stroke: #000000; stroke-width: 0.6"/>
      </defs>
      <g>
       <use xlink:href="#m24375ce542" x="88.4125" y="482.709755" style="stroke: #000000; stroke-width: 0.6"/>
      </g>
     </g>
    </g>
    <g id="ytick_6">
     <g id="line2d_55">
      <path d="M 88.4125 460.951881 
L 619.766136 460.951881 
" clip-path="url(#p1d452ebfca)" style="fill: none; stroke-dasharray: 0.8,1.32; stroke-dashoffset: 0; stroke: #b0b0b0; stroke-opacity: 0.15; stroke-width: 0.8"/>
     </g>
     <g id="line2d_56">
      <g>
       <use xlink:href="#m24375ce542" x="88.4125" y="460.951881" style="stroke: #000000; stroke-width: 0.6"/>
      </g>
     </g>
    </g>
    <g id="ytick_7">
     <g id="line2d_57">
      <path d="M 88.4125 445.514425 
L 619.766136 445.514425 
" clip-path="url(#p1d452ebfca)" style="fill: none; stroke-dasharray: 0.8,1.32; stroke-dashoffset: 0; stroke: #b0b0b0; stroke-opacity: 0.15; stroke-width: 0.8"/>
     </g>
     <g id="line2d_58">
      <g>
       <use xlink:href="#m24375ce542" x="88.4125" y="445.514425" style="stroke: #000000; stroke-width: 0.6"/>
      </g>
     </g>
    </g>
    <g id="ytick_8">
     <g id="line2d_59">
      <path d="M 88.4125 433.540203 
L 619.766136 433.540203 
" clip-path="url(#p1d452ebfca)" style="fill: none; stroke-dasharray: 0.8,1.32; stroke-dashoffset: 0; stroke: #b0b0b0; stroke-opacity: 0.15; stroke-width: 0.8"/>
     </g>
     <g id="line2d_60">
      <g>
       <use xlink:href="#m24375ce542" x="88.4125" y="433.540203" style="stroke: #000000; stroke-width: 0.6"/>
      </g>
     </g>
    </g>
    <g id="ytick_9">
     <g id="line2d_61">
      <path d="M 88.4125 423.756551 
L 619.766136 423.756551 
" clip-path="url(#p1d452ebfca)" style="fill: none; stroke-dasharray: 0.8,1.32; stroke-dashoffset: 0; stroke: #b0b0b0; stroke-opacity: 0.15; stroke-width: 0.8"/>
     </g>
     <g id="line2d_62">
      <g>
       <use xlink:href="#m24375ce542" x="88.4125" y="423.756551" style="stroke: #000000; stroke-width: 0.6"/>
      </g>
     </g>
    </g>
    <g id="ytick_10">
     <g id="line2d_63">
      <path d="M 88.4125 415.484592 
L 619.766136 415.484592 
" clip-path="url(#p1d452ebfca)" style="fill: none; stroke-dasharray: 0.8,1.32; stroke-dashoffset: 0; stroke: #b0b0b0; stroke-opacity: 0.15; stroke-width: 0.8"/>
     </g>
     <g id="line2d_64">
      <g>
       <use xlink:href="#m24375ce542" x="88.4125" y="415.484592" style="stroke: #000000; stroke-width: 0.6"/>
      </g>
     </g>
    </g>
    <g id="ytick_11">
     <g id="line2d_65">
      <path d="M 88.4125 408.319095 
L 619.766136 408.319095 
" clip-path="url(#p1d452ebfca)" style="fill: none; stroke-dasharray: 0.8,1.32; stroke-dashoffset: 0; stroke: #b0b0b0; stroke-opacity: 0.15; stroke-width: 0.8"/>
     </g>
     <g id="line2d_66">
      <g>
       <use xlink:href="#m24375ce542" x="88.4125" y="408.319095" style="stroke: #000000; stroke-width: 0.6"/>
      </g>
     </g>
    </g>
    <g id="ytick_12">
     <g id="line2d_67">
      <path d="M 88.4125 401.998678 
L 619.766136 401.998678 
" clip-path="url(#p1d452ebfca)" style="fill: none; stroke-dasharray: 0.8,1.32; stroke-dashoffset: 0; stroke: #b0b0b0; stroke-opacity: 0.15; stroke-width: 0.8"/>
     </g>
     <g id="line2d_68">
      <g>
       <use xlink:href="#m24375ce542" x="88.4125" y="401.998678" style="stroke: #000000; stroke-width: 0.6"/>
      </g>
     </g>
    </g>
    <g id="ytick_13">
     <g id="line2d_69">
      <path d="M 88.4125 359.149543 
L 619.766136 359.149543 
" clip-path="url(#p1d452ebfca)" style="fill: none; stroke-dasharray: 0.8,1.32; stroke-dashoffset: 0; stroke: #b0b0b0; stroke-opacity: 0.15; stroke-width: 0.8"/>
     </g>
     <g id="line2d_70">
      <g>
       <use xlink:href="#m24375ce542" x="88.4125" y="359.149543" style="stroke: #000000; stroke-width: 0.6"/>
      </g>
     </g>
    </g>
    <g id="ytick_14">
     <g id="line2d_71">
      <path d="M 88.4125 337.39167 
L 619.766136 337.39167 
" clip-path="url(#p1d452ebfca)" style="fill: none; stroke-dasharray: 0.8,1.32; stroke-dashoffset: 0; stroke: #b0b0b0; stroke-opacity: 0.15; stroke-width: 0.8"/>
     </g>
     <g id="line2d_72">
      <g>
       <use xlink:href="#m24375ce542" x="88.4125" y="337.39167" style="stroke: #000000; stroke-width: 0.6"/>
      </g>
     </g>
    </g>
    <g id="ytick_15">
     <g id="line2d_73">
      <path d="M 88.4125 321.954213 
L 619.766136 321.954213 
" clip-path="url(#p1d452ebfca)" style="fill: none; stroke-dasharray: 0.8,1.32; stroke-dashoffset: 0; stroke: #b0b0b0; stroke-opacity: 0.15; stroke-width: 0.8"/>
     </g>
     <g id="line2d_74">
      <g>
       <use xlink:href="#m24375ce542" x="88.4125" y="321.954213" style="stroke: #000000; stroke-width: 0.6"/>
      </g>
     </g>
    </g>
    <g id="ytick_16">
     <g id="line2d_75">
      <path d="M 88.4125 309.979991 
L 619.766136 309.979991 
" clip-path="url(#p1d452ebfca)" style="fill: none; stroke-dasharray: 0.8,1.32; stroke-dashoffset: 0; stroke: #b0b0b0; stroke-opacity: 0.15; stroke-width: 0.8"/>
     </g>
     <g id="line2d_76">
      <g>
       <use xlink:href="#m24375ce542" x="88.4125" y="309.979991" style="stroke: #000000; stroke-width: 0.6"/>
      </g>
     </g>
    </g>
    <g id="ytick_17">
     <g id="line2d_77">
      <path d="M 88.4125 300.19634 
L 619.766136 300.19634 
" clip-path="url(#p1d452ebfca)" style="fill: none; stroke-dasharray: 0.8,1.32; stroke-dashoffset: 0; stroke: #b0b0b0; stroke-opacity: 0.15; stroke-width: 0.8"/>
     </g>
     <g id="line2d_78">
      <g>
       <use xlink:href="#m24375ce542" x="88.4125" y="300.19634" style="stroke: #000000; stroke-width: 0.6"/>
      </g>
     </g>
    </g>
    <g id="ytick_18">
     <g id="line2d_79">
      <path d="M 88.4125 291.92438 
L 619.766136 291.92438 
" clip-path="url(#p1d452ebfca)" style="fill: none; stroke-dasharray: 0.8,1.32; stroke-dashoffset: 0; stroke: #b0b0b0; stroke-opacity: 0.15; stroke-width: 0.8"/>
     </g>
     <g id="line2d_80">
      <g>
       <use xlink:href="#m24375ce542" x="88.4125" y="291.92438" style="stroke: #000000; stroke-width: 0.6"/>
      </g>
     </g>
    </g>
    <g id="ytick_19">
     <g id="line2d_81">
      <path d="M 88.4125 284.758883 
L 619.766136 284.758883 
" clip-path="url(#p1d452ebfca)" style="fill: none; stroke-dasharray: 0.8,1.32; stroke-dashoffset: 0; stroke: #b0b0b0; stroke-opacity: 0.15; stroke-width: 0.8"/>
     </g>
     <g id="line2d_82">
      <g>
       <use xlink:href="#m24375ce542" x="88.4125" y="284.758883" style="stroke: #000000; stroke-width: 0.6"/>
      </g>
     </g>
    </g>
    <g id="ytick_20">
     <g id="line2d_83">
      <path d="M 88.4125 278.438466 
L 619.766136 278.438466 
" clip-path="url(#p1d452ebfca)" style="fill: none; stroke-dasharray: 0.8,1.32; stroke-dashoffset: 0; stroke: #b0b0b0; stroke-opacity: 0.15; stroke-width: 0.8"/>
     </g>
     <g id="line2d_84">
      <g>
       <use xlink:href="#m24375ce542" x="88.4125" y="278.438466" style="stroke: #000000; stroke-width: 0.6"/>
      </g>
     </g>
    </g>
    <g id="ytick_21">
     <g id="line2d_85">
      <path d="M 88.4125 235.589331 
L 619.766136 235.589331 
" clip-path="url(#p1d452ebfca)" style="fill: none; stroke-dasharray: 0.8,1.32; stroke-dashoffset: 0; stroke: #b0b0b0; stroke-opacity: 0.15; stroke-width: 0.8"/>
     </g>
     <g id="line2d_86">
      <g>
       <use xlink:href="#m24375ce542" x="88.4125" y="235.589331" style="stroke: #000000; stroke-width: 0.6"/>
      </g>
     </g>
    </g>
    <g id="ytick_22">
     <g id="line2d_87">
      <path d="M 88.4125 213.831458 
L 619.766136 213.831458 
" clip-path="url(#p1d452ebfca)" style="fill: none; stroke-dasharray: 0.8,1.32; stroke-dashoffset: 0; stroke: #b0b0b0; stroke-opacity: 0.15; stroke-width: 0.8"/>
     </g>
     <g id="line2d_88">
      <g>
       <use xlink:href="#m24375ce542" x="88.4125" y="213.831458" style="stroke: #000000; stroke-width: 0.6"/>
      </g>
     </g>
    </g>
    <g id="ytick_23">
     <g id="line2d_89">
      <path d="M 88.4125 198.394001 
L 619.766136 198.394001 
" clip-path="url(#p1d452ebfca)" style="fill: none; stroke-dasharray: 0.8,1.32; stroke-dashoffset: 0; stroke: #b0b0b0; stroke-opacity: 0.15; stroke-width: 0.8"/>
     </g>
     <g id="line2d_90">
      <g>
       <use xlink:href="#m24375ce542" x="88.4125" y="198.394001" style="stroke: #000000; stroke-width: 0.6"/>
      </g>
     </g>
    </g>
    <g id="ytick_24">
     <g id="line2d_91">
      <path d="M 88.4125 186.419779 
L 619.766136 186.419779 
" clip-path="url(#p1d452ebfca)" style="fill: none; stroke-dasharray: 0.8,1.32; stroke-dashoffset: 0; stroke: #b0b0b0; stroke-opacity: 0.15; stroke-width: 0.8"/>
     </g>
     <g id="line2d_92">
      <g>
       <use xlink:href="#m24375ce542" x="88.4125" y="186.419779" style="stroke: #000000; stroke-width: 0.6"/>
      </g>
     </g>
    </g>
    <g id="ytick_25">
     <g id="line2d_93">
      <path d="M 88.4125 176.636128 
L 619.766136 176.636128 
" clip-path="url(#p1d452ebfca)" style="fill: none; stroke-dasharray: 0.8,1.32; stroke-dashoffset: 0; stroke: #b0b0b0; stroke-opacity: 0.15; stroke-width: 0.8"/>
     </g>
     <g id="line2d_94">
      <g>
       <use xlink:href="#m24375ce542" x="88.4125" y="176.636128" style="stroke: #000000; stroke-width: 0.6"/>
      </g>
     </g>
    </g>
    <g id="ytick_26">
     <g id="line2d_95">
      <path d="M 88.4125 168.364168 
L 619.766136 168.364168 
" clip-path="url(#p1d452ebfca)" style="fill: none; stroke-dasharray: 0.8,1.32; stroke-dashoffset: 0; stroke: #b0b0b0; stroke-opacity: 0.15; stroke-width: 0.8"/>
     </g>
     <g id="line2d_96">
      <g>
       <use xlink:href="#m24375ce542" x="88.4125" y="168.364168" style="stroke: #000000; stroke-width: 0.6"/>
      </g>
     </g>
    </g>
    <g id="ytick_27">
     <g id="line2d_97">
      <path d="M 88.4125 161.198671 
L 619.766136 161.198671 
" clip-path="url(#p1d452ebfca)" style="fill: none; stroke-dasharray: 0.8,1.32; stroke-dashoffset: 0; stroke: #b0b0b0; stroke-opacity: 0.15; stroke-width: 0.8"/>
     </g>
     <g id="line2d_98">
      <g>
       <use xlink:href="#m24375ce542" x="88.4125" y="161.198671" style="stroke: #000000; stroke-width: 0.6"/>
      </g>
     </g>
    </g>
    <g id="ytick_28">
     <g id="line2d_99">
      <path d="M 88.4125 154.878254 
L 619.766136 154.878254 
" clip-path="url(#p1d452ebfca)" style="fill: none; stroke-dasharray: 0.8,1.32; stroke-dashoffset: 0; stroke: #b0b0b0; stroke-opacity: 0.15; stroke-width: 0.8"/>
     </g>
     <g id="line2d_100">
      <g>
       <use xlink:href="#m24375ce542" x="88.4125" y="154.878254" style="stroke: #000000; stroke-width: 0.6"/>
      </g>
     </g>
    </g>
    <g id="ytick_29">
     <g id="line2d_101">
      <path d="M 88.4125 112.029119 
L 619.766136 112.029119 
" clip-path="url(#p1d452ebfca)" style="fill: none; stroke-dasharray: 0.8,1.32; stroke-dashoffset: 0; stroke: #b0b0b0; stroke-opacity: 0.15; stroke-width: 0.8"/>
     </g>
     <g id="line2d_102">
      <g>
       <use xlink:href="#m24375ce542" x="88.4125" y="112.029119" style="stroke: #000000; stroke-width: 0.6"/>
      </g>
     </g>
    </g>
    <g id="ytick_30">
     <g id="line2d_103">
      <path d="M 88.4125 90.271246 
L 619.766136 90.271246 
" clip-path="url(#p1d452ebfca)" style="fill: none; stroke-dasharray: 0.8,1.32; stroke-dashoffset: 0; stroke: #b0b0b0; stroke-opacity: 0.15; stroke-width: 0.8"/>
     </g>
     <g id="line2d_104">
      <g>
       <use xlink:href="#m24375ce542" x="88.4125" y="90.271246" style="stroke: #000000; stroke-width: 0.6"/>
      </g>
     </g>
    </g>
    <g id="ytick_31">
     <g id="line2d_105">
      <path d="M 88.4125 74.833789 
L 619.766136 74.833789 
" clip-path="url(#p1d452ebfca)" style="fill: none; stroke-dasharray: 0.8,1.32; stroke-dashoffset: 0; stroke: #b0b0b0; stroke-opacity: 0.15; stroke-width: 0.8"/>
     </g>
     <g id="line2d_106">
      <g>
       <use xlink:href="#m24375ce542" x="88.4125" y="74.833789" style="stroke: #000000; stroke-width: 0.6"/>
      </g>
     </g>
    </g>
    <g id="ytick_32">
     <g id="line2d_107">
      <path d="M 88.4125 62.859567 
L 619.766136 62.859567 
" clip-path="url(#p1d452ebfca)" style="fill: none; stroke-dasharray: 0.8,1.32; stroke-dashoffset: 0; stroke: #b0b0b0; stroke-opacity: 0.15; stroke-width: 0.8"/>
     </g>
     <g id="line2d_108">
      <g>
       <use xlink:href="#m24375ce542" x="88.4125" y="62.859567" style="stroke: #000000; stroke-width: 0.6"/>
      </g>
     </g>
    </g>
    <g id="ytick_33">
     <g id="line2d_109">
      <path d="M 88.4125 53.075916 
L 619.766136 53.075916 
" clip-path="url(#p1d452ebfca)" style="fill: none; stroke-dasharray: 0.8,1.32; stroke-dashoffset: 0; stroke: #b0b0b0; stroke-opacity: 0.15; stroke-width: 0.8"/>
     </g>
     <g id="line2d_110">
      <g>
       <use xlink:href="#m24375ce542" x="88.4125" y="53.075916" style="stroke: #000000; stroke-width: 0.6"/>
      </g>
     </g>
    </g>
    <g id="ytick_34">
     <g id="line2d_111">
      <path d="M 88.4125 44.803956 
L 619.766136 44.803956 
" clip-path="url(#p1d452ebfca)" style="fill: none; stroke-dasharray: 0.8,1.32; stroke-dashoffset: 0; stroke: #b0b0b0; stroke-opacity: 0.15; stroke-width: 0.8"/>
     </g>
     <g id="line2d_112">
      <g>
       <use xlink:href="#m24375ce542" x="88.4125" y="44.803956" style="stroke: #000000; stroke-width: 0.6"/>
      </g>
     </g>
    </g>
    <g id="ytick_35">
     <g id="line2d_113">
      <path d="M 88.4125 37.638459 
L 619.766136 37.638459 
" clip-path="url(#p1d452ebfca)" style="fill: none; stroke-dasharray: 0.8,1.32; stroke-dashoffset: 0; stroke: #b0b0b0; stroke-opacity: 0.15; stroke-width: 0.8"/>
     </g>
     <g id="line2d_114">
      <g>
       <use xlink:href="#m24375ce542" x="88.4125" y="37.638459" style="stroke: #000000; stroke-width: 0.6"/>
      </g>
     </g>
    </g>
    <g id="ytick_36">
     <g id="line2d_115">
      <path d="M 88.4125 31.318042 
L 619.766136 31.318042 
" clip-path="url(#p1d452ebfca)" style="fill: none; stroke-dasharray: 0.8,1.32; stroke-dashoffset: 0; stroke: #b0b0b0; stroke-opacity: 0.15; stroke-width: 0.8"/>
     </g>
     <g id="line2d_116">
      <g>
       <use xlink:href="#m24375ce542" x="88.4125" y="31.318042" style="stroke: #000000; stroke-width: 0.6"/>
      </g>
     </g>
    </g>
    <g id="text_9">
     <!-- Largest Cluster -->
     <g transform="translate(37.59375 410.715) rotate(-90) scale(0.4 -0.4)">
      <defs>
       <path id="DejaVuSans-4c" d="M 628 4666 
L 1259 4666 
L 1259 531 
L 3531 531 
L 3531 0 
L 628 0 
L 628 4666 
z
" transform="scale(0.015625)"/>
       <path id="DejaVuSans-61" d="M 2194 1759 
Q 1497 1759 1228 1600 
Q 959 1441 959 1056 
Q 959 750 1161 570 
Q 1363 391 1709 391 
Q 2188 391 2477 730 
Q 2766 1069 2766 1631 
L 2766 1759 
L 2194 1759 
z
M 3341 1997 
L 3341 0 
L 2766 0 
L 2766 531 
Q 2569 213 2275 61 
Q 1981 -91 1556 -91 
Q 1019 -91 701 211 
Q 384 513 384 1019 
Q 384 1609 779 1909 
Q 1175 2209 1959 2209 
L 2766 2209 
L 2766 2266 
Q 2766 2663 2505 2880 
Q 2244 3097 1772 3097 
Q 1472 3097 1187 3025 
Q 903 2953 641 2809 
L 641 3341 
Q 956 3463 1253 3523 
Q 1550 3584 1831 3584 
Q 2591 3584 2966 3190 
Q 3341 2797 3341 1997 
z
" transform="scale(0.015625)"/>
       <path id="DejaVuSans-72" d="M 2631 2963 
Q 2534 3019 2420 3045 
Q 2306 3072 2169 3072 
Q 1681 3072 1420 2755 
Q 1159 2438 1159 1844 
L 1159 0 
L 581 0 
L 581 3500 
L 1159 3500 
L 1159 2956 
Q 1341 3275 1631 3429 
Q 1922 3584 2338 3584 
Q 2397 3584 2469 3576 
Q 2541 3569 2628 3553 
L 2631 2963 
z
" transform="scale(0.015625)"/>
       <path id="DejaVuSans-67" d="M 2906 1791 
Q 2906 2416 2648 2759 
Q 2391 3103 1925 3103 
Q 1463 3103 1205 2759 
Q 947 2416 947 1791 
Q 947 1169 1205 825 
Q 1463 481 1925 481 
Q 2391 481 2648 825 
Q 2906 1169 2906 1791 
z
M 3481 434 
Q 3481 -459 3084 -895 
Q 2688 -1331 1869 -1331 
Q 1566 -1331 1297 -1286 
Q 1028 -1241 775 -1147 
L 775 -588 
Q 1028 -725 1275 -790 
Q 1522 -856 1778 -856 
Q 2344 -856 2625 -561 
Q 2906 -266 2906 331 
L 2906 616 
Q 2728 306 2450 153 
Q 2172 0 1784 0 
Q 1141 0 747 490 
Q 353 981 353 1791 
Q 353 2603 747 3093 
Q 1141 3584 1784 3584 
Q 2172 3584 2450 3431 
Q 2728 3278 2906 2969 
L 2906 3500 
L 3481 3500 
L 3481 434 
z
" transform="scale(0.015625)"/>
       <path id="DejaVuSans-65" d="M 3597 1894 
L 3597 1613 
L 953 1613 
Q 991 1019 1311 708 
Q 1631 397 2203 397 
Q 2534 397 2845 478 
Q 3156 559 3463 722 
L 3463 178 
Q 3153 47 2828 -22 
Q 2503 -91 2169 -91 
Q 1331 -91 842 396 
Q 353 884 353 1716 
Q 353 2575 817 3079 
Q 1281 3584 2069 3584 
Q 2775 3584 3186 3129 
Q 3597 2675 3597 1894 
z
M 3022 2063 
Q 3016 2534 2758 2815 
Q 2500 3097 2075 3097 
Q 1594 3097 1305 2825 
Q 1016 2553 972 2059 
L 3022 2063 
z
" transform="scale(0.015625)"/>
       <path id="DejaVuSans-73" d="M 2834 3397 
L 2834 2853 
Q 2591 2978 2328 3040 
Q 2066 3103 1784 3103 
Q 1356 3103 1142 2972 
Q 928 2841 928 2578 
Q 928 2378 1081 2264 
Q 1234 2150 1697 2047 
L 1894 2003 
Q 2506 1872 2764 1633 
Q 3022 1394 3022 966 
Q 3022 478 2636 193 
Q 2250 -91 1575 -91 
Q 1294 -91 989 -36 
Q 684 19 347 128 
L 347 722 
Q 666 556 975 473 
Q 1284 391 1588 391 
Q 1994 391 2212 530 
Q 2431 669 2431 922 
Q 2431 1156 2273 1281 
Q 2116 1406 1581 1522 
L 1381 1569 
Q 847 1681 609 1914 
Q 372 2147 372 2553 
Q 372 3047 722 3315 
Q 1072 3584 1716 3584 
Q 2034 3584 2315 3537 
Q 2597 3491 2834 3397 
z
" transform="scale(0.015625)"/>
       <path id="DejaVuSans-74" d="M 1172 4494 
L 1172 3500 
L 2356 3500 
L 2356 3053 
L 1172 3053 
L 1172 1153 
Q 1172 725 1289 603 
Q 1406 481 1766 481 
L 2356 481 
L 2356 0 
L 1766 0 
Q 1100 0 847 248 
Q 594 497 594 1153 
L 594 3053 
L 172 3053 
L 172 3500 
L 594 3500 
L 594 4494 
L 1172 4494 
z
" transform="scale(0.015625)"/>
       <path id="DejaVuSans-20" transform="scale(0.015625)"/>
       <path id="DejaVuSans-43" d="M 4122 4306 
L 4122 3641 
Q 3803 3938 3442 4084 
Q 3081 4231 2675 4231 
Q 1875 4231 1450 3742 
Q 1025 3253 1025 2328 
Q 1025 1406 1450 917 
Q 1875 428 2675 428 
Q 3081 428 3442 575 
Q 3803 722 4122 1019 
L 4122 359 
Q 3791 134 3420 21 
Q 3050 -91 2638 -91 
Q 1578 -91 968 557 
Q 359 1206 359 2328 
Q 359 3453 968 4101 
Q 1578 4750 2638 4750 
Q 3056 4750 3426 4639 
Q 3797 4528 4122 4306 
z
" transform="scale(0.015625)"/>
       <path id="DejaVuSans-6c" d="M 603 4863 
L 1178 4863 
L 1178 0 
L 603 0 
L 603 4863 
z
" transform="scale(0.015625)"/>
       <path id="DejaVuSans-75" d="M 544 1381 
L 544 3500 
L 1119 3500 
L 1119 1403 
Q 1119 906 1312 657 
Q 1506 409 1894 409 
Q 2359 409 2629 706 
Q 2900 1003 2900 1516 
L 2900 3500 
L 3475 3500 
L 3475 0 
L 2900 0 
L 2900 538 
Q 2691 219 2414 64 
Q 2138 -91 1772 -91 
Q 1169 -91 856 284 
Q 544 659 544 1381 
z
M 1991 3584 
L 1991 3584 
z
" transform="scale(0.015625)"/>
      </defs>
      <use xlink:href="#DejaVuSans-4c"/>
      <use xlink:href="#DejaVuSans-61" x="55.712891"/>
      <use xlink:href="#DejaVuSans-72" x="116.992188"/>
      <use xlink:href="#DejaVuSans-67" x="156.355469"/>
      <use xlink:href="#DejaVuSans-65" x="219.832031"/>
      <use xlink:href="#DejaVuSans-73" x="281.355469"/>
      <use xlink:href="#DejaVuSans-74" x="333.455078"/>
      <use xlink:href="#DejaVuSans-20" x="372.664062"/>
      <use xlink:href="#DejaVuSans-43" x="404.451172"/>
      <use xlink:href="#DejaVuSans-6c" x="474.275391"/>
      <use xlink:href="#DejaVuSans-75" x="502.058594"/>
      <use xlink:href="#DejaVuSans-73" x="565.4375"/>
      <use xlink:href="#DejaVuSans-74" x="617.537109"/>
      <use xlink:href="#DejaVuSans-65" x="656.746094"/>
      <use xlink:href="#DejaVuSans-72" x="718.269531"/>
     </g>
    </g>
   </g>
   <g id="line2d_117">
    <path d="M 112.564938 121.941179 
L 147.06845 120.938919 
L 181.572094 119.863374 
L 216.075406 118.521378 
L 250.578829 115.30324 
L 285.082264 114.854953 
L 319.58574 107.693254 
L 354.089252 101.438556 
L 388.592896 102.994125 
L 423.096208 112.817295 
L 457.599631 133.644314 
L 492.103066 175.365028 
L 526.606543 293.401875 
L 561.110055 443.057945 
L 595.613698 487.273855 
" clip-path="url(#p1d452ebfca)" style="fill: none; stroke: #0d0887; stroke-width: 2; stroke-linecap: square"/>
   </g>
   <g id="line2d_118">
    <path d="M 112.564938 119.120587 
L 147.06845 118.607136 
L 181.572094 114.241554 
L 216.075406 115.933351 
L 250.578829 113.714899 
L 285.082264 109.883942 
L 319.58574 104.934429 
L 354.089252 104.394463 
L 388.592896 108.599223 
L 423.096208 116.855687 
L 457.599631 134.340101 
L 492.103066 186.826098 
L 526.606543 325.549802 
L 561.110055 449.458308 
L 595.613698 487.504399 
" clip-path="url(#p1d452ebfca)" style="fill: none; stroke: #5901a5; stroke-width: 2; stroke-linecap: square"/>
   </g>
   <g id="line2d_119">
    <path d="M 112.564938 115.474219 
L 147.06845 115.19537 
L 181.572094 109.729881 
L 216.075406 110.635461 
L 250.578829 110.45037 
L 285.082264 102.371036 
L 319.58574 102.671834 
L 354.089252 100.724159 
L 388.592896 103.272627 
L 423.096208 113.609113 
L 457.599631 136.710423 
L 492.103066 196.714845 
L 526.606543 343.558452 
L 561.110055 451.108681 
L 595.613698 486.786389 
" clip-path="url(#p1d452ebfca)" style="fill: none; stroke: #9613a1; stroke-width: 2; stroke-linecap: square"/>
   </g>
   <g id="line2d_120">
    <path d="M 112.564938 114.874 
L 147.06845 112.583241 
L 181.572094 110.626493 
L 216.075406 109.706735 
L 250.578829 106.522816 
L 285.082264 101.436878 
L 319.58574 107.114989 
L 354.089252 102.12974 
L 388.592896 107.11969 
L 423.096208 120.273856 
L 457.599631 151.247971 
L 492.103066 207.855138 
L 526.606543 358.946684 
L 561.110055 450.581205 
L 595.613698 485.300034 
" clip-path="url(#p1d452ebfca)" style="fill: none; stroke: #c5407e; stroke-width: 2; stroke-linecap: square"/>
   </g>
   <g id="line2d_121">
    <path d="M 112.564938 105.345143 
L 147.06845 106.07487 
L 181.572094 100.317201 
L 216.075406 103.955552 
L 250.578829 101.087979 
L 285.082264 100.101066 
L 319.58574 100.903969 
L 354.089252 101.139527 
L 388.592896 110.409215 
L 423.096208 121.86678 
L 457.599631 154.495081 
L 492.103066 210.900443 
L 526.606543 369.010507 
L 561.110055 447.662632 
L 595.613698 482.593657 
" clip-path="url(#p1d452ebfca)" style="fill: none; stroke: #e76f5a; stroke-width: 2; stroke-linecap: square"/>
   </g>
   <g id="line2d_122">
    <path d="M 112.564938 70.396116 
L 147.06845 76.69698 
L 181.572094 75.130698 
L 216.075406 71.776667 
L 250.578829 77.553961 
L 285.082264 83.836543 
L 319.58574 89.93333 
L 354.089252 93.23357 
L 388.592896 117.536616 
L 423.096208 128.751075 
L 457.599631 162.767072 
L 492.103066 210.726306 
L 526.606543 372.958661 
L 561.110055 441.92978 
L 595.613698 477.273862 
" clip-path="url(#p1d452ebfca)" style="fill: none; stroke: #fca338; stroke-width: 2; stroke-linecap: square"/>
   </g>
   <g id="line2d_123">
    <path d="M 112.564938 31.465284 
L 147.06845 33.598974 
L 181.572094 39.10825 
L 216.075406 41.671692 
L 250.578829 45.342534 
L 285.082264 60.274759 
L 319.58574 71.016799 
L 354.089252 80.19735 
L 388.592896 101.47939 
L 423.096208 124.372718 
L 457.599631 163.048337 
L 492.103066 203.693998 
L 526.606543 368.041037 
L 561.110055 429.32876 
L 595.613698 471.677322 
" clip-path="url(#p1d452ebfca)" style="fill: none; stroke: #f7e425; stroke-width: 2; stroke-linecap: square"/>
   </g>
   <g id="patch_3">
    <path d="M 88.4125 510.48 
L 88.4125 7.2 
" style="fill: none; stroke: #000000; stroke-width: 0.8; stroke-linejoin: miter; stroke-linecap: square"/>
   </g>
   <g id="patch_4">
    <path d="M 619.766136 510.48 
L 619.766136 7.2 
" style="fill: none; stroke: #000000; stroke-width: 0.8; stroke-linejoin: miter; stroke-linecap: square"/>
   </g>
   <g id="patch_5">
    <path d="M 88.4125 510.48 
L 619.766136 510.48 
" style="fill: none; stroke: #000000; stroke-width: 0.8; stroke-linejoin: miter; stroke-linecap: square"/>
   </g>
   <g id="patch_6">
    <path d="M 88.4125 7.2 
L 619.766136 7.2 
" style="fill: none; stroke: #000000; stroke-width: 0.8; stroke-linejoin: miter; stroke-linecap: square"/>
   </g>
   <g id="legend_1">
    <g id="patch_7">
     <path d="M 102.4125 500.48 
L 228.1625 500.48 
Q 232.1625 500.48 232.1625 496.48 
L 232.1625 292.98625 
Q 232.1625 288.98625 228.1625 288.98625 
L 102.4125 288.98625 
Q 98.4125 288.98625 98.4125 292.98625 
L 98.4125 496.48 
Q 98.4125 500.48 102.4125 500.48 
z
" style="fill: #ffffff; opacity: 0.8; stroke: #cccccc; stroke-linejoin: miter"/>
    </g>
    <g id="line2d_124">
     <path d="M 106.4125 305.183125 
L 126.4125 305.183125 
L 146.4125 305.183125 
" style="fill: none; stroke: #0d0887; stroke-width: 2; stroke-linecap: square"/>
    </g>
    <g id="text_10">
     <!-- α=0.2 -->
     <g transform="translate(162.4125 312.183125) scale(0.2 -0.2)">
      <defs>
       <path id="DejaVuSans-3b1" d="M 2644 1628 
L 2506 2350 
Q 2366 3091 1809 3091 
Q 1391 3091 1200 2747 
Q 959 2316 959 1747 
Q 959 1059 1194 731 
Q 1431 397 1809 397 
Q 2228 397 2453 1063 
L 2644 1628 
z
M 2966 2584 
L 3275 3500 
L 3788 3500 
L 3147 1603 
L 3272 919 
Q 3300 766 3409 638 
Q 3538 488 3638 488 
L 3913 488 
L 3913 0 
L 3569 0 
Q 3275 0 3013 263 
Q 2884 394 2831 669 
Q 2688 322 2394 50 
Q 2256 -78 1809 -78 
Q 1075 -78 719 397 
Q 353 888 353 1747 
Q 353 2666 750 3097 
Q 1191 3578 1809 3578 
Q 2781 3578 2966 2584 
z
" transform="scale(0.015625)"/>
       <path id="DejaVuSans-3d" d="M 678 2906 
L 4684 2906 
L 4684 2381 
L 678 2381 
L 678 2906 
z
M 678 1631 
L 4684 1631 
L 4684 1100 
L 678 1100 
L 678 1631 
z
" transform="scale(0.015625)"/>
       <path id="DejaVuSans-2e" d="M 684 794 
L 1344 794 
L 1344 0 
L 684 0 
L 684 794 
z
" transform="scale(0.015625)"/>
      </defs>
      <use xlink:href="#DejaVuSans-3b1"/>
      <use xlink:href="#DejaVuSans-3d" x="65.917969"/>
      <use xlink:href="#DejaVuSans-30" x="149.707031"/>
      <use xlink:href="#DejaVuSans-2e" x="213.330078"/>
      <use xlink:href="#DejaVuSans-32" x="245.117188"/>
     </g>
    </g>
    <g id="line2d_125">
     <path d="M 106.4125 334.539375 
L 126.4125 334.539375 
L 146.4125 334.539375 
" style="fill: none; stroke: #5901a5; stroke-width: 2; stroke-linecap: square"/>
    </g>
    <g id="text_11">
     <!-- α=0.4 -->
     <g transform="translate(162.4125 341.539375) scale(0.2 -0.2)">
      <use xlink:href="#DejaVuSans-3b1"/>
      <use xlink:href="#DejaVuSans-3d" x="65.917969"/>
      <use xlink:href="#DejaVuSans-30" x="149.707031"/>
      <use xlink:href="#DejaVuSans-2e" x="213.330078"/>
      <use xlink:href="#DejaVuSans-34" x="245.117188"/>
     </g>
    </g>
    <g id="line2d_126">
     <path d="M 106.4125 363.895625 
L 126.4125 363.895625 
L 146.4125 363.895625 
" style="fill: none; stroke: #9613a1; stroke-width: 2; stroke-linecap: square"/>
    </g>
    <g id="text_12">
     <!-- α=0.6 -->
     <g transform="translate(162.4125 370.895625) scale(0.2 -0.2)">
      <defs>
       <path id="DejaVuSans-36" d="M 2113 2584 
Q 1688 2584 1439 2293 
Q 1191 2003 1191 1497 
Q 1191 994 1439 701 
Q 1688 409 2113 409 
Q 2538 409 2786 701 
Q 3034 994 3034 1497 
Q 3034 2003 2786 2293 
Q 2538 2584 2113 2584 
z
M 3366 4563 
L 3366 3988 
Q 3128 4100 2886 4159 
Q 2644 4219 2406 4219 
Q 1781 4219 1451 3797 
Q 1122 3375 1075 2522 
Q 1259 2794 1537 2939 
Q 1816 3084 2150 3084 
Q 2853 3084 3261 2657 
Q 3669 2231 3669 1497 
Q 3669 778 3244 343 
Q 2819 -91 2113 -91 
Q 1303 -91 875 529 
Q 447 1150 447 2328 
Q 447 3434 972 4092 
Q 1497 4750 2381 4750 
Q 2619 4750 2861 4703 
Q 3103 4656 3366 4563 
z
" transform="scale(0.015625)"/>
      </defs>
      <use xlink:href="#DejaVuSans-3b1"/>
      <use xlink:href="#DejaVuSans-3d" x="65.917969"/>
      <use xlink:href="#DejaVuSans-30" x="149.707031"/>
      <use xlink:href="#DejaVuSans-2e" x="213.330078"/>
      <use xlink:href="#DejaVuSans-36" x="245.117188"/>
     </g>
    </g>
    <g id="line2d_127">
     <path d="M 106.4125 393.251875 
L 126.4125 393.251875 
L 146.4125 393.251875 
" style="fill: none; stroke: #c5407e; stroke-width: 2; stroke-linecap: square"/>
    </g>
    <g id="text_13">
     <!-- α=0.8 -->
     <g transform="translate(162.4125 400.251875) scale(0.2 -0.2)">
      <defs>
       <path id="DejaVuSans-38" d="M 2034 2216 
Q 1584 2216 1326 1975 
Q 1069 1734 1069 1313 
Q 1069 891 1326 650 
Q 1584 409 2034 409 
Q 2484 409 2743 651 
Q 3003 894 3003 1313 
Q 3003 1734 2745 1975 
Q 2488 2216 2034 2216 
z
M 1403 2484 
Q 997 2584 770 2862 
Q 544 3141 544 3541 
Q 544 4100 942 4425 
Q 1341 4750 2034 4750 
Q 2731 4750 3128 4425 
Q 3525 4100 3525 3541 
Q 3525 3141 3298 2862 
Q 3072 2584 2669 2484 
Q 3125 2378 3379 2068 
Q 3634 1759 3634 1313 
Q 3634 634 3220 271 
Q 2806 -91 2034 -91 
Q 1263 -91 848 271 
Q 434 634 434 1313 
Q 434 1759 690 2068 
Q 947 2378 1403 2484 
z
M 1172 3481 
Q 1172 3119 1398 2916 
Q 1625 2713 2034 2713 
Q 2441 2713 2670 2916 
Q 2900 3119 2900 3481 
Q 2900 3844 2670 4047 
Q 2441 4250 2034 4250 
Q 1625 4250 1398 4047 
Q 1172 3844 1172 3481 
z
" transform="scale(0.015625)"/>
      </defs>
      <use xlink:href="#DejaVuSans-3b1"/>
      <use xlink:href="#DejaVuSans-3d" x="65.917969"/>
      <use xlink:href="#DejaVuSans-30" x="149.707031"/>
      <use xlink:href="#DejaVuSans-2e" x="213.330078"/>
      <use xlink:href="#DejaVuSans-38" x="245.117188"/>
     </g>
    </g>
    <g id="line2d_128">
     <path d="M 106.4125 422.608125 
L 126.4125 422.608125 
L 146.4125 422.608125 
" style="fill: none; stroke: #e76f5a; stroke-width: 2; stroke-linecap: square"/>
    </g>
    <g id="text_14">
     <!-- α=1.0 -->
     <g transform="translate(162.4125 429.608125) scale(0.2 -0.2)">
      <use xlink:href="#DejaVuSans-3b1"/>
      <use xlink:href="#DejaVuSans-3d" x="65.917969"/>
      <use xlink:href="#DejaVuSans-31" x="149.707031"/>
      <use xlink:href="#DejaVuSans-2e" x="213.330078"/>
      <use xlink:href="#DejaVuSans-30" x="245.117188"/>
     </g>
    </g>
    <g id="line2d_129">
     <path d="M 106.4125 451.964375 
L 126.4125 451.964375 
L 146.4125 451.964375 
" style="fill: none; stroke: #fca338; stroke-width: 2; stroke-linecap: square"/>
    </g>
    <g id="text_15">
     <!-- α=1.2 -->
     <g transform="translate(162.4125 458.964375) scale(0.2 -0.2)">
      <use xlink:href="#DejaVuSans-3b1"/>
      <use xlink:href="#DejaVuSans-3d" x="65.917969"/>
      <use xlink:href="#DejaVuSans-31" x="149.707031"/>
      <use xlink:href="#DejaVuSans-2e" x="213.330078"/>
      <use xlink:href="#DejaVuSans-32" x="245.117188"/>
     </g>
    </g>
    <g id="line2d_130">
     <path d="M 106.4125 481.320625 
L 126.4125 481.320625 
L 146.4125 481.320625 
" style="fill: none; stroke: #f7e425; stroke-width: 2; stroke-linecap: square"/>
    </g>
    <g id="text_16">
     <!-- α=1.4 -->
     <g transform="translate(162.4125 488.320625) scale(0.2 -0.2)">
      <use xlink:href="#DejaVuSans-3b1"/>
      <use xlink:href="#DejaVuSans-3d" x="65.917969"/>
      <use xlink:href="#DejaVuSans-31" x="149.707031"/>
      <use xlink:href="#DejaVuSans-2e" x="213.330078"/>
      <use xlink:href="#DejaVuSans-34" x="245.117188"/>
     </g>
    </g>
   </g>
  </g>
 </g>
 <defs>
  <clipPath id="p1d452ebfca">
   <rect x="88.4125" y="7.2" width="531.353636" height="503.28"/>
  </clipPath>
 </defs>
</svg>
